<svg width="512" height="512" viewBox="0 0 512 512" fill="none" xmlns="http://www.w3.org/2000/svg">
<path d="M155 13.4C155 14.6 154.3 15.6 153.4 15.6L144.8 15.5C143.9 15.5 143.2 14.5 143.2 13.3L143.3 6.30001C143.3 5.10001 144 4.10001 144.9 4.10001L153.5 4.20001C154.4 4.20001 155.1 5.20001 155.1 6.40001L155 13.4Z" fill="#14A3B4"/>
<path d="M154.4 81.1C154.4 79.9 153.7 78.9 152.8 78.9L144.2 78.8C143.3 78.8 142.6 79.8 142.6 81V87.9C142.6 89.1 143.3 90.1 144.2 90.1L152.9 90.2C153.8 90.2 154.5 89.2 154.5 88L154.4 81.1Z" fill="#14A3B4"/>
<path d="M137.2 14.8C137.8 15.9 137.7 17.1 136.9 17.5L129.4 21.8C128.6 22.2 127.5 21.7 126.9 20.7L123.5 14.6C122.9 13.5 123 12.3 123.8 11.9L131.3 7.70001C132.1 7.20001 133.2 7.80001 133.8 8.80001L137.2 14.8Z" fill="#14A3B4"/>
<path d="M170.6 73.8C170 72.7 168.9 72.2 168.1 72.7L160.6 76.9C159.8 77.4 159.7 78.6 160.3 79.6L163.7 85.6C164.3 86.6 165.4 87.2 166.2 86.7L173.7 82.4C174.5 82 174.6 80.7 174 79.7L170.6 73.8Z" fill="#14A3B4"/>
<path d="M122.6 24.9C123.7 25.5 124.1 26.6 123.7 27.4L119.3 34.8C118.8 35.6 117.6 35.7 116.5 35.1L110.5 31.6C109.5 31 109 29.9 109.5 29.1L113.9 21.7C114.4 20.9 115.6 20.8 116.6 21.4L122.6 24.9Z" fill="#14A3B4"/>
<path d="M181 59.3C180 58.7 178.7 58.8 178.3 59.6L173.9 67.1C173.4 67.9 173.9 69 175 69.6L181 73.1C182 73.7 183.3 73.6 183.7 72.8L188.1 65.3C188.6 64.5 188.1 63.4 187 62.8L181 59.3Z" fill="#14A3B4"/>
<path d="M114.9 41C116.1 41 117.1 41.7 117.1 42.6L117 51.2C117 52.1 116 52.8 114.8 52.8H107.8C106.6 52.8 105.6 52 105.6 51.1L105.7 42.5C105.7 41.6 106.7 40.9 107.9 40.9L114.9 41Z" fill="#14A3B4"/>
<path d="M182.7 41.5C181.5 41.5 180.5 42.2 180.4 43.1L180.3 51.7C180.3 52.6 181.3 53.3 182.5 53.3L189.5 53.4C190.7 53.4 191.7 52.7 191.7 51.8L191.8 43.2C191.8 42.3 190.8 41.6 189.6 41.5H182.7Z" fill="#14A3B4"/>
<path d="M116.4 58.7C117.4 58.1 118.6 58.3 119.1 59L123.4 66.5C123.9 67.3 123.4 68.4 122.3 69L116.2 72.4C115.2 73 113.9 72.9 113.5 72.1L109.2 64.6C108.8 63.8 109.3 62.7 110.3 62.1L116.4 58.7Z" fill="#14A3B4"/>
<path d="M175.3 25.3C174.2 25.9 173.8 27 174.2 27.8L178.5 35.3C178.9 36.1 180.2 36.2 181.2 35.6L187.3 32.2C188.4 31.6 188.9 30.5 188.4 29.7L184.1 22.2C183.7 21.4 182.5 21.3 181.4 21.9L175.3 25.3Z" fill="#14A3B4"/>
<path d="M126.5 73.4C127.1 72.4 128.2 71.9 129 72.3L136.5 76.7C137.3 77.2 137.4 78.4 136.8 79.4L133.3 85.4C132.7 86.5 131.6 86.9 130.8 86.5L123.4 82.1C122.6 81.6 122.5 80.4 123.1 79.4L126.5 73.4Z" fill="#14A3B4"/>
<path d="M160.8 15C160.2 16 160.3 17.3 161.1 17.7L168.6 22.1C169.4 22.6 170.5 22.1 171.1 21L174.6 15C175.2 14 175.1 12.7 174.3 12.3L166.9 7.90002C166.1 7.40002 165 7.90002 164.4 9.00002L160.8 15Z" fill="#14A3B4"/>
<path d="M149 10.8C128.9 10.6 112.5 26.8 112.3 46.9C112.1 67 128.3 83.4 148.4 83.6C168.5 83.8 184.9 67.6 185.1 47.5C185.3 27.4 169.1 11 149 10.8ZM148.6 71.2C135.4 71.1 124.7 60.3 124.8 47.1C124.9 33.9 135.7 23.2 148.9 23.3C162.1 23.4 172.8 34.2 172.7 47.5C172.6 60.6 161.8 71.3 148.6 71.2Z" fill="#14A3B4"/>
<path d="M405.4 228.6C405.4 229.5 404.9 230.2 404.2 230.2L398 230.1C397.3 230.1 396.8 229.4 396.8 228.5V223.5C396.8 222.6 397.3 221.9 398 221.9L404.2 222C404.9 222 405.4 222.7 405.4 223.6V228.6Z" fill="#14A3B4"/>
<path d="M405 277.6C405 276.7 404.5 276 403.8 276L397.6 275.9C397 275.9 396.4 276.6 396.4 277.5V282.5C396.4 283.4 396.9 284.1 397.6 284.1H403.9C404.5 284.1 405.1 283.4 405.1 282.5L405 277.6Z" fill="#14A3B4"/>
<path d="M392.6 229.7C393.1 230.5 392.9 231.3 392.4 231.7L387 234.8C386.4 235.1 385.6 234.8 385.2 234L382.7 229.6C382.3 228.8 382.4 228 382.9 227.6L388.3 224.5C388.9 224.2 389.7 224.5 390.1 225.3L392.6 229.7Z" fill="#14A3B4"/>
<path d="M416.7 272.3C416.3 271.5 415.5 271.2 414.9 271.5L409.5 274.6C408.9 274.9 408.8 275.8 409.3 276.6L411.8 281C412.2 281.8 413.1 282.1 413.6 281.8L419 278.7C419.6 278.4 419.7 277.5 419.2 276.7L416.7 272.3Z" fill="#14A3B4"/>
<path d="M382 237C382.8 237.4 383.1 238.3 382.8 238.8L379.7 244.2C379.3 244.8 378.5 244.9 377.7 244.4L373.4 241.9C372.6 241.5 372.3 240.6 372.6 240.1L375.7 234.7C376 234.1 376.9 234 377.7 234.5L382 237Z" fill="#14A3B4"/>
<path d="M424.2 261.8C423.5 261.3 422.6 261.4 422.2 262L419 267.4C418.6 268 419 268.8 419.8 269.2L424.1 271.7C424.9 272.1 425.8 272.1 426.1 271.5L429.2 266.1C429.5 265.5 429.2 264.7 428.4 264.3L424.2 261.8Z" fill="#14A3B4"/>
<path d="M376.5 248.6C377.4 248.6 378.1 249.1 378.1 249.8V256C378.1 256.7 377.4 257.2 376.5 257.2H371.5C370.6 257.2 369.9 256.7 369.9 256V249.8C369.9 249.1 370.6 248.6 371.5 248.6H376.5Z" fill="#14A3B4"/>
<path d="M425.5 249C424.6 249 423.9 249.5 423.9 250.2L423.8 256.4C423.8 257.1 424.5 257.6 425.4 257.6H430.4C431.3 257.6 432 257.1 432 256.4V250.2C432 249.5 431.3 249 430.4 249H425.5Z" fill="#14A3B4"/>
<path d="M377.5 261.4C378.2 261 379.1 261.1 379.4 261.6L382.5 267C382.8 267.6 382.5 268.4 381.7 268.8L377.3 271.3C376.5 271.7 375.7 271.6 375.3 271.1L372.2 265.7C371.9 265.1 372.2 264.3 373 263.9L377.5 261.4Z" fill="#14A3B4"/>
<path d="M420.1 237.3C419.3 237.7 419 238.5 419.3 239.1L422.4 244.5C422.7 245.1 423.6 245.2 424.3 244.7L428.7 242.2C429.5 241.8 429.8 241 429.5 240.4L426.4 235C426.1 234.4 425.2 234.3 424.4 234.8L420.1 237.3Z" fill="#14A3B4"/>
<path d="M384.8 272C385.2 271.2 386.1 270.9 386.6 271.2L392 274.4C392.6 274.7 392.7 275.6 392.2 276.4L389.7 280.7C389.2 281.5 388.4 281.8 387.9 281.5L382.5 278.3C381.9 278 381.8 277.1 382.3 276.3L384.8 272Z" fill="#14A3B4"/>
<path d="M409.6 229.8C409.2 230.6 409.2 231.4 409.8 231.8L415.2 235C415.8 235.3 416.6 235 417 234.2L419.5 229.9C419.9 229.1 419.9 228.2 419.3 227.9L413.9 224.8C413.3 224.5 412.5 224.8 412.1 225.6L409.6 229.8Z" fill="#14A3B4"/>
<path d="M401.1 226.8C386.6 226.7 374.7 238.4 374.6 252.9C374.5 267.4 386.2 279.3 400.7 279.4C415.2 279.5 427.1 267.8 427.2 253.3C427.4 238.8 415.7 226.9 401.1 226.8ZM400.8 270.4C391.2 270.3 383.5 262.5 383.6 253C383.7 243.5 391.5 235.8 401 235.8C410.6 235.9 418.3 243.7 418.2 253.3C418.2 262.8 410.4 270.5 400.8 270.4Z" fill="#14A3B4"/>
<path d="M139.6 296.1C139.6 296.9 139.2 297.4 138.6 297.4H133.4C132.8 297.4 132.4 296.8 132.4 296.1V291.9C132.4 291.2 132.8 290.6 133.4 290.6H138.5C139.1 290.6 139.5 291.2 139.5 291.9L139.6 296.1Z" fill="#14A3B4"/>
<path d="M139.3 336.6C139.3 335.9 138.9 335.3 138.3 335.3H133.1C132.6 335.3 132.1 335.9 132.1 336.6V340.8C132.1 341.5 132.5 342.1 133.1 342.1H138.3C138.8 342.1 139.3 341.5 139.3 340.8V336.6Z" fill="#14A3B4"/>
<path d="M129 297C129.4 297.6 129.3 298.4 128.8 298.6L124.3 301.1C123.8 301.4 123.2 301.1 122.8 300.4L120.8 296.8C120.4 296.2 120.5 295.4 121 295.2L125.5 292.7C126 292.4 126.7 292.7 127 293.4L129 297Z" fill="#14A3B4"/>
<path d="M148.9 332.2C148.6 331.6 147.9 331.3 147.4 331.5L142.9 334C142.4 334.3 142.3 335 142.7 335.6L144.7 339.2C145.1 339.8 145.7 340.1 146.2 339.9L150.7 337.4C151.2 337.1 151.3 336.4 150.9 335.8L148.9 332.2Z" fill="#14A3B4"/>
<path d="M120.2 303C120.8 303.4 121.1 304.1 120.8 304.5L118.2 308.9C117.9 309.4 117.2 309.5 116.5 309.1L112.9 307C112.3 306.6 112 306 112.3 305.5L114.9 301.1C115.2 300.6 115.9 300.6 116.5 300.9L120.2 303Z" fill="#14A3B4"/>
<path d="M155.1 323.5C154.5 323.1 153.7 323.2 153.5 323.7L150.9 328.2C150.6 328.7 150.9 329.3 151.5 329.7L155.1 331.8C155.7 332.2 156.5 332.1 156.7 331.6L159.3 327.2C159.6 326.7 159.3 326.1 158.7 325.7L155.1 323.5Z" fill="#14A3B4"/>
<path d="M115.7 312.6C116.4 312.6 117 313 117 313.6V318.8C117 319.3 116.4 319.8 115.7 319.8H111.5C110.8 319.8 110.2 319.4 110.2 318.8V313.7C110.2 313.2 110.8 312.7 111.5 312.7L115.7 312.6Z" fill="#14A3B4"/>
<path d="M156.1 313C155.4 313 154.8 313.4 154.8 314V319.2C154.8 319.7 155.4 320.2 156.1 320.2H160.3C161 320.2 161.6 319.8 161.6 319.2V314.1C161.6 313.6 161 313.1 160.3 313.1L156.1 313Z" fill="#14A3B4"/>
<path d="M116.5 323.2C117.1 322.8 117.8 322.9 118.1 323.4L120.6 327.9C120.9 328.4 120.6 329 119.9 329.4L116.3 331.4C115.7 331.8 114.9 331.7 114.7 331.2L112.2 326.7C111.9 326.2 112.2 325.6 112.9 325.2L116.5 323.2Z" fill="#14A3B4"/>
<path d="M151.7 303.3C151.1 303.7 150.8 304.3 151 304.8L153.6 309.3C153.9 309.8 154.6 309.9 155.2 309.5L158.8 307.5C159.4 307.1 159.7 306.5 159.5 306L157 301.5C156.7 301 156 300.9 155.4 301.3L151.7 303.3Z" fill="#14A3B4"/>
<path d="M122.5 332C122.9 331.4 123.5 331.1 124 331.4L128.5 334C129 334.3 129 335 128.7 335.6L126.6 339.2C126.2 339.8 125.6 340.1 125.1 339.8L120.7 337.2C120.2 336.9 120.2 336.2 120.5 335.6L122.5 332Z" fill="#14A3B4"/>
<path d="M143.1 297.1C142.8 297.7 142.8 298.4 143.3 298.7L147.8 301.3C148.3 301.6 148.9 301.3 149.3 300.7L151.4 297.1C151.8 296.5 151.7 295.7 151.2 295.5L146.8 292.9C146.3 292.6 145.7 292.9 145.3 293.5L143.1 297.1Z" fill="#14A3B4"/>
<path d="M136 294.6C124 294.5 114.2 304.2 114.1 316.2C114 328.2 123.6 338 135.7 338.1C147.7 338.2 157.5 328.5 157.6 316.5C157.7 304.5 148 294.7 136 294.6ZM135.8 330.7C127.9 330.6 121.5 324.2 121.6 316.3C121.7 308.4 128.1 302.1 136 302.1C143.9 302.2 150.3 308.6 150.2 316.5C150.1 324.4 143.7 330.7 135.8 330.7Z" fill="#14A3B4"/>
<path d="M237 29.3C237 30.2 236.5 30.9 235.8 30.9H229.6C228.9 30.9 228.4 30.2 228.4 29.3V24.3C228.4 23.4 228.9 22.7 229.6 22.7H235.8C236.5 22.7 237 23.4 237 24.3V29.3Z" fill="#14A3B4"/>
<path d="M236.6 78.2C236.6 77.3 236.1 76.6 235.4 76.6H229.2C228.6 76.6 228 77.3 228 78.2V83.2C228 84.1 228.5 84.8 229.2 84.8H235.5C236.2 84.8 236.7 84.1 236.7 83.2L236.6 78.2Z" fill="#14A3B4"/>
<path d="M224.2 30.3C224.7 31.1 224.6 31.9 224 32.3L218.6 35.4C218.1 35.7 217.2 35.4 216.8 34.6L214.3 30.2C213.9 29.4 214 28.6 214.5 28.2L219.9 25.1C220.5 24.8 221.3 25.1 221.7 25.9L224.2 30.3Z" fill="#14A3B4"/>
<path d="M248.3 72.9C247.9 72.1 247.1 71.8 246.5 72.1L241.1 75.2C240.5 75.5 240.4 76.4 240.9 77.2L243.4 81.6C243.8 82.4 244.7 82.7 245.2 82.4L250.6 79.3C251.2 79 251.3 78.1 250.8 77.3L248.3 72.9Z" fill="#14A3B4"/>
<path d="M213.6 37.6C214.4 38 214.7 38.9 214.4 39.4L211.3 44.8C211 45.4 210.1 45.5 209.3 45L205 42.5C204.2 42.1 203.9 41.2 204.2 40.7L207.4 35.3C207.7 34.7 208.6 34.6 209.4 35.1L213.6 37.6Z" fill="#14A3B4"/>
<path d="M255.8 62.4C255 62 254.2 62 253.8 62.6L250.6 68C250.2 68.6 250.6 69.4 251.4 69.8L255.7 72.3C256.5 72.8 257.4 72.7 257.7 72.1L260.9 66.7C261.2 66.1 260.9 65.3 260.1 64.9L255.8 62.4Z" fill="#14A3B4"/>
<path d="M208.1 49.2C209 49.2 209.7 49.7 209.7 50.4V56.6C209.7 57.2 209 57.8 208.1 57.8H203.1C202.2 57.8 201.5 57.3 201.5 56.6V50.4C201.5 49.7 202.2 49.2 203.1 49.2H208.1Z" fill="#14A3B4"/>
<path d="M257.1 49.6C256.2 49.6 255.5 50.1 255.5 50.8L255.4 57C255.4 57.6 256.1 58.2 257 58.2H262C262.9 58.2 263.6 57.7 263.6 57V50.8C263.6 50.1 262.9 49.6 262 49.6H257.1Z" fill="#14A3B4"/>
<path d="M209.1 62.1C209.8 61.7 210.7 61.8 211 62.3L214.1 67.7C214.4 68.3 214.1 69.1 213.3 69.5L209 72C208.2 72.4 207.3 72.3 207 71.8L203.9 66.4C203.6 65.8 203.9 65 204.7 64.6L209.1 62.1Z" fill="#14A3B4"/>
<path d="M251.7 37.9C250.9 38.3 250.6 39.1 250.9 39.7L254 45.1C254.3 45.7 255.2 45.8 256 45.3L260.4 42.8C261.2 42.4 261.5 41.6 261.2 41L258.1 35.6C257.8 35 256.9 34.9 256.1 35.4L251.7 37.9Z" fill="#14A3B4"/>
<path d="M216.4 72.6C216.9 71.8 217.7 71.5 218.2 71.8L223.6 75C224.2 75.4 224.3 76.2 223.8 77L221.3 81.3C220.8 82.1 220 82.4 219.5 82.1L214.1 78.9C213.5 78.6 213.4 77.7 213.9 76.9L216.4 72.6Z" fill="#14A3B4"/>
<path d="M241.2 30.5C240.8 31.3 240.8 32.1 241.4 32.5L246.8 35.7C247.4 36 248.2 35.7 248.6 34.9L251.1 30.6C251.5 29.8 251.5 28.9 250.9 28.6L245.5 25.4C244.9 25.1 244.1 25.4 243.7 26.2L241.2 30.5Z" fill="#14A3B4"/>
<path d="M232.7 27.4C218.2 27.3 206.3 39 206.2 53.5C206.1 68 217.8 79.9 232.3 80C246.8 80.1 258.7 68.4 258.8 53.9C259 39.4 247.3 27.5 232.7 27.4ZM232.4 71C222.8 70.9 215.1 63.1 215.2 53.6C215.3 44 223.1 36.4 232.6 36.4C242.2 36.5 249.9 44.3 249.8 53.9C249.8 63.4 242 71.1 232.4 71Z" fill="#14A3B4"/>
<path d="M254.2 434.5C252.7 434.5 251.6 433.2 251.6 431.5V391.5C251.6 383.3 245.7 376.7 238.5 376.7H188C177.9 376.7 169.6 370.1 169.6 361.9C169.6 353.7 177.8 347.1 188 347.1H321.6C329.3 347.1 334.7 342.8 334.7 338.9C334.7 335 329.3 330.7 321.6 330.7H247.7C237.6 330.7 229.3 323.2 229.3 314C229.3 304.8 237.6 297.3 247.7 297.3H316.8C323.9 297.3 329.9 292.2 329.9 286.2C329.9 280.2 323.9 275.1 316.8 275.1H186.1C176 275.1 167.7 266.5 167.7 255.9V239.6C167.7 238 168.9 236.6 170.3 236.6C171.7 236.6 172.9 237.9 172.9 239.6V255.9C172.9 263.2 178.8 269.2 186 269.2H316.7C326.8 269.2 335.1 276.8 335.1 286.2C335.1 295.6 326.9 303.2 316.7 303.2H247.6C240.5 303.2 234.5 308.1 234.5 313.9C234.5 319.7 240.5 324.7 247.6 324.7H321.5C331.8 324.7 339.9 330.9 339.9 338.8C339.9 346.7 331.8 352.9 321.5 352.9H188C180.9 352.9 174.9 357 174.9 361.8C174.9 366.6 180.9 370.7 188 370.7H238.5C248.6 370.7 256.9 380 256.9 391.4V431.4C256.9 433.2 255.7 434.5 254.2 434.5Z" fill="#14A3B4"/>
<path d="M237.2 315.7C235.6 315.7 234 315.5 232.6 315.1C231.2 315.5 229.6 315.7 228 315.7H74.6C66.9 315.7 60.7 309.5 60.7 301.8V65.5C60.7 57.8 66.9 51.6 74.6 51.6H218.7C223.9 51.6 228.7 53.3 232.6 56.2C236.5 53.3 241.3 51.6 246.5 51.6H390.5C398.2 51.6 404.4 57.8 404.4 65.5V301.8C404.4 309.5 398.2 315.7 390.5 315.7H237.2Z" fill="#768296"/>
<path d="M390.5 60.8H265.7H249.1H246.4C238.8 60.8 232.5 67.1 232.5 74.7C232.5 67 226.2 60.8 218.6 60.8H215.9H199.3H74.6C72.1 60.8 70 62.9 70 65.4V301.7C70 304.2 72.1 306.3 74.6 306.3H83.9H86.6H103.2H199.3H215.9H218.6H227.9C230.4 306.3 232.5 305.2 232.5 303.8C232.5 305.2 234.6 306.3 237.1 306.3H246.4H249.1H265.7H361.9H378.5H381.2H390.5C393 306.3 395.1 304.2 395.1 301.7V65.5C395.1 62.9 393 60.8 390.5 60.8Z" fill="url(#paint0_linear)"/>
<path d="M232.5 175.7V74.7C232.5 67 226.2 60.8 218.6 60.8H215.9H199.3H74.6C72.1 60.8 70 62.9 70 65.4V301.7C70 304.2 72.1 306.3 74.6 306.3H83.9H86.6H103.2H199.3H215.9H218.6H227.9C230.4 306.3 232.5 305.2 232.5 303.8V175.7Z" fill="white"/>
<path d="M232.5 175.7V74.7C232.5 67 238.8 60.8 246.4 60.8H249.1H265.7H390.4C392.9 60.8 395 62.9 395 65.4V301.7C395 304.2 392.9 306.3 390.4 306.3H381.1H378.4H361.8H265.6H249H246.3H237C234.5 306.3 232.4 305.2 232.4 303.8V175.7C232.5 175.7 232.5 175.7 232.5 175.7Z" fill="white"/>
<path d="M214.8 76.7H83.5V100.8H214.8V76.7Z" fill="#FFA229"/>
<path d="M214.8 109.1H83.5V117.6H214.8V109.1Z" fill="#AEBFCE"/>
<path d="M214.8 141.6H83.5V150.1H214.8V141.6Z" fill="#AEBFCE"/>
<path d="M214.8 157.8H83.5V166.3H214.8V157.8Z" fill="#AEBFCE"/>
<path d="M214.8 174H83.5V182.5H214.8V174Z" fill="#AEBFCE"/>
<path d="M214.8 201.8H83.5V210.3H214.8V201.8Z" fill="#AEBFCE"/>
<path d="M214.8 218H83.5V226.5H214.8V218Z" fill="#AEBFCE"/>
<path d="M214.8 250.5H83.5V259H214.8V250.5Z" fill="#AEBFCE"/>
<path d="M214.8 266.7H83.5V275.2H214.8V266.7Z" fill="#AEBFCE"/>
<path d="M381.6 76.7H250.3V85.2H381.6V76.7Z" fill="#AEBFCE"/>
<path d="M381.6 92.9H250.3V101.4H381.6V92.9Z" fill="#AEBFCE"/>
<path d="M381.6 120.7H250.3V129.2H381.6V120.7Z" fill="#AEBFCE"/>
<path d="M381.6 136.9H250.3V145.4H381.6V136.9Z" fill="#AEBFCE"/>
<path d="M381.6 153.1H250.3V161.6H381.6V153.1Z" fill="#AEBFCE"/>
<path d="M381.6 201.8H250.3V210.3H381.6V201.8Z" fill="#AEBFCE"/>
<path d="M381.6 218H250.3V226.5H381.6V218Z" fill="#AEBFCE"/>
<path d="M381.6 234.3H250.3V242.8H381.6V234.3Z" fill="#AEBFCE"/>
<path d="M381.6 266.7H250.3V275.2H381.6V266.7Z" fill="#AEBFCE"/>
<path d="M289.4 51.6H272.6V238.5L289.4 229L306.3 238.5V51.6H289.4Z" fill="#77D0DE"/>
<path d="M290.3 469.7C290.3 489.7 274.1 505.8 254.2 505.8C234.2 505.8 218.1 489.6 218.1 469.7V425.6C218.1 405.6 234.3 389.5 254.2 389.5C274.1 389.5 290.3 405.7 290.3 425.6V469.7Z" fill="#768296"/>
<path d="M218.1 425.7V434.6H254.2V389.6C234.2 389.5 218.1 405.7 218.1 425.7Z" fill="#AEBFCE"/>
<path d="M290.3 425.7C290.3 405.7 274.1 389.6 254.2 389.6V434.6H290.3V425.7Z" fill="url(#paint1_linear)"/>
<path d="M290.3 425.7C290.3 405.7 274.1 389.6 254.2 389.6V434.6H290.3V425.7Z" fill="#AEBFCE"/>
<path d="M259.4 437.7C259.4 440.6 257.1 442.9 254.2 442.9C251.3 442.9 249 440.6 249 437.7V431.4C249 428.5 251.3 426.2 254.2 426.2C257.1 426.2 259.4 428.5 259.4 431.4V437.7Z" fill="#14A3B4"/>
<path d="M474.4 45.3C474.4 45.3 468.4 38 454.4 43C443.5 46.9 393.1 92.3 398.5 111.9C398.5 111.9 402.5 112.6 408.2 100.5C413.9 88.4 417.4 81.5 429.3 69.7C441.1 57.9 457.4 46.3 462.8 51.6L474.4 45.3Z" fill="#FFA229"/>
<path d="M435.7 141.1C405.5 182.1 367.4 217 357.6 209.8C347.8 202.6 370 155.9 400.3 114.9C430.6 73.9 472.4 33.9 482.2 41.1C491.9 48.4 465.9 100.1 435.7 141.1Z" fill="#14A3B4"/>
<path d="M381.4 177.5C376.6 174 371.4 171.6 366.1 170.4C356.4 190.3 352.3 205.9 357.6 209.8C362.9 213.7 376.6 205.2 392.8 190C390 185.4 386.2 181.1 381.4 177.5Z" fill="#FFA229"/>
<path d="M433.6 147.4C430.9 151.1 428 153.7 423.8 150.6L394.6 129C390.4 125.9 392 122.4 394.8 118.7C397.6 115 400.4 112.4 404.6 115.5L433.8 137.1C438 140.2 436.3 143.7 433.6 147.4Z" fill="url(#paint2_linear)"/>
<path d="M360.6 205.7C358.9 204.5 357 203.6 355.2 203.2C351.8 210.3 350.3 215.8 352.2 217.2C354.1 218.6 358.9 215.6 364.6 210.2C363.6 208.5 362.3 206.9 360.6 205.7Z" fill="url(#paint3_linear)"/>
<path d="M433.6 147.4C430.9 151.1 428 153.7 423.8 150.6L394.6 129C390.4 125.9 392 122.4 394.8 118.7C397.6 115 400.4 112.4 404.6 115.5L433.8 137.1C438 140.2 436.3 143.7 433.6 147.4Z" fill="#FFA229"/>
<path d="M16.6 145.7C16.6 145.7 21.4 139.8 32.5 143.9C41.2 147 81.3 183.2 77.1 198.8C77.1 198.8 73.9 199.4 69.4 189.7C64.9 180 62 174.5 52.6 165.1C43.2 155.7 30.2 146.4 25.9 150.6L16.6 145.7Z" fill="#FFA229"/>
<path d="M47.5 222.1C71.6 254.8 102 282.6 109.8 276.9C117.6 271.1 99.9 233.9 75.8 201.3C51.7 168.6 18.3 136.8 10.5 142.5C2.70001 148.2 23.3 189.4 47.5 222.1Z" fill="#14A3B4"/>
<path d="M90.7 251.1C94.5 248.3 98.7 246.4 102.9 245.4C110.7 261.3 113.9 273.7 109.7 276.8C105.5 279.9 94.6 273.1 81.7 261.1C83.9 257.4 86.9 254 90.7 251.1Z" fill="#FFA229"/>
<path d="M49.1 227.1C51.3 230.1 53.6 232.1 56.9 229.6L80.2 212.4C83.5 209.9 82.2 207.2 80.1 204.2C77.9 201.2 75.6 199.2 72.3 201.7L49 219C45.6 221.4 46.9 224.2 49.1 227.1Z" fill="url(#paint4_linear)"/>
<path d="M107.3 273.6C108.6 272.6 110.1 271.9 111.6 271.6C114.3 277.2 115.5 281.6 114 282.7C112.5 283.8 108.7 281.4 104.1 277.1C104.9 275.8 105.9 274.6 107.3 273.6Z" fill="#14A3B4"/>
<path d="M49.1 227.1C51.3 230.1 53.6 232.1 56.9 229.6L80.2 212.4C83.5 209.9 82.2 207.2 80.1 204.2C77.9 201.2 75.6 199.2 72.3 201.7L49 219C45.6 221.4 46.9 224.2 49.1 227.1Z" fill="#FFA229"/>
<defs>
<linearGradient id="paint0_linear" x1="232.537" y1="282.329" x2="232.537" y2="36.7141" gradientUnits="userSpaceOnUse">
<stop stop-color="#CDEFFA"/>
<stop offset="1" stop-color="#FAFAFA"/>
</linearGradient>
<linearGradient id="paint1_linear" x1="272.273" y1="434.545" x2="272.273" y2="389.514" gradientUnits="userSpaceOnUse">
<stop stop-color="#CDEFFA"/>
<stop offset="1" stop-color="#FAFAFA"/>
</linearGradient>
<linearGradient id="paint2_linear" x1="394.763" y1="118.759" x2="433.595" y2="147.43" gradientUnits="userSpaceOnUse">
<stop stop-color="#BDBDBD"/>
<stop offset="0.1172" stop-color="#ABABAB"/>
<stop offset="0.3225" stop-color="#919191"/>
<stop offset="0.5346" stop-color="#7F7F7F"/>
<stop offset="0.7556" stop-color="#747474"/>
<stop offset="1" stop-color="#707070"/>
</linearGradient>
<linearGradient id="paint3_linear" x1="351.656" y1="207.908" x2="361.094" y2="214.876" gradientUnits="userSpaceOnUse">
<stop stop-color="#086AD8"/>
<stop offset="0.010029" stop-color="#276790"/>
<stop offset="0.2403" stop-color="#1C5176"/>
<stop offset="0.4781" stop-color="#086AD8"/>
<stop offset="0.726" stop-color="#103959"/>
<stop offset="1" stop-color="#086AD8"/>
</linearGradient>
<linearGradient id="paint4_linear" x1="80.057" y1="204.299" x2="49.1102" y2="227.149" gradientUnits="userSpaceOnUse">
<stop stop-color="#BDBDBD"/>
<stop offset="0.1172" stop-color="#ABABAB"/>
<stop offset="0.3225" stop-color="#919191"/>
<stop offset="0.5346" stop-color="#7F7F7F"/>
<stop offset="0.7556" stop-color="#747474"/>
<stop offset="1" stop-color="#707070"/>
</linearGradient>
</defs>
</svg>
