<svg height="512pt" viewBox="-16 0 512 512.002" width="512pt" xmlns="http://www.w3.org/2000/svg"><path d="m104 232.019531c-4.421875 0-8-3.578125-8-8v-216.015625c0-4.425781 3.578125-7.99999975 8-7.99999975 4.425781 0 8 3.57421875 8 7.99999975v216.015625c0 4.421875-3.574219 8-8 8zm0 0"/><path d="m376 232.019531c-4.421875 0-8-3.578125-8-8v-176.027343c0-4.421876 3.578125-8 8-8 4.425781 0 8 3.578124 8 8v176.027343c0 4.421875-3.574219 8-8 8zm0 0"/><path d="m336.007812 16.003906h-232.007812c-4.421875 0-8-3.578125-8-8 0-4.425781 3.578125-7.99999975 8-7.99999975h232.007812c4.425782 0 8 3.57421875 8 7.99999975 0 4.421875-3.574218 8-8 8zm0 0"/><path d="m376 55.992188c-2.046875 0-4.09375-.78125-5.65625-2.34375l-39.992188-39.992188c-3.125-3.125-3.125-8.183594 0-11.308594 3.128907-3.128906 8.183594-3.128906 11.3125 0l39.992188 39.992188c3.128906 3.125 3.128906 8.183594 0 11.308594-1.558594 1.5625-3.605469 2.34375-5.65625 2.34375zm0 0"/><path d="m376 55.992188h-39.992188c-4.421874 0-8-3.574219-8-8 0-4.421876 3.578126-8 8-8h39.992188c4.425781 0 8 3.578124 8 8 0 4.425781-3.574219 8-8 8zm0 0"/><path d="m336.007812 55.992188c-4.421874 0-8-3.574219-8-8v-39.988282c0-4.425781 3.578126-7.99999975 8-7.99999975 4.425782 0 8 3.57421875 8 7.99999975v39.988282c0 4.425781-3.574218 8-8 8zm0 0"/><path d="m12.464844 260.96875c-2.015625 0-4.023438-.75-5.574219-2.261719-3.167969-3.089843-3.234375-8.152343-.160156-11.3125l51.535156-52.953125c3.085937-3.160156 8.152344-3.238281 11.3125-.160156 3.160156 3.082031 3.230469 8.152344.160156 11.3125l-51.539062 52.953125c-1.574219 1.613281-3.652344 2.421875-5.734375 2.421875zm0 0"/><path d="m104 208.019531h-40c-4.421875 0-8-3.578125-8-8 0-4.425781 3.578125-8 8-8h40c4.425781 0 8 3.574219 8 8 0 4.421875-3.574219 8-8 8zm0 0"/><path d="m467.535156 260.96875c-2.085937 0-4.167968-.816406-5.734375-2.421875l-51.535156-52.953125c-3.082031-3.167969-3.007813-8.222656.160156-11.3125 3.167969-3.085938 8.222657-3 11.3125.160156l51.535157 52.953125c3.078124 3.167969 3.007812 8.222657-.160157 11.3125-1.550781 1.511719-3.566406 2.261719-5.578125 2.261719zm0 0"/><path d="m416 208.019531h-40c-4.421875 0-8-3.578125-8-8 0-4.425781 3.578125-8 8-8h40c4.425781 0 8 3.574219 8 8 0 4.421875-3.574219 8-8 8zm0 0"/><path d="m392 232.019531h-304c-4.421875 0-8-3.578125-8-8 0-4.425781 3.578125-8 8-8h304c4.425781 0 8 3.574219 8 8 0 4.421875-3.574219 8-8 8zm0 0"/><path d="m416 408.019531h-352c-4.421875 0-8-3.578125-8-8 0-4.425781 3.578125-8 8-8h352c4.425781 0 8 3.574219 8 8 0 4.421875-3.574219 8-8 8zm0 0"/><path d="m456 432.019531c-4.421875 0-8-3.578125-8-8 0-4.425781 3.578125-8 8-8 4.417969 0 8-3.585937 8-8v-144c0-4.417969-3.582031-8-8-8h-432c-4.414062 0-8 3.582031-8 8v144c0 4.414063 3.585938 8 8 8 4.425781 0 8 3.574219 8 8 0 4.421875-3.574219 8-8 8-13.230469 0-24-10.769531-24-24v-144c0-13.234375 10.769531-24 24-24h432c13.234375 0 24 10.765625 24 24v144c0 13.230469-10.765625 24-24 24zm0 0"/><path d="m64 432.019531c-4.421875 0-8-3.578125-8-8v-24c0-4.425781 3.578125-8 8-8 4.425781 0 8 3.574219 8 8v24c0 4.421875-3.574219 8-8 8zm0 0"/><path d="m416 432.019531c-4.421875 0-8-3.578125-8-8v-24c0-4.425781 3.578125-8 8-8 4.425781 0 8 3.574219 8 8v24c0 4.421875-3.574219 8-8 8zm0 0"/><path d="m96 512.003906c-4.421875 0-8-3.578125-8-8v-104c0-4.425781 3.578125-8 8-8 4.425781 0 8 3.574219 8 8v104c0 4.421875-3.574219 8-8 8zm0 0"/><path d="m128 512.003906c-4.421875 0-8-3.578125-8-8v-104c0-4.425781 3.578125-8 8-8 4.425781 0 8 3.574219 8 8v104c0 4.421875-3.574219 8-8 8zm0 0"/><path d="m160 512.003906c-4.421875 0-8-3.578125-8-8v-104c0-4.425781 3.578125-8 8-8 4.425781 0 8 3.574219 8 8v104c0 4.421875-3.574219 8-8 8zm0 0"/><path d="m192 512.003906c-4.421875 0-8-3.578125-8-8v-104c0-4.425781 3.578125-8 8-8 4.425781 0 8 3.574219 8 8v104c0 4.421875-3.574219 8-8 8zm0 0"/><path d="m224 512.003906c-4.421875 0-8-3.578125-8-8v-104c0-4.425781 3.578125-8 8-8 4.425781 0 8 3.574219 8 8v104c0 4.421875-3.574219 8-8 8zm0 0"/><path d="m256 512.003906c-4.421875 0-8-3.578125-8-8v-104c0-4.425781 3.578125-8 8-8 4.425781 0 8 3.574219 8 8v104c0 4.421875-3.574219 8-8 8zm0 0"/><path d="m288 512.003906c-4.421875 0-8-3.578125-8-8v-104c0-4.425781 3.578125-8 8-8 4.425781 0 8 3.574219 8 8v104c0 4.421875-3.574219 8-8 8zm0 0"/><path d="m320 512.003906c-4.421875 0-8-3.578125-8-8v-104c0-4.425781 3.578125-8 8-8 4.425781 0 8 3.574219 8 8v104c0 4.421875-3.574219 8-8 8zm0 0"/><path d="m352 512.003906c-4.421875 0-8-3.578125-8-8v-104c0-4.425781 3.578125-8 8-8 4.425781 0 8 3.574219 8 8v104c0 4.421875-3.574219 8-8 8zm0 0"/><path d="m384 512.003906c-4.421875 0-8-3.578125-8-8v-104c0-4.425781 3.578125-8 8-8 4.425781 0 8 3.574219 8 8v104c0 4.421875-3.574219 8-8 8zm0 0"/><path d="m64.242188 312.019531c-4.425782 0-8.042969-3.578125-8.042969-8 0-4.425781 3.539062-8 7.953125-8h.089844c4.414062 0 8 3.574219 8 8 0 4.421875-3.585938 8-8 8zm0 0"/><path d="m96.242188 312.019531c-4.425782 0-8.042969-3.578125-8.042969-8 0-4.425781 3.539062-8 7.953125-8h.089844c4.414062 0 8 3.574219 8 8 0 4.421875-3.585938 8-8 8zm0 0"/><path d="m416.242188 312.019531c-4.425782 0-8.042969-3.578125-8.042969-8 0-4.425781 3.539062-8 7.953125-8h.089844c4.414062 0 8 3.574219 8 8 0 4.421875-3.585938 8-8 8zm0 0"/><path d="m384.242188 312.019531c-4.425782 0-8.042969-3.578125-8.042969-8 0-4.425781 3.539062-8 7.953125-8h.089844c4.414062 0 8 3.574219 8 8 0 4.421875-3.585938 8-8 8zm0 0"/><path d="m304 328.019531h-128c-4.421875 0-8-3.578125-8-8v-32c0-4.425781 3.578125-8 8-8h128c4.425781 0 8 3.574219 8 8v32c0 4.421875-3.574219 8-8 8zm-120-16h112v-16h-112zm0 0"/><path d="m384 512.003906h-288c-4.421875 0-8-3.578125-8-8 0-4.425781 3.578125-8 8-8h288c4.425781 0 8 3.574219 8 8 0 4.421875-3.574219 8-8 8zm0 0"/><path d="m96 432.019531h-72c-4.421875 0-8-3.578125-8-8 0-4.425781 3.578125-8 8-8h72c4.425781 0 8 3.574219 8 8 0 4.421875-3.574219 8-8 8zm0 0"/><path d="m456 432.019531h-71.871094c-4.425781 0-8-3.578125-8-8 0-4.425781 3.574219-8 8-8h71.871094c4.425781 0 8 3.574219 8 8 0 4.421875-3.574219 8-8 8zm0 0"/><path d="m240 200.121094c-39.703125 0-72-32.296875-72-72s32.296875-72 72-72 72 32.296875 72 72-32.296875 72-72 72zm0-128c-30.871094 0-56 25.128906-56 56s25.128906 56 56 56 56-25.128906 56-56-25.128906-56-56-56zm0 0"/><path d="m240 142.738281c-4.421875 0-8-3.578125-8-8v-38.625c0-4.421875 3.578125-8 8-8 4.425781 0 8 3.578125 8 8v38.625c0 4.421875-3.574219 8-8 8zm0 0"/><path d="m240.242188 168.121094c-4.425782 0-8.042969-3.574219-8.042969-8 0-4.421875 3.539062-8 7.953125-8h.089844c4.414062 0 8 3.578125 8 8 0 4.425781-3.585938 8-8 8zm0 0"/></svg>