<svg width="94" height="94" viewBox="0 0 94 94" fill="none" xmlns="http://www.w3.org/2000/svg">
<path d="M46.992 93.984C72.945 93.984 93.984 72.945 93.984 46.992C93.984 21.039 72.945 0 46.992 0C21.039 0 0 21.039 0 46.992C0 72.945 21.039 93.984 46.992 93.984Z" fill="#14A3B4"/>
<path d="M76.068 14.832H17.035C16.4534 14.8213 15.8757 14.9279 15.3363 15.1456C14.7969 15.3632 14.3069 15.6873 13.8956 16.0986C13.4843 16.5099 13.1602 16.9999 12.9425 17.5393C12.7249 18.0787 12.6183 18.6564 12.629 19.238V88.111C12.6183 88.6926 12.7249 89.2703 12.9425 89.8097C13.1602 90.3491 13.4843 90.8391 13.8956 91.2504C14.3069 91.6617 14.7969 91.9858 15.3363 92.2035C15.8757 92.4211 16.4534 92.5277 17.035 92.517H75.922C76.5035 92.5277 77.0813 92.4211 77.6207 92.2035C78.1601 91.9858 78.6501 91.6617 79.0614 91.2504C79.4726 90.8391 79.7968 90.3491 80.0144 89.8097C80.232 89.2703 80.3387 88.6926 80.328 88.111V19.238C80.3421 18.6678 80.2426 18.1005 80.0353 17.5692C79.828 17.0378 79.5171 16.553 79.1206 16.1429C78.7242 15.7329 78.2501 15.4058 77.726 15.1807C77.2019 14.9557 76.6383 14.8371 76.068 14.832Z" fill="#08B3D8"/>
<path d="M76.068 93.837H17.034C15.4775 93.8325 13.986 93.2122 12.8854 92.1116C11.7848 91.011 11.1645 89.5195 11.16 87.963V19.237C11.1645 17.6805 11.7848 16.189 12.8854 15.0884C13.986 13.9878 15.4775 13.3675 17.034 13.363H75.921C77.4775 13.3675 78.9689 13.9878 80.0696 15.0884C81.1702 16.189 81.7905 17.6805 81.795 19.237V88.109C81.8064 88.8643 81.6661 89.6142 81.3824 90.3143C81.0987 91.0143 80.6773 91.6503 80.1432 92.1845C79.6091 92.7187 78.9732 93.1402 78.2732 93.4241C77.5732 93.7079 76.8233 93.8483 76.068 93.837ZM17.034 16.3C16.2556 16.3021 15.5097 16.6122 14.9592 17.1625C14.4087 17.7128 14.0983 18.4586 14.096 19.237V88.11C14.0983 88.8882 14.4085 89.6339 14.9588 90.1842C15.5091 90.7344 16.2548 91.0446 17.033 91.047H75.92C76.6982 91.0446 77.4438 90.7344 77.9941 90.1842C78.5444 89.6339 78.8546 88.8882 78.857 88.11V19.237C78.8546 18.4588 78.5444 17.7131 77.9941 17.1629C77.4438 16.6126 76.6982 16.3024 75.92 16.3H17.034Z" fill="#183651"/>
<path d="M74.453 20.705H18.503V86.64H74.453V20.705Z" fill="white"/>
<path d="M61.089 8.22299H53.159C53.159 6.47044 52.4628 4.78967 51.2235 3.55043C49.9843 2.31119 48.3035 1.61499 46.551 1.61499C44.7984 1.61499 43.1176 2.31119 41.8784 3.55043C40.6392 4.78967 39.943 6.47044 39.943 8.22299H32.013C31.1442 8.21942 30.2833 8.3879 29.48 8.71872C28.6766 9.04954 27.9468 9.53614 27.3324 10.1505C26.7181 10.7648 26.2315 11.4947 25.9007 12.298C25.5699 13.1013 25.4014 13.9622 25.405 14.831C25.4014 15.6998 25.5699 16.5607 25.9007 17.364C26.2315 18.1673 26.7181 18.8972 27.3324 19.5115C27.9468 20.1258 28.6766 20.6124 29.48 20.9433C30.2833 21.2741 31.1442 21.4426 32.013 21.439H60.942C61.8107 21.4426 62.6716 21.2741 63.475 20.9433C64.2783 20.6124 65.0082 20.1258 65.6225 19.5115C66.2368 18.8972 66.7234 18.1673 67.0542 17.364C67.385 16.5607 67.5535 15.6998 67.55 14.831C67.57 13.9701 67.4176 13.1139 67.1018 12.3128C66.7861 11.5117 66.3133 10.7818 65.7113 10.1661C65.1093 9.55044 64.3902 9.06135 63.5964 8.72765C62.8026 8.39394 61.9501 8.22236 61.089 8.22299Z" fill="white"/>
<path d="M61.09 22.909H32.014C29.8875 22.8853 27.8562 22.024 26.3609 20.5119C24.8655 18.9999 24.0269 16.9591 24.0269 14.8325C24.0269 12.7059 24.8655 10.6651 26.3609 9.15306C27.8562 7.641 29.8875 6.77966 32.014 6.756H38.622C38.9619 4.90073 39.9416 3.22337 41.3905 2.0158C42.8394 0.808236 44.6658 0.146912 46.552 0.146912C48.4381 0.146912 50.2646 0.808236 51.7135 2.0158C53.1624 3.22337 54.1421 4.90073 54.482 6.756H61.09C63.2164 6.77966 65.2478 7.641 66.7431 9.15306C68.2384 10.6651 69.0771 12.7059 69.0771 14.8325C69.0771 16.9591 68.2384 18.9999 66.7431 20.5119C65.2478 22.024 63.2164 22.8853 61.09 22.909ZM32.014 9.692C31.333 9.6825 30.657 9.80842 30.0251 10.0624C29.3932 10.3165 28.8181 10.6935 28.3332 11.1717C27.8483 11.6499 27.4632 12.2197 27.2004 12.848C26.9376 13.4762 26.8023 14.1505 26.8023 14.8315C26.8023 15.5125 26.9376 16.1868 27.2004 16.815C27.4632 17.4433 27.8483 18.0131 28.3332 18.4913C28.8181 18.9695 29.3932 19.3465 30.0251 19.6006C30.657 19.8546 31.333 19.9805 32.014 19.971H60.943C61.6239 19.9805 62.3 19.8546 62.9319 19.6006C63.5638 19.3465 64.1389 18.9695 64.6238 18.4913C65.1087 18.0131 65.4937 17.4433 65.7565 16.815C66.0193 16.1868 66.1547 15.5125 66.1547 14.8315C66.1547 14.1505 66.0193 13.4762 65.7565 12.848C65.4937 12.2197 65.1087 11.6499 64.6238 11.1717C64.1389 10.6935 63.5638 10.3165 62.9319 10.0624C62.3 9.80842 61.6239 9.6825 60.943 9.692H53.013C52.817 9.70411 52.6206 9.67446 52.4369 9.60499C52.2532 9.53553 52.0863 9.42785 51.9474 9.28907C51.8084 9.15029 51.7005 8.98358 51.6308 8.79997C51.5611 8.61636 51.5311 8.42004 51.543 8.224C51.5525 7.54304 51.4266 6.86698 51.1725 6.2351C50.9185 5.60322 50.5415 5.02812 50.0633 4.54322C49.5851 4.05831 49.0153 3.67327 48.387 3.41046C47.7587 3.14765 47.0845 3.01231 46.4035 3.01231C45.7225 3.01231 45.0482 3.14765 44.4199 3.41046C43.7917 3.67327 43.2219 4.05831 42.7437 4.54322C42.2655 5.02812 41.8885 5.60322 41.6344 6.2351C41.3804 6.86698 41.2545 7.54304 41.264 8.224C41.276 8.42003 41.2462 8.61637 41.1766 8.80003C41.107 8.98369 40.9992 9.15047 40.8603 9.28934C40.7214 9.42822 40.5547 9.53601 40.371 9.6056C40.1874 9.67519 39.991 9.70498 39.795 9.693L32.014 9.692Z" fill="#183651"/>
<path d="M46.552 9.546C47.3633 9.546 48.021 8.88831 48.021 8.077C48.021 7.2657 47.3633 6.608 46.552 6.608C45.7407 6.608 45.083 7.2657 45.083 8.077C45.083 8.88831 45.7407 9.546 46.552 9.546Z" fill="#173651"/>
<path d="M59.181 16.3H33.922C33.5392 16.29 33.1754 16.1309 32.9081 15.8566C32.6409 15.5823 32.4913 15.2145 32.4913 14.8315C32.4913 14.4485 32.6409 14.0807 32.9081 13.8064C33.1754 13.5321 33.5392 13.373 33.922 13.363H59.18C59.3761 13.3579 59.5712 13.3921 59.7538 13.4636C59.9365 13.5351 60.103 13.6424 60.2434 13.7793C60.3839 13.9162 60.4956 14.0798 60.5718 14.2605C60.6481 14.4412 60.6873 14.6353 60.6873 14.8315C60.6873 15.0276 60.6481 15.2218 60.5718 15.4025C60.4956 15.5832 60.3839 15.7468 60.2434 15.8837C60.103 16.0206 59.9365 16.1279 59.7538 16.1994C59.5712 16.2709 59.3761 16.3051 59.18 16.3H59.181Z" fill="#E1E6E7"/>
<path d="M31.279 80.767C29.9143 80.767 28.5802 80.3623 27.4455 79.6041C26.3108 78.846 25.4264 77.7683 24.9042 76.5075C24.382 75.2467 24.2453 73.8593 24.5116 72.5209C24.7778 71.1824 25.435 69.9529 26.3999 68.988C27.3649 68.023 28.5944 67.3658 29.9328 67.0996C31.2713 66.8333 32.6587 66.97 33.9195 67.4922C35.1803 68.0145 36.2579 68.8989 37.0161 70.0336C37.7743 71.1683 38.179 72.5023 38.179 73.867C38.1798 74.7733 38.0018 75.6709 37.6553 76.5084C37.3089 77.3459 36.8007 78.1069 36.1598 78.7478C35.5189 79.3887 34.7579 79.8969 33.9204 80.2434C33.0829 80.5898 32.1853 80.7678 31.279 80.767Z" fill="#14A3B4"/>
<path d="M30.105 77.243L26.874 74.012L28.196 72.543L30.105 74.599L34.511 70.34L35.833 71.662L30.105 77.243Z" fill="white"/>
<path d="M31.279 61.824C29.9143 61.824 28.5802 61.4193 27.4455 60.6611C26.3108 59.903 25.4264 58.8253 24.9042 57.5645C24.382 56.3037 24.2453 54.9163 24.5116 53.5779C24.7778 52.2394 25.435 51.0099 26.3999 50.045C27.3649 49.08 28.5944 48.4228 29.9328 48.1566C31.2713 47.8903 32.6587 48.027 33.9195 48.5492C35.1803 49.0715 36.2579 49.9559 37.0161 51.0906C37.7743 52.2253 38.179 53.5593 38.179 54.924C38.1925 55.8338 38.0232 56.7371 37.6812 57.5804C37.3392 58.4236 36.8315 59.1897 36.188 59.8331C35.5446 60.4765 34.7786 60.9842 33.9353 61.3262C33.0921 61.6682 32.1888 61.8375 31.279 61.824Z" fill="#14A3B4"/>
<path d="M30.105 58.299L26.874 55.068L28.196 53.746L30.105 55.655L34.511 51.396L35.833 52.718L30.105 58.299Z" fill="white"/>
<path d="M31.279 42.88C29.9143 42.88 28.5802 42.4753 27.4455 41.7172C26.3108 40.959 25.4264 39.8813 24.9042 38.6205C24.382 37.3597 24.2453 35.9724 24.5116 34.6339C24.7778 33.2954 25.435 32.066 26.3999 31.101C27.3649 30.136 28.5944 29.4788 29.9328 29.2126C31.2713 28.9464 32.6587 29.083 33.9195 29.6052C35.1803 30.1275 36.2579 31.0119 37.0161 32.1466C37.7743 33.2813 38.179 34.6153 38.179 35.98C38.1925 36.8899 38.0232 37.7932 37.6812 38.6364C37.3392 39.4796 36.8315 40.2457 36.188 40.8891C35.5446 41.5325 34.7786 42.0403 33.9353 42.3823C33.0921 42.7242 32.1888 42.8935 31.279 42.88Z" fill="#14A3B4"/>
<path d="M30.105 39.503L26.874 36.125L28.196 34.803L30.105 36.712L34.511 32.453L35.833 33.775L30.105 39.503Z" fill="white"/>
<path d="M50.516 37.3H47.579V40.237H50.516V37.3Z" fill="#183651"/>
<path d="M57.712 37.3H54.775V40.237H57.712V37.3Z" fill="#183651"/>
<path d="M65.054 37.3H62.117V40.237H65.054V37.3Z" fill="#183651"/>
<path d="M66.67 30.251H45.964V33.188H66.67V30.251Z" fill="#183651"/>
<path d="M50.516 56.096H47.579V59.033H50.516V56.096Z" fill="#183651"/>
<path d="M57.712 56.096H54.775V59.033H57.712V56.096Z" fill="#183651"/>
<path d="M65.054 56.096H62.117V59.033H65.054V56.096Z" fill="#183651"/>
<path d="M66.67 49.195H45.964V52.132H66.67V49.195Z" fill="#183651"/>
<path d="M50.516 75.04H47.579V77.977H50.516V75.04Z" fill="#183651"/>
<path d="M57.712 75.04H54.775V77.977H57.712V75.04Z" fill="#183651"/>
<path d="M65.054 75.04H62.117V77.977H65.054V75.04Z" fill="#183651"/>
<path d="M66.67 68.138H45.964V71.075H66.67V68.138Z" fill="#183651"/>
</svg>
