 <svg width="750" height="500" viewBox="0 0 750 500" fill="none" xmlns="http://www.w3.org/2000/svg">
                                    <style>
                                        #star_1 , #star_2  , #star_3  , #star_4  ,#star_5  ,#star_6 ,#star_7 ,#star_8  ,#phone ,
                                        #terce_3 , #terce_2 , #terce_1 , #rotate_1 , #question
                                        {   
                                            transform-origin: center;
                                            transform-box: fill-box;
                                        }
                                        #phone , #rotate_1 , #question{
                                            animation:  dropdown-animate 3s linear infinite;
                                        }
                                        #star_1 ,  #star_3 ,  #star_5 ,  #terce_3  ,  #star_7 {
                                            animation: spinner 4s linear infinite;
                                        }
                                        #star_2 ,  #star_4 ,  #star_6 ,  #star_8 , #terce_2 , #terce_1 {
                                            animation: spinner 4s linear infinite;
                                        }
                                        
                                        @keyframes dropdown-animate {
                                            0% {
                                                transform: rotate(0deg);
                                            }

                                            50% {
                                                transform: rotate(20deg);
                                            }

                                            100% {
                                                transform: rotate(0deg);
                                            }
                                        }

                                        @keyframes spinner {
                                            0% {
                                                transform: rotate(0deg);
                                        
                                            }
                                        
                                            100% {
                                                transform: rotate(360deg);
                                            }
                                        }
                                        @keyframes spinner-reverse {
                                            0% {
                                                transform: rotate(0deg);
                                        
                                            }
                                        
                                            100% {
                                                transform: rotate(-360deg);
                                            }
                                        }
                                    </style>
                                    <g id="2762695 1">
                                    <g id="OBJECTS">
                                    <g id="Group">
                                    <g id="Group_2">
                                    <g id="Group_3">
                                    <g id="Group_4">
                                    <g id="Group_5">
                                    <path id="Vector" d="M263.3 388.1H251.5C251.5 388.1 256.1 388.5 263.3 388.1Z" fill="url(#paint0_linear)"/>
                                    <path id="Vector_2" d="M669.4 83.6C655.6 105.1 650.6 125.9 622.2 132.5C601.6 137.3 580.1 133.4 559 132.9C537.8 132.4 514.5 136.5 501 152.7C484.7 172.2 487.8 202.8 471.5 222.4C443 256.6 377.1 234.5 350.7 270.3C335.5 291 346.7 322.2 334.4 344.7C315.9 378.7 281.5 387 263.3 388.1H669.4V83.6Z" fill="url(#paint1_linear)"/>
                                    </g>
                                    <g id="question" opacity="0.4">
                                    <path id="Vector_3" opacity="0.4" d="M628.9 195.2C630.9 195.5 632.8 196 634.6 196.8C636.4 197.6 638 198.6 639.3 199.9C640.6 201.2 641.6 202.7 642.3 204.4C643 206.1 643.2 208 642.9 210C642.7 211.7 642.2 213.1 641.5 214.3C640.8 215.5 640 216.5 639 217.4C638 218.3 637 219.1 636 219.8C634.9 220.5 633.9 221.1 632.9 221.8C631.9 222.4 631.1 223.1 630.3 223.8C629.5 224.5 629 225.3 628.8 226.2C628.7 226.7 628.4 227 628.1 227.3C627.8 227.6 627.4 227.7 626.9 227.7L622.1 227C621.6 226.9 621.2 226.7 620.9 226.3C620.6 225.9 620.5 225.5 620.6 225C620.9 223.4 621.4 222 622.2 220.8C623 219.6 623.9 218.6 624.9 217.8C625.9 216.9 626.9 216.2 628 215.5C629.1 214.8 630.1 214.2 631.1 213.6C632 213 632.8 212.3 633.5 211.7C634.1 211 634.5 210.3 634.6 209.4C634.8 207.8 634.3 206.4 633.1 205.2C631.9 204 630.2 203.2 627.9 202.9C624.3 202.4 621.4 203.8 619.3 207.2C619 207.6 618.8 208 618.5 208.2C618.2 208.4 617.8 208.5 617.3 208.4L612.2 207.7C611.8 207.6 611.5 207.5 611.3 207.2C611.1 206.9 611 206.6 611 206.1C611.2 204.6 611.9 203.2 613 201.8C614.1 200.4 615.4 199.1 617 198.1C618.6 197.1 620.5 196.3 622.5 195.7C624.6 195 626.7 194.9 628.9 195.2ZM626.6 231.4C627.1 231.5 627.4 231.7 627.7 232.1C628 232.5 628.1 232.9 628 233.4L627.2 239C627.1 239.5 626.9 239.8 626.5 240.1C626.1 240.4 625.7 240.5 625.2 240.4L619.8 239.7C619.3 239.6 619 239.4 618.7 239C618.4 238.6 618.3 238.2 618.4 237.7L619.2 232.1C619.3 231.6 619.5 231.3 619.9 231C620.3 230.7 620.7 230.6 621.2 230.7L626.6 231.4Z" stroke="#FFB900" stroke-miterlimit="10" stroke-linecap="round" stroke-linejoin="round"/>
                                    </g>
                                    <g id="terce_2">
                                    <path id="Vector_4" d="M651 305.9C651 305.1 650.4 304.3 649.6 304.1L640.9 302.1C640.8 300.4 640.5 298.6 640 297L647.6 292.3C648.3 291.8 648.6 290.9 648.3 290.2C646.4 285.1 643.5 280.5 639.7 276.5C639.1 275.9 638.2 275.8 637.5 276.2L629.9 281C628.6 279.9 627.2 278.9 625.7 278L627.7 269.3C627.9 268.5 627.5 267.6 626.7 267.3C621.7 265.1 616.4 263.9 611 263.7C610.2 263.7 609.4 264.3 609.2 265.1L607.2 273.8C605.5 273.9 603.7 274.2 602.1 274.7L597.3 267.1C596.8 266.4 595.9 266.1 595.2 266.4C590.1 268.3 585.5 271.2 581.5 275C580.9 275.6 580.8 276.5 581.2 277.2L586 284.8C584.9 286.1 583.9 287.5 583 289L574.3 287C573.5 286.8 572.6 287.2 572.3 288C571.2 290.5 570.3 293.1 569.7 295.7C569.1 298.3 568.8 301 568.7 303.7C568.7 304.5 569.3 305.3 570.1 305.5L578.8 307.5C578.9 309.2 579.2 311 579.7 312.6L572.1 317.3C571.4 317.8 571.1 318.6 571.4 319.4C573.3 324.5 576.2 329.1 580 333.1C580.6 333.7 581.5 333.8 582.2 333.4L589.8 328.6C591.1 329.7 592.5 330.7 594 331.6L592 340.3C591.8 341.1 592.2 342 593 342.3C595.5 343.4 598.1 344.3 600.7 344.9C603.3 345.5 606 345.8 608.7 345.9C609.5 345.9 610.3 345.3 610.5 344.5L612.5 335.8C614.2 335.7 616 335.4 617.6 334.9L622.3 342.5C622.8 343.2 623.6 343.5 624.4 343.2C629.5 341.3 634.1 338.4 638.1 334.6C638.7 334 638.8 333.1 638.4 332.4L633.6 324.8C634.7 323.5 635.7 322.1 636.6 320.6L645.3 322.6C646.1 322.8 647 322.4 647.3 321.6C648.4 319.1 649.3 316.5 649.9 313.9C650.5 311.3 650.9 308.6 651 305.9ZM621.5 309.5C619.5 314.5 614.3 317.8 608.9 317.4C604.8 317.1 601.2 314.9 599 311.5C596.8 308 596.5 303.9 598 300C600 295 605.2 291.7 610.6 292.1C611.3 292.1 611.9 292.3 612.6 292.4C615.9 293.2 618.7 295.1 620.5 298C622.7 301.5 623 305.6 621.5 309.5Z" fill="#14A3B4" fill-opacity="0.2"/>
                                    </g>
                                    <g id="terce_3" opacity="0.2">
                                    <path id="Vector_5" opacity="0.2" d="M685.3 363.4C685.6 362.9 685.5 362.3 685.1 362L681 358C681.5 357 681.9 356 682.2 354.9L687.9 354.8C688.4 354.8 688.9 354.4 689 353.9C689.6 350.5 689.6 347 688.9 343.5C688.8 343 688.3 342.6 687.8 342.6L682.1 342.7C681.7 341.6 681.3 340.6 680.8 339.6L684.8 335.5C685.2 335.1 685.2 334.5 684.9 334.1C682.9 331.2 680.4 328.8 677.5 326.9C677 326.6 676.4 326.7 676.1 327.1L672.1 331.2C671.1 330.7 670.1 330.3 669 330L668.9 324.3C668.9 323.7 668.5 323.3 668 323.2C664.6 322.6 661.1 322.6 657.6 323.3C657.1 323.4 656.7 323.9 656.7 324.4L656.8 330.1C655.7 330.5 654.7 330.9 653.7 331.4L649.6 327.4C649.2 327 648.6 327 648.1 327.3C646.7 328.3 645.3 329.4 644.1 330.7C642.9 331.9 641.8 333.3 640.9 334.8C640.6 335.3 640.7 335.9 641.1 336.2L645.2 340.2C644.7 341.2 644.3 342.2 644 343.3L638.3 343.4C637.8 343.4 637.3 343.8 637.2 344.3C636.6 347.7 636.6 351.2 637.3 354.7C637.4 355.2 637.9 355.6 638.4 355.6L644.1 355.5C644.5 356.6 644.9 357.6 645.4 358.6L641.4 362.7C641 363.1 641 363.7 641.3 364.2C642.3 365.6 643.4 367 644.7 368.2C645.9 369.4 647.3 370.5 648.8 371.4C649.3 371.7 649.9 371.6 650.2 371.2L654.2 367.1C655.2 367.6 656.2 368 657.3 368.3L657.4 374C657.4 374.5 657.8 375 658.3 375.1C661.7 375.7 665.2 375.7 668.7 375C669.2 374.9 669.6 374.4 669.6 373.9L669.5 368.2C670.6 367.8 671.6 367.4 672.6 366.9L676.7 370.9C677.1 371.3 677.7 371.3 678.2 371C679.6 370 681 368.9 682.2 367.6C683.3 366.2 684.3 364.9 685.3 363.4ZM667.9 355.5C665.2 357.6 661.2 357.6 658.4 355.6C656.2 354.1 655 351.7 654.9 349C654.9 346.4 656.1 344 658.2 342.4C660.9 340.3 664.9 340.3 667.7 342.3C668.1 342.6 668.4 342.8 668.7 343.1C670.2 344.6 671.1 346.6 671.2 348.8C671.2 351.5 670 353.9 667.9 355.5Z" fill="#14A3B4"/>
                                    </g>
                                    <g id="Group_6">
                                    <path id="Vector_6" d="M570.3 245.8C579.302 245.8 586.6 238.502 586.6 229.5C586.6 220.498 579.302 213.2 570.3 213.2C561.298 213.2 554 220.498 554 229.5C554 238.502 561.298 245.8 570.3 245.8Z" fill="#14A3B4"/>
                                    <path id="Vector_7" d="M453.8 376.1C456.1 380.1 460.3 382.7 465 382.7H623.7C628.3 382.7 632.6 380.2 634.9 376.1C637.2 372.1 637.1 367.1 634.6 363.2L591.2 292.7C587.9 287.4 581.4 285.3 575.7 287.5C555.8 278.3 532.9 278.3 513 287.5C507.4 285.3 500.8 287.4 497.5 292.7L454.1 363.2C451.6 367.1 451.5 372 453.8 376.1ZM600.8 357.1H584.9V331.3L600.8 357.1ZM487.9 357.1L503.8 331.3V357.1H487.9Z" fill="#FFB900"/>
                                    <g id="Group_7">
                                    <path id="Vector_8" d="M544.3 300.3C550.6 300.3 555.7 295.2 555.7 288.9V250.6H533V289C532.9 295.2 538 300.3 544.3 300.3Z" fill="#E19B00"/>
                                    <path id="Vector_9" d="M544.3 295.5C550.6 295.5 555.7 290.4 555.7 284.1V245.8H533V284.1C532.9 290.4 538 295.5 544.3 295.5Z" fill="#FF9E9B"/>
                                    <path id="Vector_10" opacity="0.5" d="M555.7 273.7C555.7 280 550.6 285.1 544.3 285.1C538 285.1 532.9 280 532.9 273.7V248.8H555.6V273.7H555.7Z" fill="#FF9E9B"/>
                                    </g>
                                    <path id="Vector_11" d="M553.9 382.6H594.4V382.4C594.4 371.2 585.3 362.2 574.2 362.2C563 362.2 554 371.3 554 382.4V382.6H553.9Z" fill="#E19B00"/>
                                    <path id="Vector_12" d="M546 275.2C559.3 274.1 569.2 262.5 568.1 249.2L565 211.3L516.9 215.2L520 253.1C521.1 266.4 532.7 276.3 546 275.2Z" fill="#FF9E9B"/>
                                    <path id="Vector_13" d="M547.4 243.3C548.284 243.3 549 242.494 549 241.5C549 240.506 548.284 239.7 547.4 239.7C546.516 239.7 545.8 240.506 545.8 241.5C545.8 242.494 546.516 243.3 547.4 243.3Z" fill="#14A3B4"/>
                                    <path id="Vector_14" d="M528 243.3C528.884 243.3 529.6 242.494 529.6 241.5C529.6 240.506 528.884 239.7 528 239.7C527.116 239.7 526.4 240.506 526.4 241.5C526.4 242.494 527.116 243.3 528 243.3Z" fill="#14A3B4"/>
                                    <path id="Vector_15" d="M551.3 255.1C551.5 258 550.2 260.8 547.7 262.1C545.2 263.4 542.1 262.9 539.9 261.1L551.3 255.1Z" fill="white"/>
                                    <path id="Vector_16" d="M549.3 382.6H586.2V382.4C586.2 372.2 577.9 363.9 567.7 363.9C557.5 363.9 549.2 372.2 549.2 382.4V382.6H549.3Z" fill="#FF9E9B"/>
                                    <path id="Vector_17" d="M544.2 382.6H568.8V382.5C568.8 375.7 563.3 370.2 556.5 370.2C549.7 370.2 544.2 375.7 544.2 382.5V382.6V382.6Z" fill="#14A3B4"/>
                                    <g id="Group_8">
                                    <path id="Vector_18" d="M418.4 382.6H530.6C535.5 382.6 539.5 378.6 539.5 373.7H409.5C409.5 378.7 413.5 382.6 418.4 382.6Z" fill="#14A3B4"/>
                                    <path id="Vector_19" d="M407 373.8H496.8C499.3 373.8 501.2 371.4 500.6 369L487 310.4C486.6 308.6 485 307.4 483.2 307.4H393.4C390.9 307.4 389 309.8 389.6 312.2L403.2 370.8C403.5 372.5 405.1 373.8 407 373.8Z" fill="#14A3B4"/>
                                    <path id="Vector_20" d="M403.9 373.8H493.7C496.2 373.8 498.1 371.4 497.5 369L483.9 310.4C483.5 308.6 481.9 307.4 480.1 307.4H390.3C387.8 307.4 385.9 309.8 386.5 312.2L400.1 370.8C400.5 372.5 402 373.8 403.9 373.8Z" fill="#14A3B4"/>
                                    <path id="Vector_21" d="M441 350.9C446.744 350.9 451.4 346.244 451.4 340.5C451.4 334.756 446.744 330.1 441 330.1C435.256 330.1 430.6 334.756 430.6 340.5C430.6 346.244 435.256 350.9 441 350.9Z" fill="#FFB900"/>
                                    </g>
                                    <path id="Vector_22" d="M543.7 190.1C527.9 188 513 201.2 510.5 219.7L567.8 227.4C570.3 208.9 559.5 192.2 543.7 190.1Z" fill="#14A3B4"/>
                                    <path id="Vector_23" d="M519.9 232C525.9 232.8 531.4 228.6 532.2 222.6L510.5 219.7C509.7 225.7 513.9 231.2 519.9 232Z" fill="#14A3B4"/>
                                    <path id="Vector_24" d="M541.9 228.7C552.5 233.3 563.4 231.7 566.2 225.2L527.7 208.6C524.9 215.1 531.2 224.1 541.9 228.7Z" fill="#14A3B4"/>
                                    <path id="Vector_25" d="M568.5 252.9C573.36 252.9 577.3 248.96 577.3 244.1C577.3 239.24 573.36 235.3 568.5 235.3C563.64 235.3 559.7 239.24 559.7 244.1C559.7 248.96 563.64 252.9 568.5 252.9Z" fill="#FF9E9B"/>
                                    <path id="Vector_26" opacity="0.5" d="M539.8 240.3C539.8 240.3 538.3 249.9 534.7 253.2C538.2 254.8 538.9 253.2 538.9 253.2" stroke="#FF9E9B" stroke-width="0.9114" stroke-miterlimit="10"/>
                                    <path id="Vector_27" d="M528.3 235.3C527.2 235.2 526.1 235.3 525.1 235.7C524.5 235.9 523.8 235.8 523.5 235.2C523.2 234.7 523.5 233.9 524.3 233.6C525.6 233.1 527.1 232.9 528.5 233C529.3 233.1 529.9 233.7 529.7 234.3C529.5 235.1 528.9 235.4 528.3 235.3Z" fill="#14A3B4"/>
                                    <path id="Vector_28" d="M547.9 235.3C549 235.2 550.1 235.3 551.1 235.7C551.7 235.9 552.4 235.8 552.7 235.2C553 234.7 552.7 233.9 551.9 233.6C550.6 233.1 549.1 232.9 547.7 233C546.9 233.1 546.3 233.7 546.5 234.3C546.7 235.1 547.3 235.4 547.9 235.3Z" fill="#14A3B4"/>
                                    <path id="Vector_29" d="M566.9 217.3C571.705 217.3 575.6 213.405 575.6 208.6C575.6 203.795 571.705 199.9 566.9 199.9C562.095 199.9 558.2 203.795 558.2 208.6C558.2 213.405 562.095 217.3 566.9 217.3Z" fill="#14A3B4"/>
                                    <path id="Vector_30" d="M519.9 222.3C527.798 222.3 534.2 215.898 534.2 208C534.2 200.102 527.798 193.7 519.9 193.7C512.002 193.7 505.6 200.102 505.6 208C505.6 215.898 512.002 222.3 519.9 222.3Z" fill="#14A3B4"/>
                                    <path id="Vector_31" d="M568.5 248.3C570.82 248.3 572.7 246.42 572.7 244.1C572.7 241.78 570.82 239.9 568.5 239.9C566.18 239.9 564.3 241.78 564.3 244.1C564.3 246.42 566.18 248.3 568.5 248.3Z" fill="#14A3B4"/>
                                    <path id="Vector_32" d="M558.3 261.2C562.3 260.7 565.9 258.1 567.6 254.4C569.1 251.1 568.7 247.5 568.4 244" stroke="white" stroke-width="1.7126" stroke-miterlimit="10" stroke-linecap="round" stroke-linejoin="round"/>
                                    <path id="Vector_33" d="M559.2 263.1L552.7 263.6C551.7 263.7 550.8 262.9 550.8 261.9C550.7 260.9 551.5 260 552.5 260L559 259.5L559.2 263.1Z" fill="#14A3B4"/>
                                    <path id="Vector_34" d="M568.4 246.8C569.836 246.8 571 245.636 571 244.2C571 242.764 569.836 241.6 568.4 241.6C566.964 241.6 565.8 242.764 565.8 244.2C565.8 245.636 566.964 246.8 568.4 246.8Z" stroke="white" stroke-width="0.2441" stroke-miterlimit="10" stroke-linecap="round" stroke-linejoin="round"/>
                                    </g>
                                    <g id="rotate_1" opacity="0.4">
                                    <path id="Vector_35" opacity="0.4" d="M433.7 272.7L470.9 255.8L459.9 281L433.7 272.7Z" stroke="#FFB900" stroke-miterlimit="10" stroke-linecap="round" stroke-linejoin="round"/>
                                    <path id="Vector_36" opacity="0.4" d="M470.9 255.8L481.2 278.4L443.9 295.2L433.7 272.7" stroke="#FFB900" stroke-miterlimit="10" stroke-linecap="round" stroke-linejoin="round"/>
                                    <path id="Vector_37" opacity="0.4" d="M462.2 276L481.2 278.4L470.9 255.8" stroke="#FFB900" stroke-miterlimit="10" stroke-linecap="round" stroke-linejoin="round"/>
                                    <path id="Vector_38" opacity="0.4" d="M454.7 279.3L443.9 295.2L433.7 272.7" stroke="#FFB900" stroke-miterlimit="10" stroke-linecap="round" stroke-linejoin="round"/>
                                    </g>
                                    <g id="Group_9">
                                    <path id="Vector_39" d="M676 388H257.8C256.3 388 255 386.7 255 385.2C255 383.7 256.3 382.4 257.8 382.4H676C677.5 382.4 678.8 383.7 678.8 385.2C678.8 386.8 677.5 388 676 388Z" fill="#FFB900"/>
                                    </g>
                                    <path id="star_8" d="M375.6 346C375.5 348.4 373.6 350.3 371.3 350.3V350.4C373.7 350.4 375.6 352.3 375.6 354.7H375.7C375.7 352.3 377.6 350.4 380 350.4V350.3C377.5 350.3 375.6 348.4 375.6 346Z" fill="#FFB900"/>
                                    <path id="star_7" d="M596.6 183.9C596.5 186.3 594.6 188.2 592.3 188.2V188.3C594.7 188.3 596.6 190.2 596.6 192.6H596.7C596.7 190.2 598.6 188.3 601 188.3V188.2C598.5 188.2 596.6 186.3 596.6 183.9Z" fill="#14A3B4"/>
                                    <path id="Vector_40" d="M362.1 339.9C362.818 339.9 363.4 339.318 363.4 338.6C363.4 337.882 362.818 337.3 362.1 337.3C361.382 337.3 360.8 337.882 360.8 338.6C360.8 339.318 361.382 339.9 362.1 339.9Z" fill="#FFB900"/>
                                    <path id="Vector_41" d="M432.1 154.3C432.818 154.3 433.4 153.718 433.4 153C433.4 152.282 432.818 151.7 432.1 151.7C431.382 151.7 430.8 152.282 430.8 153C430.8 153.718 431.382 154.3 432.1 154.3Z" fill="#14A3B4"/>
                                    <path id="Vector_42" d="M400.6 236.9C401.318 236.9 401.9 236.318 401.9 235.6C401.9 234.882 401.318 234.3 400.6 234.3C399.882 234.3 399.3 234.882 399.3 235.6C399.3 236.318 399.882 236.9 400.6 236.9Z" fill="#14A3B4"/>
                                    <path id="Vector_43" d="M587.1 181.4C587.818 181.4 588.4 180.818 588.4 180.1C588.4 179.382 587.818 178.8 587.1 178.8C586.382 178.8 585.8 179.382 585.8 180.1C585.8 180.818 586.382 181.4 587.1 181.4Z" fill="#14A3B4"/>
                                    <path id="Vector_44" d="M620 173.5C620.718 173.5 621.3 172.918 621.3 172.2C621.3 171.482 620.718 170.9 620 170.9C619.282 170.9 618.7 171.482 618.7 172.2C618.7 172.918 619.282 173.5 620 173.5Z" fill="#14A3B4"/>
                                    <path id="Vector_45" d="M653.6 224.4C654.318 224.4 654.9 223.818 654.9 223.1C654.9 222.382 654.318 221.8 653.6 221.8C652.882 221.8 652.3 222.382 652.3 223.1C652.3 223.818 652.882 224.4 653.6 224.4Z" fill="#14A3B4"/>
                                    <g id="terce_1">
                                    <path id="Vector_46" d="M415 178C414.9 177.6 414.5 177.4 414.2 177.5L410.3 177.9C410 177.2 409.6 176.5 409.2 175.9L411.6 172.9C411.8 172.6 411.8 172.2 411.6 171.9C410.1 170.1 408.2 168.6 406.1 167.5C405.8 167.3 405.4 167.4 405.1 167.7L402.7 170.7C402 170.4 401.3 170.2 400.5 170.1L400.1 166.2C400.1 165.8 399.8 165.5 399.4 165.5C397 165.3 394.7 165.6 392.4 166.3C392 166.4 391.8 166.8 391.9 167.1L392.3 171C391.6 171.3 390.9 171.7 390.3 172.1L387.3 169.7C387 169.5 386.6 169.5 386.3 169.7C384.5 171.2 383 173.1 381.9 175.2C381.7 175.5 381.8 175.9 382.1 176.2L385.1 178.6C384.8 179.3 384.6 180 384.5 180.8L380.6 181.2C380.2 181.2 379.9 181.5 379.9 181.9C379.8 183.1 379.8 184.3 379.9 185.4C380 186.6 380.3 187.7 380.6 188.8C380.7 189.2 381.1 189.4 381.4 189.3L385.3 188.9C385.6 189.6 386 190.3 386.4 190.9L384 193.9C383.8 194.2 383.8 194.6 384 194.9C385.5 196.7 387.4 198.2 389.5 199.3C389.8 199.5 390.2 199.4 390.5 199.1L392.9 196.1C393.6 196.4 394.3 196.6 395.1 196.7L395.5 200.6C395.5 201 395.8 201.3 396.2 201.3C397.4 201.4 398.6 201.4 399.7 201.3C400.9 201.2 402 200.9 403.1 200.6C403.5 200.5 403.7 200.1 403.6 199.8L403.2 195.9C403.9 195.6 404.6 195.2 405.2 194.8L408.2 197.2C408.5 197.4 408.9 197.4 409.2 197.2C411 195.7 412.5 193.8 413.6 191.7C413.8 191.4 413.7 191 413.4 190.7L410.4 188.3C410.7 187.6 410.9 186.9 411 186.1L414.9 185.7C415.3 185.7 415.6 185.4 415.6 185C415.7 183.8 415.7 182.6 415.6 181.5C415.6 180.3 415.4 179.1 415 178ZM403.4 183.7C403.3 186 401.6 188.1 399.4 188.7C397.7 189.2 395.9 188.8 394.5 187.7C393.1 186.6 392.4 184.9 392.4 183.1C392.5 180.8 394.2 178.7 396.4 178.1C396.7 178 397 178 397.3 177.9C398.8 177.7 400.2 178.1 401.3 179.1C402.8 180.2 403.5 181.9 403.4 183.7Z" stroke="#14A3B4" stroke-miterlimit="10"/>
                                    </g>
                                    <path id="phone" d="M452.4 196.3C450.2 186.1 441.7 178.2 431.4 176.6C430.5 176.5 429.6 176.4 428.7 176.2C427.9 176.2 427.1 176.2 426.2 176.2C425.3 176.3 424.4 176.4 423.5 176.6C412.4 178.3 403.7 187.1 402.1 198.2C400.3 211.7 409 224 422.3 226.8C423.4 227 424.5 227.1 425.6 227.2C425.8 227.2 425.9 227.3 426.1 227.3C426.9 227.3 427.8 227.3 428.6 227.3C429.5 227.2 430.4 227.1 431.3 226.9C442.1 225.3 450.8 216.7 452.5 206C452.6 205.3 452.7 204.5 452.9 203.8C452.9 202.4 452.9 201.1 452.9 199.7C452.9 198.7 452.7 197.5 452.4 196.3ZM443.7 211.5C443.5 211.9 441.4 215.4 440.5 216.3C439.6 217.1 438.5 217.4 437.5 217.4C437.4 217.4 437.3 217.4 437.2 217.4C435.9 217.3 427.7 214.5 422 208.3C416.3 202.1 414.3 193.6 414.4 192.3C414.4 191.4 414.8 190 415.8 189.2C416.7 188.4 420.4 186.6 420.9 186.5C421.3 186.3 422.2 186 422.9 186.9C423.2 187.2 427.4 194 427.6 194.8C427.7 195.3 427.7 196 426.9 196.7C426.5 197 423.1 199.2 423 199.3C422.9 199.4 422.8 199.4 422.8 199.4C422.8 199.4 422.8 199.5 422.8 199.6C422.9 200.1 424.5 203.1 426.1 204.8C427.7 206.5 430.5 208.4 431 208.5C431.1 208.6 431.2 208.5 431.2 208.5C431.2 208.5 431.3 208.4 431.3 208.3C431.4 208.2 433.9 204.9 434.2 204.6C435 203.9 435.7 203.9 436.2 204.1C436.9 204.4 443.3 209.2 443.6 209.5C444.3 210.3 443.9 211.1 443.7 211.5Z" fill="#14A3B4" fill-opacity="0.93"/>
                                    <path id="star_6" d="M420 154.2C419.9 157 417.7 159.2 414.9 159.2V159.3C417.7 159.3 419.9 161.5 419.9 164.3H420C420 161.5 422.2 159.3 425 159.3V159.2C422.2 159.2 420 157 420 154.2Z" fill="#14A3B4"/>
                                    <path id="star_5" d="M351.3 216.3C351.2 219.1 349 221.3 346.2 221.3V221.4C349 221.4 351.2 223.6 351.2 226.4H351.3C351.3 223.6 353.5 221.4 356.3 221.4V221.3C353.5 221.3 351.3 219.1 351.3 216.3Z" fill="#FFB900"/>
                                    <path id="star_4" d="M485.1 155.5C485 155.3 484.9 155.2 484.7 155.2H480.4L479.1 151.1C479 150.9 478.9 150.8 478.7 150.8C478.5 150.8 478.3 150.9 478.3 151.1L477 155.2H472.7C472.5 155.2 472.3 155.3 472.3 155.5C472.2 155.7 472.3 155.9 472.5 156L476 158.5L474.7 162.6C474.6 162.8 474.7 163 474.9 163.1C475.1 163.2 475.3 163.2 475.4 163.1L478.9 160.6L482.4 163.1C482.5 163.2 482.6 163.2 482.7 163.2C482.8 163.2 482.9 163.2 483 163.1C483.2 163 483.2 162.8 483.2 162.6L481.9 158.5L485.4 156C485 155.8 485.1 155.6 485.1 155.5Z" fill="#14A3B4"/>
                                    <path id="star_3" d="M504.5 155.5C504.4 155.3 504.3 155.2 504.1 155.2H499.8L498.5 151.1C498.4 150.9 498.3 150.8 498.1 150.8C497.9 150.8 497.7 150.9 497.7 151.1L496.4 155.2H492C491.8 155.2 491.6 155.3 491.6 155.5C491.5 155.7 491.6 155.9 491.8 156L495.3 158.5L494 162.6C493.9 162.8 494 163 494.2 163.1C494.4 163.2 494.6 163.2 494.7 163.1L498.2 160.6L501.7 163.1C501.8 163.2 501.9 163.2 502 163.2C502.1 163.2 502.2 163.2 502.3 163.1C502.5 163 502.5 162.8 502.5 162.6L501.2 158.5L504.7 156C504.5 155.8 504.6 155.6 504.5 155.5Z" fill="#14A3B4"/>
                                    <path id="star_2" d="M524 155.5C523.9 155.3 523.8 155.2 523.6 155.2H519.3L518 151.1C517.9 150.9 517.8 150.8 517.6 150.8C517.4 150.8 517.2 150.9 517.2 151.1L515.9 155.2H511.6C511.4 155.2 511.2 155.3 511.2 155.5C511.1 155.7 511.2 155.9 511.4 156L514.9 158.5L513.6 162.6C513.5 162.8 513.6 163 513.8 163.1C514 163.2 514.2 163.2 514.3 163.1L517.8 160.6L521.3 163.1C521.4 163.2 521.5 163.2 521.6 163.2C521.7 163.2 521.8 163.2 521.9 163.1C522.1 163 522.1 162.8 522.1 162.6L520.8 158.5L524.3 156C524 155.8 524 155.6 524 155.5Z" fill="#14A3B4"/>
                                    <path id="star_1" opacity="0.4" d="M543.4 155.5C543.3 155.3 543.2 155.2 543 155.2H538.7L537.4 151.1C537.3 150.9 537.2 150.8 537 150.8C536.8 150.8 536.6 150.9 536.6 151.1L535.3 155.2H531C530.8 155.2 530.6 155.3 530.6 155.5C530.5 155.7 530.6 155.9 530.8 156L534.3 158.5L533 162.6C532.9 162.8 533 163 533.2 163.1C533.4 163.2 533.6 163.2 533.7 163.1L537.2 160.6L540.7 163.1C540.8 163.2 540.9 163.2 541 163.2C541.1 163.2 541.2 163.2 541.3 163.1C541.5 163 541.5 162.8 541.5 162.6L540.2 158.5L543.7 156C543.4 155.8 543.5 155.6 543.4 155.5Z" fill="#14A3B4"/>
                                    </g>
                                    </g>
                                    </g>
                                    </g>
                                    </g>
                                    </g>
                                </svg>