<svg width="94" height="94" viewBox="0 0 94 94" fill="none" xmlns="http://www.w3.org/2000/svg">
<path d="M46.845 93.69C72.7168 93.69 93.69 72.7168 93.69 46.845C93.69 20.9732 72.7168 0 46.845 0C20.9732 0 0 20.9732 0 46.845C0 72.7168 20.9732 93.69 46.845 93.69Z" fill="#14A3B4"/>
<path d="M49.195 55.068C55.0343 55.068 59.768 50.3343 59.768 44.495C59.768 38.6557 55.0343 33.922 49.195 33.922C43.3557 33.922 38.622 38.6557 38.622 44.495C38.622 50.3343 43.3557 55.068 49.195 55.068Z" fill="white"/>
<path d="M49.195 56.684C46.8133 56.684 44.4852 55.9778 42.5049 54.6546C40.5246 53.3314 38.9811 51.4507 38.0697 49.2503C37.1582 47.0499 36.9198 44.6286 37.3844 42.2927C37.849 39.9568 38.9959 37.8111 40.68 36.127C42.3641 34.4429 44.5098 33.296 46.8457 32.8314C49.1817 32.3668 51.6029 32.6052 53.8033 33.5167C56.0037 34.4281 57.8844 35.9715 59.2076 37.9518C60.5308 39.9321 61.237 42.2603 61.237 44.642C61.2218 47.8311 59.9482 50.8851 57.6931 53.1401C55.4381 55.3952 52.3841 56.6688 49.195 56.684ZM49.195 35.391C47.3952 35.391 45.6358 35.9247 44.1393 36.9246C42.6428 37.9246 41.4765 39.3458 40.7877 41.0086C40.099 42.6714 39.9188 44.5011 40.2699 46.2663C40.621 48.0316 41.4877 49.653 42.7603 50.9257C44.033 52.1983 45.6545 53.065 47.4197 53.4162C49.1849 53.7673 51.0146 53.5871 52.6774 52.8983C54.3403 52.2096 55.7615 51.0432 56.7614 49.5467C57.7613 48.0502 58.295 46.2908 58.295 44.491C58.2819 42.0816 57.3189 39.7746 55.6152 38.0709C53.9114 36.3671 51.6044 35.4041 49.195 35.391Z" fill="#183651"/>
<path d="M49.195 55.216C43.6255 55.216 38.284 57.4285 34.3458 61.3668C30.4075 65.305 28.195 70.6465 28.195 76.216H70.195C70.195 70.6465 67.9825 65.305 64.0443 61.3668C60.106 57.4285 54.7646 55.216 49.195 55.216Z" fill="#FBBD5E"/>
<path d="M70.194 77.538H28.194C27.998 77.55 27.8016 77.5202 27.618 77.4506C27.4343 77.381 27.2675 77.2732 27.1286 77.1344C26.9898 76.9955 26.882 76.8287 26.8124 76.6451C26.7428 76.4614 26.713 76.2651 26.725 76.069C26.725 70.1101 29.0921 64.3953 33.3057 60.1817C37.5193 55.9682 43.2341 53.601 49.193 53.601C55.1519 53.601 60.8667 55.9682 65.0803 60.1817C69.2938 64.3953 71.661 70.1101 71.661 76.069C71.6602 76.458 71.5055 76.8309 71.2306 77.1062C70.9557 77.3814 70.583 77.5367 70.194 77.538ZM29.663 74.601H68.578C68.2108 69.7042 66.0118 65.1256 62.4192 61.7779C58.8267 58.4302 54.1045 56.5592 49.194 56.538C44.2822 56.6042 39.5687 58.4863 35.9623 61.8217C32.3559 65.157 30.112 69.7093 29.663 74.601Z" fill="#183651"/>
<path d="M36.419 6.315H33.482V9.252H36.419V6.315Z" fill="#183651"/>
<path d="M48.313 6.315H45.376V9.252H48.313V6.315Z" fill="#183651"/>
<path d="M60.061 6.315H57.124V9.252H60.061V6.315Z" fill="#183651"/>
<path d="M36.419 83.705H33.482V86.642H36.419V83.705Z" fill="#183651"/>
<path d="M48.313 83.705H45.376V86.642H48.313V83.705Z" fill="#183651"/>
<path d="M60.061 83.705H57.124V86.642H60.061V83.705Z" fill="#183651"/>
<path d="M86.935 33.188H83.998V36.125H86.935V33.188Z" fill="#183651"/>
<path d="M86.935 45.083H83.998V48.02H86.935V45.083Z" fill="#183651"/>
<path d="M86.935 56.978H83.998V59.915H86.935V56.978Z" fill="#183651"/>
<path d="M9.54497 33.188H6.60797V36.125H9.54497V33.188Z" fill="#183651"/>
<path d="M9.54497 45.083H6.60797V48.02H9.54497V45.083Z" fill="#183651"/>
<path d="M9.54497 56.978H6.60797V59.915H9.54497V56.978Z" fill="#183651"/>
<path d="M13.951 14.099C17.4387 14.099 20.266 11.2717 20.266 7.78399C20.266 4.29632 17.4387 1.46899 13.951 1.46899C10.4633 1.46899 7.63599 4.29632 7.63599 7.78399C7.63599 11.2717 10.4633 14.099 13.951 14.099Z" fill="white"/>
<path d="M13.951 15.566C11.8911 15.5524 9.91933 14.728 8.46268 13.2714C7.00602 11.8147 6.18166 9.84297 6.16803 7.783C6.16803 5.71882 6.98802 3.73918 8.44762 2.27959C9.90721 0.819992 11.8868 0 13.951 0C16.0152 0 17.9948 0.819992 19.4544 2.27959C20.914 3.73918 21.734 5.71882 21.734 7.783C21.7397 8.80667 21.5423 9.82131 21.1532 10.7682C20.7641 11.715 20.191 12.5753 19.4672 13.2991C18.7433 14.023 17.883 14.5961 16.9362 14.9852C15.9893 15.3743 14.9747 15.5717 13.951 15.566ZM13.951 2.937C12.6693 2.94822 11.4432 3.46239 10.5368 4.36877C9.63042 5.27515 9.11625 6.50124 9.10503 7.783C9.10503 9.06824 9.61559 10.3008 10.5244 11.2096C11.4332 12.1184 12.6658 12.629 13.951 12.629C15.2363 12.629 16.4689 12.1184 17.3777 11.2096C18.2865 10.3008 18.797 9.06824 18.797 7.783C18.8032 7.14491 18.682 6.51199 18.4407 5.92127C18.1993 5.33055 17.8426 4.79389 17.3914 4.34266C16.9401 3.89144 16.4035 3.53472 15.8128 3.29336C15.222 3.052 14.5891 2.93085 13.951 2.937Z" fill="#183651"/>
<path d="M13.951 14.098C12.3115 14.0967 10.6878 14.4187 9.17279 15.0455C7.65781 15.6723 6.28128 16.5916 5.12196 17.751C3.96264 18.9103 3.04327 20.2868 2.41646 21.8018C1.78964 23.3168 1.46768 24.9405 1.469 26.58H26.434C26.4477 24.9369 26.1342 23.3076 25.5117 21.7869C24.8893 20.2663 23.9703 18.8848 22.8084 17.7229C21.6464 16.5611 20.2649 15.6422 18.7442 15.0199C17.2235 14.3975 15.5941 14.0841 13.951 14.098Z" fill="#6FDA2E"/>
<path d="M26.58 28.048H1.61599C1.42005 28.06 1.2238 28.0302 1.04022 27.9607C0.856636 27.8911 0.689905 27.7834 0.551047 27.6447C0.41219 27.5059 0.30437 27.3393 0.234716 27.1557C0.165062 26.9722 0.135162 26.776 0.146991 26.58C0.170326 22.8872 1.64765 19.3522 4.25893 16.7409C6.87021 14.1297 10.4052 12.6523 14.098 12.629C17.7908 12.6523 21.3258 14.1297 23.937 16.7409C26.5483 19.3522 28.0257 22.8872 28.049 26.58C28.0479 26.9692 27.8928 27.3421 27.6175 27.6172C27.3422 27.8923 26.9692 28.0472 26.58 28.048ZM3.07999 25.111H24.966C24.615 22.4484 23.3003 20.0067 21.2708 18.2479C19.2412 16.489 16.6375 15.5349 13.952 15.566C11.2828 15.5389 8.69763 16.498 6.69204 18.2595C4.68646 20.0209 3.40165 22.4607 3.08399 25.111H3.07999Z" fill="#183651"/>
<path d="M79.74 14.099C83.2277 14.099 86.055 11.2717 86.055 7.78399C86.055 4.29632 83.2277 1.46899 79.74 1.46899C76.2523 1.46899 73.425 4.29632 73.425 7.78399C73.425 11.2717 76.2523 14.099 79.74 14.099Z" fill="white"/>
<path d="M79.739 15.566C77.679 15.5524 75.7073 14.728 74.2506 13.2714C72.794 11.8147 71.9696 9.84297 71.956 7.783C71.956 5.71882 72.776 3.73918 74.2356 2.27959C75.6952 0.819992 77.6748 0 79.739 0C81.8032 0 83.7828 0.819992 85.2424 2.27959C86.702 3.73918 87.522 5.71882 87.522 7.783C87.5277 8.80667 87.3303 9.82131 86.9412 10.7682C86.552 11.715 85.979 12.5753 85.2551 13.2991C84.5313 14.023 83.671 14.5961 82.7242 14.9852C81.7773 15.3743 80.7627 15.5717 79.739 15.566ZM79.739 2.937C78.4572 2.94822 77.2311 3.46239 76.3248 4.36877C75.4184 5.27515 74.9042 6.50124 74.893 7.783C74.893 9.06824 75.4035 10.3008 76.3123 11.2096C77.2211 12.1184 78.4537 12.629 79.739 12.629C81.0242 12.629 82.2568 12.1184 83.1656 11.2096C84.0744 10.3008 84.585 9.06824 84.585 7.783C84.5911 7.14491 84.47 6.51199 84.2286 5.92127C83.9873 5.33055 83.6305 4.79389 83.1793 4.34266C82.7281 3.89144 82.1914 3.53472 81.6007 3.29336C81.01 3.052 80.3771 2.93086 79.739 2.937Z" fill="#183651"/>
<path d="M79.739 14.098C78.0995 14.0967 76.4758 14.4187 74.9608 15.0455C73.4458 15.6723 72.0693 16.5916 70.91 17.751C69.7507 18.9103 68.8313 20.2868 68.2045 21.8018C67.5777 23.3168 67.2557 24.9405 67.257 26.58H92.222C92.2357 24.9369 91.9222 23.3076 91.2997 21.7869C90.6773 20.2663 89.7583 18.8848 88.5964 17.7229C87.4345 16.5611 86.0529 15.6422 84.5322 15.0199C83.0115 14.3975 81.3821 14.0841 79.739 14.098Z" fill="#F06151"/>
</svg>
