<svg width="256" height="256" viewBox="0 0 256 256" fill="none" xmlns="http://www.w3.org/2000/svg">
<path d="M40.95 162.05V164.66H69.05V162.05C69.0447 158.938 67.8061 155.955 65.6056 153.754C63.4051 151.554 60.422 150.315 57.31 150.31H52.69C49.578 150.315 46.5949 151.554 44.3944 153.754C42.1939 155.955 40.9553 158.938 40.95 162.05V162.05Z" fill="#EFFAFE"/>
<path d="M54.18 146.31H55.82C57.6412 146.101 59.3133 145.203 60.4936 143.8C61.674 142.397 62.2731 140.596 62.1683 138.766C62.0634 136.936 61.2625 135.215 59.9297 133.957C58.5969 132.698 56.8332 131.997 55 131.997C53.1668 131.997 51.4031 132.698 50.0703 133.957C48.7375 135.215 47.9366 136.936 47.8318 138.766C47.7269 140.596 48.3261 142.397 49.5064 143.8C50.6867 145.203 52.3588 146.101 54.18 146.31V146.31Z" fill="#EFFAFE"/>
<path d="M70 117H40C37.8783 117 35.8434 117.843 34.3431 119.343C32.8429 120.843 32 122.878 32 125V171.67C32 173.792 32.8429 175.827 34.3431 177.327C35.8434 178.827 37.8783 179.67 40 179.67H70C72.1217 179.67 74.1566 178.827 75.6569 177.327C77.1571 175.827 78 173.792 78 171.67V125C78 122.878 77.1571 120.843 75.6569 119.343C74.1566 117.843 72.1217 117 70 117ZM43.82 139.18C43.8205 137.331 44.2795 135.511 45.1558 133.883C46.0322 132.255 47.2986 130.87 48.8417 129.852C50.3847 128.834 52.1562 128.214 53.9976 128.048C55.839 127.882 57.6927 128.176 59.3929 128.902C61.093 129.629 62.5864 130.765 63.7394 132.21C64.8925 133.656 65.6691 135.364 65.9997 137.183C66.3304 139.002 66.2048 140.875 65.6342 142.634C65.0635 144.392 64.0657 145.982 62.73 147.26C69.73 150.26 73.05 156.01 73.05 162.06V166.67C73.05 167.2 72.8393 167.709 72.4642 168.084C72.0891 168.459 71.5804 168.67 71.05 168.67H38.95C38.4196 168.67 37.9109 168.459 37.5358 168.084C37.1607 167.709 36.95 167.2 36.95 166.67V162.06C36.95 156.06 40.19 150.24 47.27 147.26C46.1846 146.212 45.3201 144.957 44.7276 143.569C44.135 142.181 43.8264 140.689 43.82 139.18Z" fill="#F2B73E"/>
<path d="M117.34 51.66V88H146.66V51.66C146.66 47.7719 145.115 44.0431 142.366 41.2938C139.617 38.5445 135.888 37 132 37C128.112 37 124.383 38.5445 121.634 41.2938C118.885 44.0431 117.34 47.7719 117.34 51.66V51.66ZM128 59.22C126.396 59.22 124.828 58.7444 123.494 57.8532C122.161 56.9621 121.121 55.6955 120.507 54.2136C119.894 52.7317 119.733 51.101 120.046 49.5278C120.359 47.9546 121.131 46.5096 122.265 45.3754C123.4 44.2412 124.845 43.4688 126.418 43.1558C127.991 42.8429 129.622 43.0035 131.104 43.6173C132.585 44.2312 133.852 45.2706 134.743 46.6043C135.634 47.938 136.11 49.506 136.11 51.11C136.107 53.2601 135.252 55.3214 133.732 56.8417C132.211 58.3621 130.15 59.2174 128 59.22V59.22Z" fill="#14A3B4"/>
<path d="M57.31 150.31H53.31C56.422 150.315 59.4051 151.554 61.6056 153.754C63.8061 155.955 65.0447 158.938 65.05 162.05V164.66H69.05V162.05C69.0447 158.938 67.8061 155.955 65.6056 153.754C63.4051 151.554 60.422 150.315 57.31 150.31V150.31Z" fill="#E4EBED"/>
<path d="M55 132C54.323 132.001 53.6496 132.099 53 132.29C54.4948 132.72 55.8091 133.625 56.7445 134.868C57.68 136.111 58.1859 137.624 58.1859 139.18C58.1859 140.736 57.68 142.249 56.7445 143.492C55.8091 144.735 54.4948 145.64 53 146.07C53.3859 146.183 53.7806 146.263 54.18 146.31H55.82C57.636 146.095 59.3014 145.194 60.4764 143.793C61.6514 142.392 62.2474 140.595 62.1427 138.769C62.0381 136.943 61.2408 135.226 59.9134 133.968C58.5861 132.711 56.8287 132.006 55 132V132Z" fill="#E4EBED"/>
<path d="M70 117H65C67.1217 117 69.1566 117.843 70.6569 119.343C72.1571 120.843 73 122.878 73 125V160.81C73 161.22 73.05 161.64 73.05 162.05V166.66C73.0489 166.805 73.0322 166.949 73 167.09V171.66C73 173.782 72.1571 175.817 70.6569 177.317C69.1566 178.817 67.1217 179.66 65 179.66H70C72.1217 179.66 74.1566 178.817 75.6569 177.317C77.1571 175.817 78 173.782 78 171.66V125C78 122.878 77.1571 120.843 75.6569 119.343C74.1566 117.843 72.1217 117 70 117Z" fill="#EFC803"/>
<path d="M132 37C130.647 37.0036 129.3 37.1954 128 37.57C131.066 38.4403 133.765 40.2869 135.687 42.8296C137.609 45.3724 138.649 48.4726 138.65 51.66V88H146.65V51.66C146.651 49.7353 146.273 47.8292 145.538 46.0506C144.802 44.272 143.723 42.6559 142.363 41.2944C141.002 39.933 139.387 38.853 137.609 38.1161C135.831 37.3793 133.925 37 132 37Z" fill="#14A3B4"/>
<path d="M236 67H146.66V88H156C156.53 88 157.039 88.2107 157.414 88.5858C157.789 88.9609 158 89.4696 158 90C158 90.5304 157.789 91.0391 157.414 91.4142C157.039 91.7893 156.53 92 156 92H100C99.4696 92 98.9609 91.7893 98.5858 91.4142C98.2107 91.0391 98 90.5304 98 90C98 89.4696 98.2107 88.9609 98.5858 88.5858C98.9609 88.2107 99.4696 88 100 88H109.34V67H25C22.8783 67 20.8434 67.8429 19.3431 69.3431C17.8429 70.8434 17 72.8783 17 75V211C17 213.122 17.8429 215.157 19.3431 216.657C20.8434 218.157 22.8783 219 25 219H236C238.122 219 240.157 218.157 241.657 216.657C243.157 215.157 244 213.122 244 211V75C244 72.8783 243.157 70.8434 241.657 69.3431C240.157 67.8429 238.122 67 236 67ZM82 125V171.67C82 174.853 80.7357 177.905 78.4853 180.155C76.2348 182.406 73.1826 183.67 70 183.67H40C36.8174 183.67 33.7652 182.406 31.5147 180.155C29.2643 177.905 28 174.853 28 171.67V125C28 121.817 29.2643 118.765 31.5147 116.515C33.7652 114.264 36.8174 113 40 113H70C73.1826 113 76.2348 114.264 78.4853 116.515C80.7357 118.765 82 121.817 82 125Z" fill="#EFFAFE"/>
<path d="M236 67H231C233.122 67 235.157 67.8429 236.657 69.3431C238.157 70.8434 239 72.8783 239 75V211C239 213.122 238.157 215.157 236.657 216.657C235.157 218.157 233.122 219 231 219H236C238.122 219 240.157 218.157 241.657 216.657C243.157 215.157 244 213.122 244 211V75C244 72.8783 243.157 70.8434 241.657 69.3431C240.157 67.8429 238.122 67 236 67Z" fill="#E4EBED"/>
<path d="M63.58 147.07C65.1207 145.402 66.1417 143.321 66.5183 141.082C66.8948 138.843 66.6105 136.542 65.7002 134.462C64.7898 132.382 63.2928 130.612 61.3924 129.37C59.4921 128.127 57.2706 127.465 55 127.465C52.7294 127.465 50.5079 128.127 48.6076 129.37C46.7072 130.612 45.2102 132.382 44.2998 134.462C43.3895 136.542 43.1052 138.843 43.4817 141.082C43.8583 143.321 44.8793 145.402 46.42 147.07C43.4602 148.306 40.9318 150.39 39.1525 153.058C37.3733 155.727 36.4226 158.862 36.42 162.07V166.68C36.42 167.343 36.6834 167.979 37.1522 168.448C37.6211 168.917 38.257 169.18 38.92 169.18H71.02C71.683 169.18 72.3189 168.917 72.7878 168.448C73.2566 167.979 73.52 167.343 73.52 166.68V162.07C73.5223 158.869 72.5805 155.739 70.8124 153.071C69.0444 150.403 66.5286 148.315 63.58 147.07V147.07ZM55 132.5C56.6963 132.514 58.3239 133.172 59.5524 134.342C60.781 135.512 61.5184 137.105 61.6151 138.799C61.7118 140.493 61.1606 142.16 60.0732 143.462C58.9858 144.764 57.4438 145.603 55.76 145.81H54.24C52.5562 145.603 51.0142 144.764 49.9268 143.462C48.8394 142.16 48.2882 140.493 48.3849 138.799C48.4816 137.105 49.219 135.512 50.4476 134.342C51.6761 133.172 53.3037 132.514 55 132.5ZM68.55 164.17H41.45V162.06C41.4553 159.081 42.6412 156.225 44.748 154.118C46.8547 152.011 49.7106 150.825 52.69 150.82H57.3C60.2794 150.825 63.1353 152.011 65.242 154.118C67.3488 156.225 68.5347 159.081 68.54 162.06L68.55 164.17Z" fill="#263238"/>
<path d="M236 62.5H147.16V51.66C147.16 46.5785 145.141 41.705 141.548 38.1118C137.955 34.5186 133.082 32.5 128 32.5C122.918 32.5 118.045 34.5186 114.452 38.1118C110.859 41.705 108.84 46.5785 108.84 51.66V62.5H20C16.6856 62.5026 13.5077 63.8205 11.1641 66.1641C8.82046 68.5077 7.50265 71.6856 7.5 75V211C7.50265 214.314 8.82046 217.492 11.1641 219.836C13.5077 222.18 16.6856 223.497 20 223.5H236C239.314 223.497 242.492 222.18 244.836 219.836C247.18 217.492 248.497 214.314 248.5 211V75C248.497 71.6856 247.18 68.5077 244.836 66.1641C242.492 63.8205 239.314 62.5026 236 62.5V62.5ZM113.84 51.66C113.84 47.9045 115.332 44.3029 117.987 41.6474C120.643 38.9919 124.245 37.5 128 37.5C131.755 37.5 135.357 38.9919 138.013 41.6474C140.668 44.3029 142.16 47.9045 142.16 51.66V87.5H113.84V51.66ZM243.5 211C243.497 212.988 242.706 214.894 241.3 216.3C239.894 217.706 237.988 218.497 236 218.5H20C18.0117 218.497 16.1056 217.706 14.6996 216.3C13.2937 214.894 12.5026 212.988 12.5 211V75C12.5026 73.0117 13.2937 71.1056 14.6996 69.6996C16.1056 68.2937 18.0117 67.5026 20 67.5H108.84V87.5H100C99.337 87.5 98.7011 87.7634 98.2322 88.2322C97.7634 88.7011 97.5 89.337 97.5 90C97.5 90.663 97.7634 91.2989 98.2322 91.7678C98.7011 92.2366 99.337 92.5 100 92.5H156C156.663 92.5 157.299 92.2366 157.768 91.7678C158.237 91.2989 158.5 90.663 158.5 90C158.5 89.337 158.237 88.7011 157.768 88.2322C157.299 87.7634 156.663 87.5 156 87.5H147.16V67.5H236C237.988 67.5026 239.894 68.2937 241.3 69.6996C242.706 71.1056 243.497 73.0117 243.5 75V211Z" fill="#263238"/>
<path d="M70 112.5H40C36.6856 112.503 33.5077 113.82 31.1641 116.164C28.8205 118.508 27.5026 121.686 27.5 125V171.67C27.5026 174.984 28.8205 178.162 31.1641 180.506C33.5077 182.85 36.6856 184.167 40 184.17H70C73.3144 184.167 76.4923 182.85 78.8359 180.506C81.1795 178.162 82.4974 174.984 82.5 171.67V125C82.4974 121.686 81.1795 118.508 78.8359 116.164C76.4923 113.82 73.3144 112.503 70 112.5V112.5ZM77.5 171.67C77.4974 173.658 76.7063 175.564 75.3004 176.97C73.8944 178.376 71.9883 179.167 70 179.17H40C38.0117 179.167 36.1056 178.376 34.6996 176.97C33.2937 175.564 32.5026 173.658 32.5 171.67V125C32.5026 123.012 33.2937 121.106 34.6996 119.7C36.1056 118.294 38.0117 117.503 40 117.5H70C71.9883 117.503 73.8944 118.294 75.3004 119.7C76.7063 121.106 77.4974 123.012 77.5 125V171.67Z" fill="#263238"/>
<path d="M226 119.58H100C99.337 119.58 98.7011 119.843 98.2322 120.312C97.7634 120.781 97.5 121.417 97.5 122.08C97.5 122.743 97.7634 123.379 98.2322 123.848C98.7011 124.317 99.337 124.58 100 124.58H226C226.663 124.58 227.299 124.317 227.768 123.848C228.237 123.379 228.5 122.743 228.5 122.08C228.5 121.417 228.237 120.781 227.768 120.312C227.299 119.843 226.663 119.58 226 119.58Z" fill="#263238"/>
<path d="M226 141.8H100C99.337 141.8 98.7011 142.063 98.2322 142.532C97.7634 143.001 97.5 143.637 97.5 144.3C97.5 144.963 97.7634 145.599 98.2322 146.068C98.7011 146.537 99.337 146.8 100 146.8H226C226.663 146.8 227.299 146.537 227.768 146.068C228.237 145.599 228.5 144.963 228.5 144.3C228.5 143.637 228.237 143.001 227.768 142.532C227.299 142.063 226.663 141.8 226 141.8Z" fill="#263238"/>
<path d="M226 164H100C99.337 164 98.7011 164.263 98.2322 164.732C97.7634 165.201 97.5 165.837 97.5 166.5C97.5 167.163 97.7634 167.799 98.2322 168.268C98.7011 168.737 99.337 169 100 169H226C226.663 169 227.299 168.737 227.768 168.268C228.237 167.799 228.5 167.163 228.5 166.5C228.5 165.837 228.237 165.201 227.768 164.732C227.299 164.263 226.663 164 226 164V164Z" fill="#263238"/>
<path d="M226 186.25H100C99.337 186.25 98.7011 186.513 98.2322 186.982C97.7634 187.451 97.5 188.087 97.5 188.75C97.5 189.413 97.7634 190.049 98.2322 190.518C98.7011 190.987 99.337 191.25 100 191.25H226C226.663 191.25 227.299 190.987 227.768 190.518C228.237 190.049 228.5 189.413 228.5 188.75C228.5 188.087 228.237 187.451 227.768 186.982C227.299 186.513 226.663 186.25 226 186.25Z" fill="#263238"/>
<path d="M128 42.5C126.297 42.5 124.632 43.005 123.217 43.951C121.801 44.8971 120.697 46.2418 120.045 47.8151C119.394 49.3884 119.223 51.1195 119.555 52.7897C119.888 54.4599 120.708 55.9941 121.912 57.1982C123.116 58.4023 124.65 59.2223 126.32 59.5546C127.99 59.8868 129.722 59.7163 131.295 59.0646C132.868 58.4129 134.213 57.3094 135.159 55.8935C136.105 54.4776 136.61 52.8129 136.61 51.11C136.607 48.8273 135.699 46.6388 134.085 45.0247C132.471 43.4106 130.283 42.5026 128 42.5V42.5ZM128 54.72C127.286 54.72 126.588 54.5083 125.994 54.1116C125.401 53.7149 124.938 53.1511 124.665 52.4915C124.392 51.8318 124.32 51.106 124.459 50.4057C124.599 49.7055 124.942 49.0622 125.447 48.5573C125.952 48.0525 126.595 47.7087 127.296 47.5694C127.996 47.4301 128.722 47.5016 129.381 47.7748C130.041 48.048 130.605 48.5107 131.002 49.1044C131.398 49.6981 131.61 50.396 131.61 51.11C131.61 52.0674 131.23 52.9856 130.553 53.6627C129.876 54.3397 128.957 54.72 128 54.72Z" fill="#263238"/>
<path d="M192.33 233.5H188.33V229.5C188.33 229.235 188.225 228.98 188.037 228.793C187.85 228.605 187.595 228.5 187.33 228.5C187.065 228.5 186.81 228.605 186.623 228.793C186.435 228.98 186.33 229.235 186.33 229.5V233.5H182.33C182.065 233.5 181.81 233.605 181.623 233.793C181.435 233.98 181.33 234.235 181.33 234.5C181.33 234.765 181.435 235.02 181.623 235.207C181.81 235.395 182.065 235.5 182.33 235.5H186.33V239.5C186.33 239.765 186.435 240.02 186.623 240.207C186.81 240.395 187.065 240.5 187.33 240.5C187.595 240.5 187.85 240.395 188.037 240.207C188.225 240.02 188.33 239.765 188.33 239.5V235.5H192.33C192.595 235.5 192.85 235.395 193.037 235.207C193.225 235.02 193.33 234.765 193.33 234.5C193.33 234.235 193.225 233.98 193.037 233.793C192.85 233.605 192.595 233.5 192.33 233.5Z" fill="#F2B73E"/>
<path d="M102.5 23H98.5V19C98.5 18.7348 98.3946 18.4804 98.2071 18.2929C98.0196 18.1054 97.7652 18 97.5 18C97.2348 18 96.9804 18.1054 96.7929 18.2929C96.6054 18.4804 96.5 18.7348 96.5 19V23H92.5C92.2348 23 91.9804 23.1054 91.7929 23.2929C91.6054 23.4804 91.5 23.7348 91.5 24C91.5 24.2652 91.6054 24.5196 91.7929 24.7071C91.9804 24.8946 92.2348 25 92.5 25H96.5V29C96.5 29.2652 96.6054 29.5196 96.7929 29.7071C96.9804 29.8946 97.2348 30 97.5 30C97.7652 30 98.0196 29.8946 98.2071 29.7071C98.3946 29.5196 98.5 29.2652 98.5 29V25H102.5C102.765 25 103.02 24.8946 103.207 24.7071C103.395 24.5196 103.5 24.2652 103.5 24C103.5 23.7348 103.395 23.4804 103.207 23.2929C103.02 23.1054 102.765 23 102.5 23Z" fill="#F2B73E"/>
<path d="M191.33 40C190.143 40 188.983 39.6481 187.997 38.9888C187.01 38.3295 186.241 37.3925 185.787 36.2961C185.333 35.1997 185.214 33.9933 185.445 32.8295C185.677 31.6656 186.248 30.5965 187.087 29.7574C187.926 28.9182 188.996 28.3468 190.159 28.1153C191.323 27.8838 192.53 28.0026 193.626 28.4567C194.722 28.9109 195.66 29.6799 196.319 30.6666C196.978 31.6533 197.33 32.8133 197.33 34C197.33 35.5913 196.698 37.1174 195.573 38.2426C194.447 39.3679 192.921 40 191.33 40ZM191.33 30C190.539 30 189.766 30.2346 189.108 30.6741C188.45 31.1137 187.937 31.7384 187.634 32.4693C187.332 33.2002 187.253 34.0044 187.407 34.7804C187.561 35.5563 187.942 36.269 188.502 36.8284C189.061 37.3878 189.774 37.7688 190.55 37.9231C191.326 38.0775 192.13 37.9983 192.861 37.6955C193.592 37.3928 194.216 36.8801 194.656 36.2223C195.095 35.5645 195.33 34.7911 195.33 34C195.33 32.9391 194.909 31.9217 194.158 31.1716C193.408 30.4214 192.391 30 191.33 30Z" fill="#14A3B4"/>
<path d="M20 240.5C18.8133 240.5 17.6533 240.148 16.6666 239.489C15.6799 238.83 14.9109 237.892 14.4567 236.796C14.0026 235.7 13.8838 234.493 14.1153 233.329C14.3468 232.166 14.9182 231.096 15.7574 230.257C16.5965 229.418 17.6656 228.847 18.8295 228.615C19.9933 228.384 21.1997 228.503 22.2961 228.957C23.3925 229.411 24.3295 230.18 24.9888 231.167C25.6481 232.153 26 233.313 26 234.5C26 236.091 25.3679 237.617 24.2426 238.743C23.1174 239.868 21.5913 240.5 20 240.5V240.5ZM20 230.5C19.2089 230.5 18.4355 230.735 17.7777 231.174C17.1199 231.614 16.6072 232.238 16.3045 232.969C16.0017 233.7 15.9225 234.504 16.0769 235.28C16.2312 236.056 16.6122 236.769 17.1716 237.328C17.731 237.888 18.4437 238.269 19.2196 238.423C19.9956 238.577 20.7998 238.498 21.5307 238.196C22.2616 237.893 22.8864 237.38 23.3259 236.722C23.7654 236.064 24 235.291 24 234.5C24 233.439 23.5786 232.422 22.8284 231.672C22.0783 230.921 21.0609 230.5 20 230.5Z" fill="#F2B73E"/>
<path d="M114.5 235H111.91L113.74 233.17C113.904 232.979 113.989 232.733 113.98 232.481C113.97 232.229 113.866 231.991 113.688 231.812C113.509 231.634 113.271 231.53 113.019 231.52C112.767 231.511 112.521 231.596 112.33 231.76L110.5 233.59V231C110.5 230.735 110.395 230.48 110.207 230.293C110.02 230.105 109.765 230 109.5 230C109.235 230 108.98 230.105 108.793 230.293C108.605 230.48 108.5 230.735 108.5 231V233.59L106.67 231.76C106.479 231.596 106.233 231.511 105.981 231.52C105.729 231.53 105.491 231.634 105.312 231.812C105.134 231.991 105.03 232.229 105.02 232.481C105.011 232.733 105.096 232.979 105.26 233.17L107.09 235H104.5C104.235 235 103.98 235.105 103.793 235.293C103.605 235.48 103.5 235.735 103.5 236C103.5 236.265 103.605 236.52 103.793 236.707C103.98 236.895 104.235 237 104.5 237H107.09L105.26 238.83C105.096 239.021 105.011 239.267 105.02 239.519C105.03 239.771 105.134 240.009 105.312 240.188C105.491 240.366 105.729 240.47 105.981 240.48C106.233 240.489 106.479 240.404 106.67 240.24L108.5 238.41V241C108.5 241.265 108.605 241.52 108.793 241.707C108.98 241.895 109.235 242 109.5 242C109.765 242 110.02 241.895 110.207 241.707C110.395 241.52 110.5 241.265 110.5 241V238.41L112.33 240.24C112.521 240.404 112.767 240.489 113.019 240.48C113.271 240.47 113.509 240.366 113.688 240.188C113.866 240.009 113.97 239.771 113.98 239.519C113.989 239.267 113.904 239.021 113.74 238.83L111.91 237H114.5C114.765 237 115.02 236.895 115.207 236.707C115.395 236.52 115.5 236.265 115.5 236C115.5 235.735 115.395 235.48 115.207 235.293C115.02 235.105 114.765 235 114.5 235Z" fill="#14A3B4"/>
</svg>
