<svg width="64" height="64" viewBox="0 0 64 64" fill="none" xmlns="http://www.w3.org/2000/svg">
<path d="M36 57H28V59H36V57Z" fill="#14A3B4"/>
<path d="M58 11H52V6C52 3.243 49.757 1 47 1H17C14.243 1 12 3.243 12 6V31H6C3.243 31 1 33.243 1 36V56.805L10.287 51H12V58C12 60.757 14.243 63 17 63H47C49.757 63 52 60.757 52 58V31H53.713L63 36.805V16C63 13.243 60.757 11 58 11ZM17 3H47C48.654 3 50 4.346 50 6V7H14V6C14 4.346 15.346 3 17 3ZM9.713 49L3 53.195V36C3 34.346 4.346 33 6 33H28C29.654 33 31 34.346 31 36V46C31 47.654 29.654 49 28 49H9.713ZM47 61H17C15.346 61 14 59.654 14 58V55H50V58C50 59.654 48.654 61 47 61ZM50 53H14V51H28C30.757 51 33 48.757 33 46V36C33 33.243 30.757 31 28 31H14V9H50V11H36C33.243 11 31 13.243 31 16V26C31 28.757 33.243 31 36 31H50V53ZM61 33.195L54.287 29H52H50H36C34.346 29 33 27.654 33 26V16C33 14.346 34.346 13 36 13H58C59.654 13 61 14.346 61 16V33.195Z" fill="#14A3B4"/>
<path d="M47 18C45.346 18 44 19.346 44 21C44 22.654 45.346 24 47 24C48.654 24 50 22.654 50 21C50 19.346 48.654 18 47 18ZM47 22C46.449 22 46 21.551 46 21C46 20.449 46.449 20 47 20C47.551 20 48 20.449 48 21C48 21.551 47.551 22 47 22Z" fill="#14A3B4"/>
<path d="M55 18C53.346 18 52 19.346 52 21C52 22.654 53.346 24 55 24C56.654 24 58 22.654 58 21C58 19.346 56.654 18 55 18ZM55 22C54.449 22 54 21.551 54 21C54 20.449 54.449 20 55 20C55.551 20 56 20.449 56 21C56 21.551 55.551 22 55 22Z" fill="#14A3B4"/>
<path d="M39 18C37.346 18 36 19.346 36 21C36 22.654 37.346 24 39 24C40.654 24 42 22.654 42 21C42 19.346 40.654 18 39 18ZM39 22C38.449 22 38 21.551 38 21C38 20.449 38.449 20 39 20C39.551 20 40 20.449 40 21C40 21.551 39.551 22 39 22Z" fill="#14A3B4"/>
<path d="M23 41.184V41C23 37.691 20.309 35 17 35C13.691 35 11 37.691 11 41V41.184C9.839 41.598 9 42.698 9 44C9 45.654 10.346 47 12 47H15V41H13C13 38.794 14.794 37 17 37C19.206 37 21 38.794 21 41H19V47H22C23.654 47 25 45.654 25 44C25 42.698 24.161 41.598 23 41.184ZM13 45H12C11.449 45 11 44.552 11 44C11 43.448 11.449 43 12 43H13V45ZM22 45H21V43H22C22.551 43 23 43.448 23 44C23 44.552 22.551 45 22 45Z" fill="#14A3B4"/>
<path d="M37 40H35V42H37V40Z" fill="#14A3B4"/>
<path d="M41 40H39V42H41V40Z" fill="#14A3B4"/>
<path d="M45 40H43V42H45V40Z" fill="#14A3B4"/>
<path d="M21 20H19V22H21V20Z" fill="#14A3B4"/>
<path d="M25 20H23V22H25V20Z" fill="#14A3B4"/>
<path d="M29 20H27V22H29V20Z" fill="#14A3B4"/>
</svg>
