<svg width="30" height="31" viewBox="0 0 30 31" fill="none" xmlns="http://www.w3.org/2000/svg">
<g clip-path="url(#clip0)">
<path d="M30 4.69099C29.9983 3.76222 29.7214 2.85478 29.2043 2.08324C28.6873 1.3117 27.9532 0.710655 27.0948 0.35598C26.2364 0.00130501 25.2922 -0.0910949 24.3813 0.0904455C23.4705 0.271986 22.6338 0.719327 21.977 1.37599L3.066 20.363C2.44875 20.981 1.98381 21.7342 1.708 22.563L1.69 22.617L0 30.05L7.453 28.381L7.508 28.363C8.33855 28.086 9.09315 27.6193 9.712 27L28.626 8.01499C29.0635 7.57936 29.4102 7.06125 29.6461 6.49067C29.8819 5.9201 30.0022 5.30839 30 4.69099V4.69099ZM4.133 26.721L3.343 25.93L3.914 23.42L6.65 26.157L4.133 26.721ZM26.965 6.35799L8.6 24.794L5.278 21.467L17.856 8.83799L19.771 10.753L21.43 9.09499L19.511 7.17599L21.3 5.38499L23.222 7.30699L24.881 5.64799L22.951 3.72299L23.638 3.03299C23.8554 2.8103 24.1148 2.63297 24.4012 2.51126C24.6876 2.38955 24.9953 2.32589 25.3065 2.32397C25.6177 2.32204 25.9262 2.38189 26.2141 2.50005C26.502 2.61821 26.7636 2.79232 26.9837 3.01231C27.2038 3.23229 27.3781 3.49377 27.4964 3.78159C27.6147 4.06941 27.6748 4.37786 27.673 4.68905C27.6713 5.00024 27.6078 5.308 27.4863 5.59448C27.3647 5.88096 27.1876 6.14048 26.965 6.35799V6.35799ZM12.341 27.679H30V30.025H10L12.341 27.679Z" fill="url(#paint0_linear)"/>
</g>
<defs>
<linearGradient id="paint0_linear" x1="15" y1="-0.000213623" x2="15" y2="30.05" gradientUnits="userSpaceOnUse">
<stop stop-color="#0842D8"/>
<stop offset="1" stop-color="#009EFD"/>
</linearGradient>
<clipPath id="clip0">
<rect width="30" height="30.051" fill="white"/>
</clipPath>
</defs>
</svg>
