<svg height="512" viewBox="0 0 64 64" width="512" xmlns="http://www.w3.org/2000/svg"><g id="Cashier"><path d="m59 2h-10a5.006 5.006 0 0 0 -5 5v1h-3a5.006 5.006 0 0 0 -5 5v11h-1a1 1 0 0 0 -1 1v3h-8v-2h3a1 1 0 0 0 1-1v-8a1 1 0 0 0 -1-1h-10.522a9.05 9.05 0 1 0 -6.478 3.941v5.059a1 1 0 0 0 1 1h3v2h-3a3 3 0 0 0 -3 3v17.764l-1.895 3.789a1 1 0 0 0 -.105.447v8a1 1 0 0 0 1 1h46a1 1 0 0 0 1-1v-8a1 1 0 0 0 -.1-.447l-1.9-3.789v-17.764a3 3 0 0 0 -2-2.816v-3.184a1 1 0 0 0 -1-1h-3v-4h5a5.006 5.006 0 0 0 5-5v-7h3a1 1 0 0 0 1-1v-2a3 3 0 0 0 -3-3zm-55 9a7 7 0 1 1 7 7 7.008 7.008 0 0 1 -7-7zm10 8.475a9 9 0 0 0 2.644-1.475h11.356v6h-14zm4 6.525h6v2h-6zm-6 5a1 1 0 0 1 1-1h38a1 1 0 0 1 1 1v17h-40zm-.382 19h40.764l1 2h-42.764zm-1.618 10v-6h44v6zm40-32h-14v-2h14zm-12-4v-11a3 3 0 0 1 3-3h5.184a2.966 2.966 0 0 0 -.184 1v13zm10-6v-7a1 1 0 0 1 2 0v7zm8-3a3 3 0 0 1 -3 3h-1v-7a3 3 0 0 0 -3-3h-3v-1a3 3 0 0 1 3-3h7.184a2.966 2.966 0 0 0 -.184 1zm4-9h-2v-1a1 1 0 0 1 2 0z"/><circle cx="8" cy="9" r="2"/><circle cx="14" cy="13" r="2"/><path d="m5.169 10h11.662v2h-11.662z" transform="matrix(.514 -.857 .857 .514 -4.092 14.773)"/><path d="m25 21h2v2h-2z"/><path d="m19 32h-4a1 1 0 0 0 -1 1v4a1 1 0 0 0 1 1h4a1 1 0 0 0 1-1v-4a1 1 0 0 0 -1-1zm-1 4h-2v-2h2z"/><path d="m19 40h-4a1 1 0 0 0 -1 1v4a1 1 0 0 0 1 1h4a1 1 0 0 0 1-1v-4a1 1 0 0 0 -1-1zm-1 4h-2v-2h2z"/><path d="m27 40h-4a1 1 0 0 0 -1 1v4a1 1 0 0 0 1 1h4a1 1 0 0 0 1-1v-4a1 1 0 0 0 -1-1zm-1 4h-2v-2h2z"/><path d="m27 32h-4a1 1 0 0 0 -1 1v4a1 1 0 0 0 1 1h4a1 1 0 0 0 1-1v-4a1 1 0 0 0 -1-1zm-1 4h-2v-2h2z"/><path d="m35 40h-4a1 1 0 0 0 -1 1v4a1 1 0 0 0 1 1h4a1 1 0 0 0 1-1v-4a1 1 0 0 0 -1-1zm-1 4h-2v-2h2z"/><path d="m35 32h-4a1 1 0 0 0 -1 1v4a1 1 0 0 0 1 1h4a1 1 0 0 0 1-1v-4a1 1 0 0 0 -1-1zm-1 4h-2v-2h2z"/><path d="m38 32h12v2h-12z"/><path d="m38 36h12v2h-12z"/><path d="m38 40h12v2h-12z"/><path d="m38 44h12v2h-12z"/><path d="m29 56h6v2h-6z"/></g></svg>