<svg width="1000" height="1000" viewBox="0 0 1000 1000" fill="none" xmlns="http://www.w3.org/2000/svg">
<path d="M818.039 180.784H182.215C165.715 180.784 152.215 194.284 152.215 210.784V572.244H848.039V210.784C848.039 194.284 834.539 180.784 818.039 180.784ZM355.484 218.681H374.627C381.502 218.681 387.127 224.306 387.127 231.181C387.127 238.056 381.502 243.681 374.627 243.681H355.484C348.609 243.681 342.984 238.056 342.984 231.181C342.984 224.306 348.609 218.681 355.484 218.681ZM427.752 312.294C434.627 312.294 440.252 317.919 440.252 324.794C440.252 331.669 434.627 337.294 427.752 337.294H314.609C307.734 337.294 302.109 331.669 302.109 324.794C302.109 317.919 307.734 312.294 314.609 312.294H427.752ZM371.18 378.869C371.18 385.744 365.555 391.369 358.68 391.369H314.608C307.733 391.369 302.108 385.744 302.108 378.869C302.108 371.994 307.733 366.369 314.608 366.369H358.68C365.555 366.369 371.18 371.994 371.18 378.869ZM280.484 218.681H299.627C306.502 218.681 312.127 224.306 312.127 231.181C312.127 238.056 306.502 243.681 299.627 243.681H280.484C273.609 243.681 267.984 238.056 267.984 231.181C267.984 224.306 273.609 218.681 280.484 218.681ZM269.109 324.794C269.109 331.669 263.484 337.294 256.609 337.294H206.609C199.734 337.294 194.109 331.669 194.109 324.794C194.109 317.919 199.734 312.294 206.609 312.294H256.609C263.484 312.294 269.109 317.919 269.109 324.794ZM269.109 378.869C269.109 385.744 263.484 391.369 256.609 391.369H239.752C232.877 391.369 227.252 385.744 227.252 378.869C227.252 371.994 232.877 366.369 239.752 366.369H256.609C263.484 366.369 269.109 371.994 269.109 378.869ZM205.484 218.681H224.627C231.502 218.681 237.127 224.306 237.127 231.181C237.127 238.056 231.502 243.681 224.627 243.681H205.484C198.609 243.681 192.984 238.056 192.984 231.181C192.984 224.306 198.609 218.681 205.484 218.681ZM194.109 432.945C194.109 426.07 199.734 420.445 206.609 420.445H324.145C331.02 420.445 336.645 426.07 336.645 432.945C336.645 439.82 331.02 445.445 324.145 445.445H206.609C199.734 445.445 194.109 439.82 194.109 432.945ZM256.609 499.52H239.752C232.877 499.52 227.252 493.895 227.252 487.02C227.252 480.145 232.877 474.52 239.752 474.52H256.609C263.484 474.52 269.109 480.145 269.109 487.02C269.109 493.895 263.484 499.52 256.609 499.52ZM358.68 499.52H314.608C307.733 499.52 302.108 493.895 302.108 487.02C302.108 480.145 307.733 474.52 314.608 474.52H358.68C365.555 474.52 371.18 480.145 371.18 487.02C371.18 493.895 365.555 499.52 358.68 499.52ZM501.752 499.52H420.68C413.805 499.52 408.18 493.895 408.18 487.02C408.18 480.145 413.805 474.52 420.68 474.52H501.751C508.626 474.52 514.251 480.145 514.251 487.02C514.251 493.895 508.627 499.52 501.752 499.52ZM501.752 445.445H383.68C376.805 445.445 371.18 439.82 371.18 432.945C371.18 426.07 376.805 420.445 383.68 420.445H501.751C508.626 420.445 514.251 426.07 514.251 432.945C514.251 439.82 508.627 445.445 501.752 445.445ZM501.752 391.369H418.216C411.341 391.369 405.716 385.744 405.716 378.869C405.716 371.994 411.341 366.369 418.216 366.369H501.752C508.627 366.369 514.252 371.994 514.252 378.869C514.252 385.744 508.627 391.369 501.752 391.369ZM625.009 442.596C629.87 447.457 629.87 455.412 625.009 460.274C620.148 465.135 612.193 465.135 607.331 460.274L560.958 413.9C556.097 409.039 556.097 401.084 560.958 396.222L607.332 349.848C612.193 344.987 620.148 344.987 625.01 349.848C629.871 354.709 629.871 362.664 625.01 367.526L587.475 405.061L625.009 442.596ZM715.198 332.878L672.31 484.067C670.434 490.681 663.487 494.557 656.873 492.681C650.259 490.805 646.383 483.858 648.259 477.244L691.147 326.055C693.023 319.441 699.97 315.565 706.584 317.441C713.198 319.317 717.074 326.264 715.198 332.878ZM802.499 413.9L756.126 460.274C751.265 465.135 743.31 465.135 738.448 460.274C733.587 455.413 733.587 447.458 738.448 442.596L775.983 405.061L738.448 367.526C733.587 362.665 733.587 354.71 738.448 349.848C743.31 344.987 751.264 344.987 756.126 349.848L802.499 396.222C807.36 401.083 807.36 409.038 802.499 413.9Z" fill="#14A3B4"/>
<path d="M610.607 762.063H389.646C379.449 762.063 371.107 770.406 371.107 780.602V819.216H629.146V780.602C629.146 770.406 620.804 762.063 610.607 762.063Z" fill="#14A3B4"/>
<path d="M501.628 684.293C511.242 683.609 518.483 675.26 517.799 665.645C517.116 656.029 508.767 648.788 499.153 649.472C489.538 650.155 482.297 658.504 482.981 668.12C483.664 677.735 492.013 684.976 501.628 684.293Z" fill="#14A3B4"/>
<path d="M151.961 598.519L152.19 661.003C152.251 677.503 165.8 690.953 182.3 690.893L285.211 690.516L285.317 719.311C285.354 729.507 293.728 737.819 303.924 737.782L696.843 736.343C707.039 736.306 715.352 727.933 715.314 717.736L715.209 688.941L818.12 688.564C834.62 688.504 848.07 674.954 848.01 658.454L847.781 595.97L151.961 598.519ZM543.106 670.086C543.106 673.791 540.102 676.794 536.398 676.794C536.042 676.794 535.696 676.758 535.355 676.705C534.49 679.791 533.226 682.709 531.625 685.404C531.86 685.584 532.089 685.774 532.304 685.989C534.924 688.609 534.924 692.856 532.304 695.476L528.189 699.591C525.569 702.211 521.322 702.211 518.702 699.591C518.416 699.305 518.168 698.997 517.944 698.677C515.418 700.075 512.709 701.181 509.86 701.949C509.948 702.382 509.994 702.829 509.994 703.288C509.994 706.993 506.99 709.996 503.286 709.996H497.466C493.761 709.996 490.758 706.992 490.758 703.288C490.758 702.829 490.805 702.382 490.892 701.949C487.846 701.128 484.959 699.922 482.286 698.384C482.012 698.835 481.688 699.264 481.298 699.654C478.678 702.274 474.431 702.274 471.811 699.654L467.696 695.539C465.076 692.919 465.076 688.672 467.696 686.052C468.077 685.671 468.496 685.352 468.936 685.081C467.398 682.431 466.186 679.568 465.354 676.547C464.787 676.703 464.192 676.793 463.575 676.793C459.87 676.793 456.867 673.79 456.867 670.085V664.265C456.867 660.56 459.871 657.557 463.575 657.557C464.137 657.557 464.68 657.634 465.202 657.764C465.985 654.732 467.152 651.854 468.645 649.183C468.132 648.892 467.646 648.534 467.209 648.096C464.589 645.476 464.589 641.229 467.209 638.609L471.324 634.494C473.944 631.874 478.191 631.874 480.811 634.494C481.177 634.861 481.487 635.261 481.751 635.683C484.573 633.995 487.642 632.679 490.892 631.802C490.804 631.369 490.758 630.922 490.758 630.463C490.758 626.758 493.762 623.755 497.466 623.755H503.286C506.991 623.755 509.994 626.759 509.994 630.463C509.994 630.921 509.947 631.369 509.86 631.802C512.917 632.627 515.815 633.838 518.496 635.384C518.704 635.096 518.93 634.817 519.19 634.557C521.81 631.937 526.057 631.937 528.677 634.557L532.792 638.672C535.412 641.292 535.412 645.539 532.792 648.159C532.524 648.427 532.235 648.661 531.936 648.875C533.488 651.59 534.699 654.525 535.512 657.622C535.803 657.583 536.098 657.557 536.399 657.557C540.104 657.557 543.107 660.56 543.107 664.265V670.086H543.106Z" fill="#14A3B4"/>
</svg>
