<svg width="95" height="95" viewBox="0 0 95 95" fill="none" xmlns="http://www.w3.org/2000/svg">
<g clip-path="url(#clip0)">
<path d="M47.137 94.274C73.17 94.274 94.274 73.17 94.274 47.137C94.274 21.104 73.17 0 47.137 0C21.104 0 0 21.104 0 47.137C0 73.17 21.104 94.274 47.137 94.274Z" fill="#14A3B4"/>
<path d="M92.801 14.878H1.47302V82.785H84.696C85.7605 82.7879 86.8151 82.5804 87.7992 82.1743C88.7832 81.7683 89.6773 81.1718 90.4301 80.419C91.1828 79.6663 91.7793 78.7722 92.1854 77.7882C92.5914 76.8041 92.7989 75.7495 92.796 74.685L92.801 14.878Z" fill="#E0E4E8"/>
<path d="M84.552 84.258H1.473C1.27649 84.2698 1.0797 84.2398 0.895635 84.1699C0.71157 84.1001 0.544415 83.992 0.405205 83.8528C0.265996 83.7136 0.157899 83.5464 0.088051 83.3624C0.0182034 83.1783 -0.0118057 82.9815 4.75021e-06 82.785V14.878C-0.0118057 14.6815 0.0182034 14.4847 0.088051 14.3006C0.157899 14.1165 0.265996 13.9494 0.405205 13.8102C0.544415 13.671 0.71157 13.5629 0.895635 13.493C1.0797 13.4232 1.27649 13.3932 1.473 13.405H92.8C92.9965 13.3932 93.1933 13.4232 93.3774 13.493C93.5614 13.5629 93.7286 13.671 93.8678 13.8102C94.007 13.9494 94.1151 14.1165 94.185 14.3006C94.2548 14.4847 94.2848 14.6815 94.273 14.878V74.536C94.2742 75.8129 94.0236 77.0776 93.5355 78.2576C93.0474 79.4376 92.3314 80.5098 91.4285 81.4128C90.5256 82.3157 89.4535 83.0318 88.2736 83.5201C87.0936 84.0083 85.829 84.259 84.552 84.258ZM2.946 81.312H84.553C86.3287 81.3248 88.0374 80.6352 89.3067 79.3934C90.576 78.1517 91.3029 76.4585 91.329 74.683V16.351H2.946V81.312Z" fill="#183651"/>
<path d="M7.36499 76.893V20.77H86.909V74.536C86.91 74.8391 86.8485 75.1392 86.7285 75.4175C86.6084 75.6958 86.4324 75.9464 86.2113 76.1538C85.9901 76.3611 85.7287 76.5207 85.4433 76.6226C85.1578 76.7245 84.8544 76.7665 84.552 76.746H7.36499V76.893Z" fill="white"/>
<path d="M84.994 5.89203C82.9277 5.90566 80.9498 6.73255 79.4887 8.19371C78.0275 9.65486 77.2006 11.6327 77.187 13.699V73.799C77.187 71.7285 78.0095 69.7427 79.4736 68.2786C80.9377 66.8145 82.9235 65.992 84.994 65.992C87.0646 65.992 89.0503 66.8145 90.5144 68.2786C91.9785 69.7427 92.801 71.7285 92.801 73.799V13.699C92.7874 11.6327 91.9605 9.65486 90.4993 8.19371C89.0382 6.73255 87.0604 5.90566 84.994 5.89203Z" fill="#14A3B4"/>
<path d="M92.801 75.272C92.6045 75.2838 92.4077 75.2538 92.2236 75.184C92.0396 75.1141 91.8724 75.006 91.7332 74.8668C91.594 74.7276 91.4859 74.5604 91.416 74.3764C91.3462 74.1923 91.3162 73.9955 91.328 73.799C91.328 72.1191 90.6607 70.5081 89.4728 69.3202C88.285 68.1323 86.6739 67.465 84.994 67.465C83.3141 67.465 81.7031 68.1323 80.5152 69.3202C79.3273 70.5081 78.66 72.1191 78.66 73.799C78.66 74.1897 78.5048 74.5643 78.2286 74.8406C77.9523 75.1168 77.5777 75.272 77.187 75.272C76.7963 75.272 76.4217 75.1168 76.1454 74.8406C75.8692 74.5643 75.714 74.1897 75.714 73.799V13.699C75.714 11.2378 76.6917 8.87739 78.432 7.13706C80.1724 5.39672 82.5328 4.41901 84.994 4.41901C87.4552 4.41901 89.8156 5.39672 91.556 7.13706C93.2963 8.87739 94.274 11.2378 94.274 13.699V73.799C94.2858 73.9955 94.2558 74.1923 94.1859 74.3764C94.1161 74.5604 94.008 74.7276 93.8688 74.8668C93.7296 75.006 93.5625 75.1141 93.3784 75.184C93.1943 75.2538 92.9975 75.2838 92.801 75.272ZM84.994 64.519C86.1631 64.4929 87.3255 64.7006 88.4132 65.1299C89.5009 65.5592 90.4919 66.2015 91.328 67.019V13.699C91.328 12.0191 90.6607 10.408 89.4728 9.22019C88.285 8.03234 86.6739 7.36501 84.994 7.36501C83.3141 7.36501 81.7031 8.03234 80.5152 9.22019C79.3273 10.408 78.66 12.0191 78.66 13.699V67.023C80.3859 65.4287 82.6445 64.5358 84.994 64.519Z" fill="#183651"/>
<path d="M64.961 25.631H14.288V32.702H64.961V25.631Z" fill="white"/>
<path d="M65.108 34.176H14.286C14.0895 34.1878 13.8927 34.1578 13.7086 34.088C13.5246 34.0181 13.3574 33.91 13.2182 33.7708C13.079 33.6316 12.9709 33.4645 12.901 33.2804C12.8312 33.0963 12.8012 32.8995 12.813 32.703V25.632C12.801 25.4354 12.8309 25.2385 12.9007 25.0543C12.9705 24.8702 13.0786 24.7029 13.2178 24.5635C13.357 24.4242 13.5242 24.316 13.7084 24.2461C13.8925 24.1762 14.0894 24.1462 14.286 24.158H64.959C65.1555 24.1462 65.3523 24.1762 65.5364 24.2461C65.7204 24.3159 65.8876 24.424 66.0268 24.5632C66.166 24.7024 66.2741 24.8696 66.3439 25.0537C66.4138 25.2377 66.4438 25.4345 66.432 25.631V32.702C66.4606 32.8893 66.4472 33.0806 66.393 33.2622C66.3388 33.4437 66.245 33.611 66.1184 33.752C65.9918 33.8929 65.8355 34.0041 65.6608 34.0774C65.4861 34.1507 65.2973 34.1844 65.108 34.176ZM15.761 31.23H63.486V27.106H15.761V31.23Z" fill="#183651"/>
<path d="M21.359 40.803H14.288V71.148H21.359V40.803Z" fill="white"/>
<path d="M21.507 72.616H14.436C14.2395 72.6278 14.0427 72.5978 13.8586 72.528C13.6746 72.4581 13.5074 72.35 13.3682 72.2108C13.229 72.0716 13.1209 71.9045 13.0511 71.7204C12.9812 71.5363 12.9512 71.3395 12.963 71.143V40.803C12.9724 40.4153 13.1306 40.0461 13.4048 39.7719C13.6791 39.4976 14.0483 39.3394 14.436 39.33H21.507C21.7035 39.3182 21.9003 39.3482 22.0844 39.4181C22.2685 39.4879 22.4356 39.596 22.5748 39.7352C22.714 39.8744 22.8221 40.0416 22.892 40.2257C22.9618 40.4097 22.9918 40.6065 22.98 40.803V71.148C22.9529 71.5293 22.7889 71.8878 22.5182 72.1576C22.2475 72.4274 21.8883 72.5902 21.507 72.616ZM15.762 69.67H19.886V42.27H15.762V69.67Z" fill="#183651"/>
<path d="M29.756 52.145L26.515 46.545L29.756 40.8H36.385L39.626 46.545L36.385 52.145H29.756Z" fill="white"/>
<path d="M36.384 53.619H29.753C29.4874 53.6205 29.2258 53.5535 28.9936 53.4246C28.7613 53.2957 28.5662 53.1092 28.427 52.883L25.186 47.138C25.0419 46.9194 24.965 46.6633 24.965 46.4015C24.965 46.1397 25.0419 45.8836 25.186 45.665L28.427 39.92C28.5662 39.6938 28.7613 39.5073 28.9936 39.3784C29.2258 39.2494 29.4874 39.1825 29.753 39.184H36.382C36.6476 39.1825 36.9091 39.2494 37.1413 39.3784C37.3736 39.5073 37.5687 39.6938 37.708 39.92L40.949 45.665C41.0931 45.8836 41.1699 46.1397 41.1699 46.4015C41.1699 46.6633 41.0931 46.9194 40.949 47.138L37.708 52.883C37.5689 53.1089 37.3741 53.2952 37.1422 53.4241C36.9104 53.553 36.6492 53.6201 36.384 53.619ZM30.639 50.673H35.5L37.857 46.401L35.5 42.129H30.639L28.139 46.401L30.639 50.673Z" fill="#183651"/>
<path d="M65.108 42.276H45.075C44.8816 42.276 44.69 42.2379 44.5113 42.1638C44.3326 42.0898 44.1702 41.9813 44.0334 41.8445C43.8966 41.7078 43.7881 41.5454 43.7141 41.3667C43.6401 41.1879 43.602 40.9964 43.602 40.803C43.602 40.6095 43.6401 40.418 43.7141 40.2393C43.7881 40.0606 43.8966 39.8982 44.0334 39.7614C44.1702 39.6246 44.3326 39.5161 44.5113 39.4421C44.69 39.3681 44.8816 39.33 45.075 39.33H65.108C65.3045 39.3181 65.5013 39.3482 65.6854 39.418C65.8694 39.4879 66.0366 39.596 66.1758 39.7352C66.315 39.8744 66.4231 40.0415 66.4929 40.2256C66.5628 40.4097 66.5928 40.6064 66.581 40.803C66.5802 41.1934 66.4248 41.5676 66.1487 41.8437C65.8726 42.1197 65.4984 42.2752 65.108 42.276Z" fill="#183651"/>
<path d="M65.108 52.44H45.075C44.6843 52.44 44.3097 52.2848 44.0334 52.0086C43.7572 51.7323 43.602 51.3577 43.602 50.967C43.602 50.5764 43.7572 50.2017 44.0334 49.9255C44.3097 49.6492 44.6843 49.494 45.075 49.494H65.108C65.3045 49.4822 65.5013 49.5122 65.6854 49.5821C65.8694 49.6519 66.0366 49.76 66.1758 49.8992C66.315 50.0384 66.4231 50.2056 66.4929 50.3897C66.5628 50.5737 66.5928 50.7705 66.581 50.967C66.5802 51.3574 66.4248 51.7317 66.1487 52.0077C65.8726 52.2838 65.4984 52.4392 65.108 52.44Z" fill="#183651"/>
<path d="M54.502 72.621H28.135C27.7443 72.621 27.3697 72.4658 27.0934 72.1895C26.8172 71.9133 26.662 71.5386 26.662 71.148C26.662 70.7573 26.8172 70.3827 27.0934 70.1064C27.3697 69.8302 27.7443 69.675 28.135 69.675H54.502C54.6985 69.6632 54.8953 69.6932 55.0793 69.763C55.2634 69.8329 55.4306 69.941 55.5698 70.0802C55.709 70.2194 55.8171 70.3866 55.8869 70.5706C55.9568 70.7547 55.9868 70.9515 55.975 71.148C55.9742 71.5384 55.8187 71.9126 55.5427 72.1887C55.2666 72.4648 54.8924 72.6202 54.502 72.621Z" fill="#183651"/>
<path d="M65.108 72.621C64.9115 72.6328 64.7146 72.6028 64.5306 72.533C64.3465 72.4631 64.1794 72.355 64.0402 72.2158C63.901 72.0766 63.7928 71.9094 63.723 71.7254C63.6531 71.5413 63.6231 71.3445 63.635 71.148V60.248C63.635 59.8574 63.7901 59.4827 64.0664 59.2065C64.3426 58.9302 64.7173 58.775 65.108 58.775C65.4986 58.775 65.8733 58.9302 66.1495 59.2065C66.4258 59.4827 66.581 59.8574 66.581 60.248V71.148C66.555 71.5301 66.3915 71.8899 66.1207 72.1607C65.8499 72.4315 65.4901 72.595 65.108 72.621Z" fill="#183651"/>
<path d="M29.608 62.162H26.662V65.108H29.608V62.162Z" fill="#183651"/>
<path d="M35.5 62.162H32.554V65.108H35.5V62.162Z" fill="#183651"/>
<path d="M41.392 62.162H38.446V65.108H41.392V62.162Z" fill="#183651"/>
<path d="M47.284 62.162H44.338V65.108H47.284V62.162Z" fill="#183651"/>
<path d="M53.177 62.162H50.231V65.108H53.177V62.162Z" fill="#183651"/>
</g>
<defs>
<clipPath id="clip0">
<rect width="95" height="95" fill="white"/>
</clipPath>
</defs>
</svg>
