<svg width="30" height="30" viewBox="0 0 30 30" fill="none" xmlns="http://www.w3.org/2000/svg">
<g clip-path="url(#clip0)">
<path d="M11.715 21.087H15.7V23.43H11.715V21.087ZM7.322 20.794C7.03245 20.794 6.7494 20.8799 6.50865 21.0407C6.26789 21.2016 6.08025 21.4302 5.96944 21.6978C5.85863 21.9653 5.82964 22.2596 5.88613 22.5436C5.94262 22.8276 6.08205 23.0885 6.2868 23.2932C6.49154 23.498 6.7524 23.6374 7.03639 23.6939C7.32038 23.7504 7.61474 23.7214 7.88225 23.6106C8.14976 23.4998 8.3784 23.3121 8.53927 23.0714C8.70014 22.8306 8.786 22.5476 8.786 22.258C8.78574 21.8699 8.63138 21.4978 8.35685 21.2234C8.08233 20.9491 7.7101 20.795 7.322 20.795V20.794ZM23.548 13.647H11.715V15.991H23.548V13.647ZM7.322 13.355C7.03245 13.355 6.7494 13.4409 6.50865 13.6017C6.26789 13.7626 6.08025 13.9912 5.96944 14.2588C5.85863 14.5263 5.82964 14.8206 5.88613 15.1046C5.94262 15.3886 6.08205 15.6495 6.2868 15.8542C6.49154 16.059 6.7524 16.1984 7.03639 16.2549C7.32038 16.3114 7.61474 16.2824 7.88225 16.1716C8.14976 16.0608 8.3784 15.8731 8.53927 15.6324C8.70014 15.3916 8.786 15.1086 8.786 14.819C8.786 14.4307 8.63176 14.0584 8.3572 13.7838C8.08265 13.5092 7.71028 13.355 7.322 13.355ZM23.548 6.61901H11.715V8.96201H23.548V6.61901ZM7.322 6.32601C7.03217 6.32581 6.74878 6.41159 6.50771 6.57249C6.26664 6.73339 6.07871 6.96218 5.96771 7.22991C5.8567 7.49765 5.82761 7.79229 5.8841 8.07657C5.9406 8.36084 6.08014 8.62197 6.28509 8.82692C6.49003 9.03186 6.75116 9.17141 7.03544 9.22791C7.31971 9.2844 7.61436 9.25531 7.88209 9.1443C8.14983 9.03329 8.37862 8.84536 8.53952 8.60429C8.70042 8.36322 8.7862 8.07984 8.786 7.79001C8.786 7.40173 8.63176 7.02936 8.3572 6.7548C8.08265 6.48025 7.71028 6.32601 7.322 6.32601ZM2.343 26.477V3.51401C2.34326 3.20343 2.46669 2.90563 2.68621 2.68592C2.90573 2.46622 3.20342 2.34254 3.514 2.34201H26.477C26.7876 2.34254 27.0853 2.46622 27.3048 2.68592C27.5243 2.90563 27.6477 3.20343 27.648 3.51401V16.753H29.991V3.51401C29.9894 2.58262 29.6186 1.68984 28.96 1.03134C28.3013 0.37284 27.4084 0.0023291 26.477 0.00100708L3.514 0.00100708C2.58261 0.0023291 1.68973 0.37284 1.03104 1.03134C0.372353 1.68984 0.00158711 2.58262 0 3.51401L0 26.477C0.00132268 27.4086 0.371971 28.3016 1.03069 28.9603C1.6894 29.619 2.58244 29.9897 3.514 29.991H17.046V27.648H3.514C3.20342 27.6477 2.90562 27.5243 2.68592 27.3048C2.46621 27.0853 2.34253 26.7876 2.342 26.477H2.343ZM28.343 30L26.01 27.666C24.8945 28.329 23.5739 28.5578 22.3004 28.3088C21.027 28.0597 19.8898 27.3503 19.1063 26.3159C18.3227 25.2816 17.9477 23.9949 18.0527 22.7015C18.1578 21.4082 18.7356 20.1989 19.6758 19.3046C20.616 18.4103 21.8527 17.8936 23.1497 17.8534C24.4467 17.8132 25.7131 18.2521 26.7069 19.0864C27.7008 19.9207 28.3524 21.0919 28.5375 22.3762C28.7225 23.6606 28.4279 24.9681 27.71 26.049L30 28.343L28.343 30ZM23.314 26.067C23.8933 26.067 24.4596 25.8952 24.9413 25.5734C25.4229 25.2515 25.7984 24.7941 26.02 24.2589C26.2417 23.7237 26.2997 23.1348 26.1867 22.5666C26.0737 21.9984 25.7947 21.4765 25.3851 21.0669C24.9755 20.6573 24.4536 20.3783 23.8854 20.2653C23.3172 20.1523 22.7283 20.2103 22.1931 20.432C21.6579 20.6537 21.2005 21.0291 20.8786 21.5107C20.5568 21.9924 20.385 22.5587 20.385 23.138C20.3861 23.9144 20.695 24.6587 21.2441 25.2076C21.7932 25.7565 22.5376 26.0652 23.314 26.066V26.067Z" fill="url(#paint0_linear)"/>
</g>
<defs>
<linearGradient id="paint0_linear" x1="15" y1="0.00100708" x2="15" y2="30" gradientUnits="userSpaceOnUse">
<stop stop-color="#14A3B4"/>
<stop offset="1" stop-color="#F2B73E"/>
</linearGradient>
<clipPath id="clip0">
<rect width="30" height="30" fill="white"/>
</clipPath>
</defs>
</svg>
