<svg width="30" height="29" viewBox="0 0 30 29" fill="none" xmlns="http://www.w3.org/2000/svg">
<path d="M9.141 10.781C8.41424 10.7819 7.70557 11.0077 7.11223 11.4274C6.51888 11.8471 6.06994 12.4401 5.827 13.125H0V15.469H5.827C6.06928 16.1543 6.51808 16.7477 7.11158 17.1674C7.70509 17.5871 8.4141 17.8124 9.141 17.8124C9.8679 17.8124 10.5769 17.5871 11.1704 17.1674C11.7639 16.7477 12.2127 16.1543 12.455 15.469H30V13.125H12.455C12.2121 12.4401 11.7631 11.8471 11.1698 11.4274C10.5764 11.0077 9.86776 10.7819 9.141 10.781ZM9.141 15.468C8.90899 15.4682 8.68214 15.3995 8.48919 15.2707C8.29623 15.1419 8.14586 14.9587 8.05712 14.7443C7.96838 14.5299 7.94526 14.294 7.9907 14.0665C8.03613 13.839 8.14807 13.6301 8.31234 13.4662C8.47661 13.3024 8.68581 13.191 8.91345 13.1461C9.14108 13.1013 9.37691 13.125 9.59105 13.2143C9.80519 13.3036 9.98802 13.4544 10.1164 13.6477C10.2447 13.841 10.3128 14.068 10.312 14.3C10.3109 14.6101 10.1872 14.9071 9.96773 15.1262C9.7483 15.3452 9.45106 15.4685 9.141 15.469V15.468ZM24.876 2.34402C24.6337 1.65869 24.1849 1.06533 23.5914 0.645648C22.9979 0.225967 22.2889 0.000610352 21.562 0.000610352C20.8351 0.000610352 20.1261 0.225967 19.5326 0.645648C18.9391 1.06533 18.4903 1.65869 18.248 2.34402H0V4.68702H18.249C18.4913 5.37235 18.9401 5.96571 19.5336 6.38539C20.1271 6.80507 20.8361 7.03043 21.563 7.03043C22.2899 7.03043 22.9989 6.80507 23.5924 6.38539C24.1859 5.96571 24.6347 5.37235 24.877 4.68702H30V2.34402H24.876ZM21.563 4.68702C21.3312 4.68702 21.1046 4.61828 20.9119 4.4895C20.7191 4.36072 20.5689 4.17768 20.4802 3.96352C20.3915 3.74937 20.3683 3.51372 20.4135 3.28637C20.4587 3.05903 20.5704 2.8502 20.7343 2.68629C20.8982 2.52238 21.107 2.41076 21.3344 2.36554C21.5617 2.32032 21.7974 2.34353 22.0115 2.43223C22.2257 2.52094 22.4087 2.67116 22.5375 2.86389C22.6663 3.05662 22.735 3.28322 22.735 3.51502C22.7347 3.82577 22.6112 4.12372 22.3914 4.34345C22.1717 4.56319 21.8738 4.68675 21.563 4.68702ZM19.336 21.562C18.6092 21.5629 17.9006 21.7887 17.3072 22.2084C16.7139 22.6281 16.2649 23.2211 16.022 23.906H0V26.25H16.022C16.2643 26.9353 16.7131 27.5287 17.3066 27.9484C17.9001 28.3681 18.6091 28.5934 19.336 28.5934C20.0629 28.5934 20.7719 28.3681 21.3654 27.9484C21.9589 27.5287 22.4077 26.9353 22.65 26.25H30V23.906H22.65C22.4071 23.2211 21.9581 22.6281 21.3648 22.2084C20.7714 21.7887 20.0628 21.5629 19.336 21.562ZM19.336 26.249C19.1042 26.249 18.8776 26.1803 18.6849 26.0515C18.4921 25.9227 18.3419 25.7397 18.2532 25.5255C18.1645 25.3114 18.1413 25.0757 18.1865 24.8484C18.2317 24.621 18.3434 24.4122 18.5073 24.2483C18.6712 24.0844 18.88 23.9728 19.1074 23.9275C19.3347 23.8823 19.5704 23.9055 19.7845 23.9942C19.9987 24.0829 20.1817 24.2332 20.3105 24.4259C20.4393 24.6186 20.508 24.8452 20.508 25.077C20.508 25.3879 20.3846 25.6861 20.1648 25.9061C19.945 26.1261 19.6469 26.2498 19.336 26.25V26.249Z" fill="url(#paint0_linear)"/>
<defs>
<linearGradient id="paint0_linear" x1="15" y1="0.000610352" x2="15" y2="28.5934" gradientUnits="userSpaceOnUse">
<stop stop-color="#14A3B4"/>
<stop offset="1" stop-color="#F2B73E"/>
</linearGradient>
</defs>
</svg>
