<svg width="64" height="64" viewBox="0 0 64 64" fill="none" xmlns="http://www.w3.org/2000/svg">
<path d="M58 50H38V51H26V50H6C5.447 50 5 50.447 5 51C5 51.553 5.438 52.097 5.977 52.217L12.047 53.567C13.125 53.806 14.895 54 16 54H48C49.104 54 50.873 53.806 51.951 53.566L58.023 52.216C58.563 52.097 59 51.553 59 51C59 50.447 58.553 50 58 50ZM57.807 51.24L51.735 52.59C50.734 52.813 49.023 53 48 53H16C14.977 53 13.266 52.812 12.264 52.59L6.194 51.24C6.111 51.223 6 51.083 6 51H25V52H26H38H39V51H58C58 51.083 57.887 51.223 57.807 51.24Z" fill="#14A3B4"/>
<path d="M53 16H11C10.447 16 10 16.447 10 17V30V47H54V30V17C54 16.447 53.553 16 53 16ZM53 46H11V30V17H52.18H53V30V46Z" fill="#14A3B4"/>
<path d="M56 17C56 15.35 54.65 14 53 14H11C9.35 14 8 15.35 8 17V49H56V17ZM55 48H9V17C9 15.896 9.896 15 11 15H53C54.104 15 55 15.896 55 17V48Z" fill="#14A3B4"/>
<path d="M16 43H14V44H16V43Z" fill="#14A3B4"/>
<path d="M16 40H14V41H16V40Z" fill="#14A3B4"/>
<path d="M16 37H14V38H16V37Z" fill="#14A3B4"/>
<path d="M16 34H14V35H16V34Z" fill="#14A3B4"/>
<path d="M16 31H14V32H16V31Z" fill="#14A3B4"/>
<path d="M16 28H14V29H16V28Z" fill="#14A3B4"/>
<path d="M16 25H14V26H16V25Z" fill="#14A3B4"/>
<path d="M16 22H14V23H16V22Z" fill="#14A3B4"/>
<path d="M16 19H14V20H16V19Z" fill="#14A3B4"/>
<path d="M26 37H18V38H26V37Z" fill="#14A3B4"/>
<path d="M29 37H27V38H29V37Z" fill="#14A3B4"/>
<path d="M38 43H28V44H38V43Z" fill="#14A3B4"/>
<path d="M27 43H25V44H27V43Z" fill="#14A3B4"/>
<path d="M24 43H18V44H24V43Z" fill="#14A3B4"/>
<path d="M30 40H22V41H30V40Z" fill="#14A3B4"/>
<path d="M47 37H39V38H47V37Z" fill="#14A3B4"/>
<path d="M38 37H30V38H38V37Z" fill="#14A3B4"/>
<path d="M44 31H36V32H44V31Z" fill="#14A3B4"/>
<path d="M35 31H33V32H35V31Z" fill="#14A3B4"/>
<path d="M20 28H18V29H20V28Z" fill="#14A3B4"/>
<path d="M28 31H24V32H28V31Z" fill="#14A3B4"/>
<path d="M22 25H18V26H22V25Z" fill="#14A3B4"/>
<path d="M27 25H23V26H27V25Z" fill="#14A3B4"/>
<path d="M41 25H28V26H41V25Z" fill="#14A3B4"/>
<path d="M36 22H32V23H36V22Z" fill="#14A3B4"/>
<path d="M31 22H27V23H31V22Z" fill="#14A3B4"/>
<path d="M39 22H37V23H39V22Z" fill="#14A3B4"/>
<path d="M42 34H37V35H42V34Z" fill="#14A3B4"/>
<path d="M36 34H32V35H36V34Z" fill="#14A3B4"/>
<path d="M29 34H18V35H29V34Z" fill="#14A3B4"/>
<path d="M26 22H18V23H26V22Z" fill="#14A3B4"/>
<path d="M20 19H18V20H20V19Z" fill="#14A3B4"/>
</svg>
