<svg width="681" height="478" viewBox="0 0 681 478" fill="none" xmlns="http://www.w3.org/2000/svg">
<g id="software 1" clip-path="url(#clip0)">
<g id="Group 1">
<g id="Group">
<g id="terce_2">
<path id="Vector" d="M484.88 283.142C473.127 276.45 463.664 260.023 463.664 246.638C463.664 241.619 465.037 237.816 467.174 235.23C460.764 235.687 456.337 241.01 456.337 250.136C456.337 263.521 465.801 279.796 477.554 286.64C484.88 290.899 491.291 290.291 495.107 286.032C492.207 286.184 488.696 285.271 484.88 283.142Z" fill="#72B5E8"/>
<path id="Vector_2" d="M505.486 278.731C505.486 277.058 505.334 275.385 505.181 273.56L513.729 272.495C512.813 268.236 511.592 263.825 509.913 259.566L500.144 256.677C498.465 253.026 496.328 249.528 494.039 246.182L496.328 236.295C493.428 232.645 490.223 229.451 487.017 226.409L481.828 233.253C480.454 232.188 478.927 231.276 477.554 230.363C476.027 229.451 474.654 228.842 473.28 228.234L468.09 215.457C464.732 214.545 461.679 214.241 458.779 214.545L461.069 227.017C458.779 227.625 456.642 228.842 454.963 230.515L445.195 222.15C443.516 224.431 442.142 227.321 441.379 230.667L449.926 241.619C449.774 243.14 449.621 244.661 449.621 246.334C449.621 248.007 449.774 249.68 449.926 251.505L441.379 252.57C442.294 256.829 443.516 261.24 445.195 265.498L454.963 268.388C456.642 272.039 458.779 275.537 461.069 278.883L458.779 288.77C461.679 292.42 464.885 295.614 468.09 298.656L473.28 291.812C474.654 292.876 476.18 293.789 477.554 294.702C479.08 295.614 480.454 296.223 481.828 296.831L487.017 309.607C490.375 310.52 493.428 310.824 496.328 310.52L494.039 298.048C496.328 297.439 498.465 296.223 500.144 294.549L509.913 302.915C511.592 300.633 512.966 297.744 513.729 294.397L505.181 283.446C505.334 281.925 505.486 280.404 505.486 278.731ZM477.706 286.64C465.953 279.948 456.49 263.521 456.49 250.136C456.49 236.751 465.953 231.428 477.706 238.12C489.459 244.813 498.923 261.24 498.923 274.624C498.923 288.009 489.459 293.333 477.706 286.64Z" fill="#A8CFF0"/>
<path id="Vector_3" d="M481.37 223.671L476.027 210.894L467.785 215.61L473.127 228.386L481.37 223.671Z" fill="#72B5E8"/>
<path id="Vector_4" d="M473.127 228.386C474.501 228.994 476.027 229.603 477.401 230.515C478.927 231.428 480.301 232.341 481.675 233.405L486.865 226.561C486.865 226.561 485.949 225.952 485.491 225.8C483.964 224.888 482.591 224.279 481.217 223.671L473.127 228.386Z" fill="#D1EBFF"/>
<path id="Vector_5" d="M476.027 210.894C472.669 209.982 469.617 209.678 466.716 209.982L458.474 214.697C461.374 214.393 464.579 214.697 467.785 215.61L476.027 210.894Z" fill="#D1EBFF"/>
<path id="Vector_6" d="M504.571 231.732C501.671 228.082 498.465 224.888 495.26 221.846L487.017 226.561C490.375 229.451 493.428 232.797 496.328 236.447L504.571 231.732Z" fill="#D1EBFF"/>
<path id="Vector_7" d="M496.328 236.447L494.039 246.182L502.128 241.467L504.571 231.732L496.328 236.447Z" fill="#72B5E8"/>
<path id="Vector_8" d="M494.039 246.182C496.328 249.528 498.465 253.026 500.144 256.677L508.387 251.961C506.708 248.311 504.571 244.813 502.281 241.467L494.039 246.182Z" fill="#72B5E8"/>
<path id="Vector_9" d="M499.991 256.677L509.76 259.566L518.003 254.851L508.234 251.961L499.991 256.677Z" fill="#D1EBFF"/>
<path id="Vector_10" d="M509.76 259.566C511.439 263.825 512.813 268.236 513.576 272.495L521.819 267.78C520.903 263.521 519.682 259.11 518.003 254.851L509.76 259.566Z" fill="#72B5E8"/>
<path id="Vector_11" d="M460.916 227.169L460.306 223.519L453.284 217.587L445.042 222.302L454.811 230.667C456.49 228.994 458.474 227.778 460.916 227.169Z" fill="#72B5E8"/>
<path id="Vector_12" d="M513.729 294.397C512.813 297.744 511.592 300.481 509.913 302.915L518.155 298.2C519.834 295.918 521.208 293.028 521.971 289.682L513.729 294.397Z" fill="#72B5E8"/>
<path id="Vector_13" d="M513.271 278.731C513.424 277.21 513.576 275.689 513.576 274.016C513.576 273.56 513.576 272.951 513.576 272.495L505.029 273.56C505.181 275.233 505.334 277.058 505.334 278.731C505.334 280.404 505.181 281.925 505.029 283.446L513.271 278.731Z" fill="#72B5E8"/>
<path id="Vector_14" d="M505.181 283.446L513.729 294.397L521.971 289.682L513.271 278.731L505.181 283.446Z" fill="#D1EBFF"/>
<path id="Vector_15" d="M499.991 294.549C498.312 296.223 496.176 297.439 493.886 298.048L496.176 310.52L504.418 305.805L502.739 296.983L499.991 294.549Z" fill="#72B5E8"/>
<path id="Vector_16" d="M449.316 247.703L441.073 252.57L449.621 251.505C449.468 250.288 449.468 249.072 449.316 247.703Z" fill="#D1EBFF"/>
<path id="Vector_17" d="M473.127 291.812L467.938 298.656L476.18 293.941C475.111 293.181 474.043 292.572 473.127 291.812Z" fill="#72B5E8"/>
<g id="Group_2">
<path id="Vector_18" d="M459.848 227.778C459.39 227.778 459.085 227.93 458.627 228.234C459.085 227.93 459.39 227.778 459.848 227.778Z" fill="white"/>
<path id="Vector_19" d="M448.705 251.657L441.531 252.57C441.531 252.722 441.531 252.874 441.684 253.026L448.705 252.114C448.705 251.961 448.705 251.809 448.705 251.657Z" fill="white"/>
<path id="Vector_20" d="M495.87 236.904L493.581 246.79C495.87 250.136 498.007 253.635 499.686 257.285L509.455 260.175C511.134 264.282 512.355 268.54 513.271 272.647L514.187 272.495C513.271 268.236 512.05 263.825 510.371 259.566L500.602 256.677C498.923 253.026 496.786 249.528 494.497 246.182L496.786 236.295C493.886 232.645 490.681 229.451 487.475 226.409L487.17 227.473C490.223 230.363 493.123 233.557 495.87 236.904Z" fill="white"/>
<path id="Vector_21" d="M477.706 286.488C465.953 279.796 456.49 263.369 456.49 249.984C456.49 244.052 458.321 239.793 461.374 237.36C457.863 239.641 455.574 244.204 455.574 250.593C455.574 263.977 465.037 280.252 476.791 287.097C482.743 290.443 488.086 290.747 491.902 288.618C491.596 288.77 491.291 288.77 490.986 288.77C487.475 289.986 482.896 289.378 477.706 286.488Z" fill="white"/>
<path id="Vector_22" d="M495.565 297.591C496.939 297.135 498.312 296.375 499.381 295.462L499.076 295.158C498.007 296.07 496.786 296.983 495.565 297.591Z" fill="white"/>
<path id="Vector_23" d="M454.505 230.82C454.2 230.82 454.505 230.515 454.811 230.211L445.347 222.302C445.042 222.606 444.889 223.062 445.347 223.062L454.505 230.82Z" fill="white"/>
<path id="Vector_24" d="M493.733 298.504L496.023 310.52C495.718 310.52 496.328 310.52 496.786 310.52L494.344 298.048C493.886 298.2 493.428 298.352 493.733 298.504Z" fill="white"/>
<path id="Vector_25" d="M505.944 278.731C505.944 277.21 505.792 275.689 505.639 274.016H504.723C504.876 275.689 505.028 277.514 505.028 279.187C505.028 280.86 504.876 282.381 504.723 283.902L513.271 294.854C512.508 297.591 511.439 300.025 510.218 302.154V302.763C511.897 300.481 513.271 297.591 514.034 294.245L505.486 283.294C505.792 281.925 505.944 280.404 505.944 278.731Z" fill="white"/>
<path id="Vector_26" d="M467.48 215.914L472.669 228.69C474.043 229.299 475.569 229.907 476.943 230.82C478.469 231.732 479.843 232.645 481.217 233.709L481.37 232.949C480.149 232.036 478.927 231.276 477.706 230.515C476.18 229.603 474.806 228.994 473.432 228.386L468.243 215.61C464.885 214.697 461.832 214.393 458.932 214.697L459.085 215.305C461.527 215.001 464.732 215.153 467.48 215.914Z" fill="white"/>
<path id="Vector_27" d="M472.059 292.268L467.632 297.896C467.785 298.048 467.938 298.2 468.243 298.352L472.669 292.572C472.517 292.572 472.364 292.42 472.059 292.268Z" fill="white"/>
</g>
</g>
<g id="terce_1">
<path id="Vector_28" d="M481.828 182.604C464.274 172.413 449.926 147.925 449.926 127.848C449.926 120.395 451.911 114.615 455.269 110.813C445.653 111.573 439.089 119.635 439.089 133.171C439.089 153.249 453.437 177.889 470.99 187.927C481.98 194.316 491.749 193.403 497.549 186.863C492.818 187.319 487.475 185.95 481.828 182.604Z" fill="#72B5E8"/>
<path id="Vector_29" d="M512.813 176.064C512.813 173.478 512.66 170.892 512.202 168.306L525.024 166.633C523.65 160.093 521.666 153.705 519.224 147.165L504.571 142.754C501.976 137.278 498.923 131.955 495.412 127.087L498.923 112.334C494.496 106.858 489.917 101.991 484.88 97.58L476.943 107.771C474.806 106.25 472.669 104.729 470.532 103.36C468.395 102.143 466.259 101.078 464.122 100.318L456.184 81.0011C451.147 79.6322 446.416 79.1759 442.142 79.6322L445.652 98.4926C442.142 99.4052 439.089 101.23 436.494 103.664L421.841 91.1918C419.246 94.6901 417.262 98.9489 416.041 103.968L428.862 120.395C428.557 122.677 428.252 124.958 428.252 127.544C428.252 130.129 428.404 132.715 428.862 135.301L416.041 136.974C417.415 143.514 419.399 149.902 421.841 156.443L436.494 160.854C439.089 166.329 442.142 171.653 445.652 176.52L442.142 191.274C446.568 196.749 451.147 201.616 456.184 206.027L464.122 195.837C466.259 197.358 468.395 198.879 470.532 200.247C472.669 201.464 474.806 202.529 476.943 203.289L484.88 222.606C489.917 223.975 494.649 224.431 498.923 223.975L495.412 205.115C498.923 204.202 501.976 202.377 504.571 199.943L519.224 212.415C521.819 208.917 523.803 204.658 525.024 199.639L512.202 183.212C512.66 180.931 512.813 178.497 512.813 176.064ZM470.99 187.927C453.437 177.737 439.089 153.249 439.089 133.171C439.089 113.094 453.437 104.881 470.99 115.072C488.544 125.262 502.892 149.75 502.892 169.827C502.892 189.905 488.544 198.118 470.99 187.927Z" fill="#A8CFF0"/>
<path id="Vector_30" d="M476.485 93.3212L468.548 74.0045L456.184 81.0011L464.122 100.318L476.485 93.3212Z" fill="#72B5E8"/>
<path id="Vector_31" d="M464.122 100.318C466.259 101.23 468.396 102.143 470.533 103.36C472.669 104.577 474.806 106.098 476.943 107.771L484.88 97.58C484.88 97.58 483.507 96.8195 482.896 96.3632C480.759 95.1464 478.622 94.0817 476.485 93.3212L464.122 100.318Z" fill="#D1EBFF"/>
<path id="Vector_32" d="M468.548 74.0045C463.511 72.6356 458.779 72.1793 454.506 72.6356L442.142 79.6322C446.568 79.1759 451.147 79.6322 456.185 81.0011L468.548 74.0045Z" fill="#D1EBFF"/>
<path id="Vector_33" d="M511.439 105.337C507.013 99.8615 502.434 94.9943 497.397 90.5834L485.033 97.58C490.07 101.991 494.802 107.01 499.076 112.334L511.439 105.337Z" fill="#D1EBFF"/>
<path id="Vector_34" d="M499.076 112.334L495.565 127.087L507.929 120.091L511.439 105.337L499.076 112.334Z" fill="#72B5E8"/>
<path id="Vector_35" d="M495.565 127.087C499.076 132.107 502.128 137.278 504.723 142.754L517.087 135.757C514.492 130.282 511.439 124.958 507.929 120.091L495.565 127.087Z" fill="#72B5E8"/>
<path id="Vector_36" d="M504.723 142.906L519.376 147.317L531.74 140.168L516.934 135.757L504.723 142.906Z" fill="#D1EBFF"/>
<path id="Vector_37" d="M519.376 147.317C521.971 153.705 523.956 160.245 525.177 166.785L537.54 159.789C536.166 153.249 534.182 146.86 531.74 140.32L519.376 147.317Z" fill="#72B5E8"/>
<path id="Vector_38" d="M445.652 98.4926L444.584 93.017L434.205 84.1952L421.841 91.1918L436.494 103.664C439.089 101.078 442.142 99.4052 445.652 98.4926Z" fill="#72B5E8"/>
<path id="Vector_39" d="M525.177 199.487C523.803 204.506 521.819 208.765 519.376 212.263L531.74 205.267C534.335 201.768 536.319 197.51 537.54 192.49L525.177 199.487Z" fill="#72B5E8"/>
<path id="Vector_40" d="M524.566 176.064C524.871 173.782 525.177 171.501 525.177 168.915C525.177 168.154 525.177 167.394 525.024 166.633L512.203 168.307C512.508 170.892 512.813 173.478 512.813 176.064C512.813 178.649 512.66 180.931 512.203 183.212L524.566 176.064Z" fill="#72B5E8"/>
<path id="Vector_41" d="M512.355 183.06L525.177 199.487L537.54 192.49L524.566 176.064L512.355 183.06Z" fill="#D1EBFF"/>
<path id="Vector_42" d="M504.723 199.791C502.128 202.377 499.076 204.05 495.565 204.963L499.076 223.823L511.439 216.826L508.997 203.442L504.723 199.791Z" fill="#72B5E8"/>
<path id="Vector_43" d="M428.404 129.521L416.041 136.822L428.862 135.149C428.71 133.171 428.557 131.346 428.404 129.521Z" fill="#D1EBFF"/>
<path id="Vector_44" d="M464.122 195.684L456.184 205.875L468.701 198.879C467.174 197.814 465.648 196.749 464.122 195.684Z" fill="#72B5E8"/>
<g id="Group_3">
<path id="Vector_45" d="M444.126 99.2531V99.101C443.515 99.2531 442.905 99.5573 442.447 99.8615C443.058 99.7094 443.515 99.4052 444.126 99.2531Z" fill="white"/>
<path id="Vector_46" d="M427.336 135.301L416.651 136.67C416.651 136.822 416.804 137.126 416.804 137.278L427.489 135.909C427.336 135.757 427.336 135.605 427.336 135.301Z" fill="white"/>
<path id="Vector_47" d="M498.312 113.094L494.802 127.848C498.312 132.715 501.365 138.039 503.96 143.514L518.613 147.925C521.055 154.161 523.04 160.549 524.261 166.786L525.787 166.481C524.413 159.941 522.429 153.553 519.987 147.013L505.334 142.602C502.739 137.126 499.686 131.803 496.176 126.935L499.686 112.182C495.26 106.706 490.681 101.839 485.644 97.4279L485.186 99.101C489.765 103.36 494.191 108.075 498.312 113.094Z" fill="white"/>
<path id="Vector_48" d="M471.143 187.775C453.59 177.585 439.242 153.096 439.242 133.019C439.242 124.198 441.989 117.657 446.721 114.007C441.379 117.505 438.021 124.35 438.021 133.932C438.021 154.009 452.368 178.649 469.922 188.688C478.775 193.859 486.865 194.316 492.665 190.817C492.207 190.969 491.749 190.969 491.291 191.121C485.796 193.099 478.775 192.186 471.143 187.775Z" fill="white"/>
<path id="Vector_49" d="M497.854 204.354C499.991 203.594 501.976 202.529 503.655 201.16L503.044 200.704C501.518 202.225 499.839 203.442 497.854 204.354Z" fill="white"/>
<path id="Vector_50" d="M436.036 103.968C435.426 103.968 436.036 103.512 436.647 103.056L422.451 91.0397C421.994 91.6481 421.688 92.2565 422.299 92.2565L436.036 103.968Z" fill="white"/>
<path id="Vector_51" d="M495.107 205.875L498.465 223.823C498.007 223.823 498.77 223.823 499.533 223.671L496.023 205.115C495.412 205.419 494.802 205.723 495.107 205.875Z" fill="white"/>
<path id="Vector_52" d="M513.424 175.912C513.424 173.63 513.271 171.196 512.966 168.915L511.745 169.067C512.05 171.653 512.355 174.238 512.355 176.824C512.355 179.41 512.202 181.691 511.745 183.973L524.566 200.4C523.498 204.506 521.819 208.157 519.834 211.351L519.987 212.415C522.582 208.917 524.566 204.658 525.787 199.639L512.966 183.212C513.271 180.779 513.424 178.497 513.424 175.912Z" fill="white"/>
<path id="Vector_53" d="M455.727 81.6095L463.664 100.926C465.801 101.839 467.938 102.751 470.074 103.968C472.211 105.185 474.348 106.706 476.485 108.379L476.791 107.162C474.959 105.793 473.127 104.577 471.296 103.512C469.159 102.295 467.022 101.23 464.885 100.47L456.948 81.1532C451.911 79.7843 447.179 79.328 442.905 79.7843L443.058 80.5448C446.721 80.2406 451.605 80.3927 455.727 81.6095Z" fill="white"/>
<path id="Vector_54" d="M462.595 196.597L456.032 205.115C456.337 205.419 456.642 205.571 456.795 205.875L463.511 197.205C463.206 196.901 462.901 196.749 462.595 196.597Z" fill="white"/>
</g>
</g>
<g id="Group_4">
<path id="Vector_55" d="M473.738 245.117C476.638 246.79 479.08 249.984 480.606 253.33C480.606 253.33 482.285 252.874 482.896 252.57C484.27 251.961 486.101 252.266 488.086 253.33C492.512 255.916 496.176 262.152 496.176 267.171C496.176 276.45 480.149 279.644 480.149 279.644C480.149 279.644 464.885 259.414 464.885 249.984C464.885 247.398 463.816 246.638 465.19 245.877C465.343 245.877 468.243 244.204 468.395 244.204C469.769 243.748 471.753 243.9 473.738 245.117Z" fill="#D62D69"/>
<path id="Vector_56" d="M470.99 246.638C474.043 248.463 476.791 251.961 478.164 255.764C479.538 253.635 482.133 253.178 485.338 254.851C489.765 257.437 493.428 263.673 493.428 268.692C493.428 277.971 478.164 280.708 478.164 280.708C478.164 280.708 462.901 260.479 462.901 251.049C462.901 246.03 466.564 244.052 470.99 246.638Z" fill="#EB4680"/>
<g id="Group_5">
<path id="Vector_57" opacity="0.7" d="M470.532 246.79C473.585 248.615 476.638 252.114 478.012 255.916C478.317 255.46 477.859 255.612 478.317 255.308C476.943 251.809 474.348 248.463 471.296 246.79C468.853 245.421 467.022 245.117 465.495 245.877C467.022 245.421 468.701 245.725 470.532 246.79Z" fill="white"/>
<path id="Vector_58" opacity="0.7" d="M485.491 254.699C483.049 253.33 481.217 253.33 479.996 254.091C481.37 253.635 483.049 253.939 484.88 255.003C489.307 257.589 492.97 263.825 492.97 268.844C492.97 273.103 489.612 276.145 486.101 277.97C490.07 276.145 493.581 273.407 493.581 268.692C493.581 263.521 490.07 257.285 485.491 254.699Z" fill="white"/>
</g>
</g>
<g id="arrow_2">
<path id="Vector_59" d="M486.559 72.6356C486.712 70.6583 488.086 69.7457 489.765 70.6583C491.444 71.5709 492.665 74.0045 492.512 75.9818C492.359 77.9591 490.986 78.8717 489.307 77.9591C487.78 77.0465 486.407 74.6129 486.559 72.6356Z" fill="#EB4680"/>
<g id="Group 3">
<g id="Group_6">
<path id="Vector_60" d="M537.082 217.587C536.777 217.587 536.624 217.435 536.472 217.283C536.319 216.978 536.319 216.674 536.472 216.37L540.135 210.134C540.288 209.83 540.746 209.678 541.204 209.83C541.509 209.982 541.662 210.438 541.509 210.895L538.761 215.457L544.104 213.784C544.562 213.632 544.867 213.936 545.02 214.241C545.172 214.697 544.867 215.001 544.562 215.153L537.235 217.435C537.235 217.587 537.235 217.587 537.082 217.587Z" fill="#EB4680"/>
</g>
<g id="Group_7">
<path id="Vector_61" d="M539.372 216.522L538.303 215.457C546.546 208.005 550.82 195.837 550.82 180.474C550.82 141.993 523.345 94.8422 489.612 75.3734L490.375 74.0045C524.566 93.6254 552.346 141.385 552.346 180.322C552.499 196.293 547.92 208.765 539.372 216.522Z" fill="#EB4680"/>
</g>
</g>
</g>
<g id="Group_8">
<g id="Group_9">
<path id="Vector_62" d="M563.641 190.513C563.183 190.513 562.878 190.209 562.878 189.753C562.878 189.296 562.878 188.688 562.878 188.232C562.878 187.775 563.183 187.471 563.641 187.471C564.099 187.471 564.405 187.775 564.405 188.232C564.405 188.688 564.405 189.296 564.405 189.753C564.405 190.209 564.099 190.513 563.641 190.513Z" fill="#A8CFF0"/>
</g>
<g id="Group_10">
<path id="Vector_63" d="M521.666 243.292C521.208 243.292 520.903 242.988 520.903 242.531C520.903 242.075 521.208 241.771 521.666 241.771C522.734 241.771 523.65 241.771 524.719 241.619C525.177 241.619 525.482 241.923 525.482 242.379C525.482 242.836 525.177 243.14 524.719 243.14C523.65 243.292 522.734 243.292 521.666 243.292ZM517.087 243.14C516.018 242.988 514.95 242.988 514.034 242.836C513.576 242.836 513.271 242.379 513.424 241.923C513.424 241.467 513.881 241.162 514.339 241.315C515.408 241.467 516.324 241.619 517.239 241.619C517.697 241.619 518.003 242.075 518.003 242.379C517.85 242.836 517.545 243.14 517.087 243.14ZM529.145 242.531C528.84 242.531 528.535 242.227 528.382 241.923C528.382 241.467 528.535 241.162 528.993 241.01C529.908 240.858 530.977 240.554 531.893 240.402C532.351 240.25 532.656 240.554 532.809 241.01C532.961 241.467 532.656 241.771 532.198 241.923C531.282 242.227 530.366 242.379 529.145 242.531C529.298 242.531 529.298 242.531 529.145 242.531ZM536.472 240.554C536.167 240.554 535.861 240.402 535.709 240.098C535.556 239.641 535.709 239.337 536.167 239.185C537.082 238.881 537.998 238.425 538.914 237.968C539.219 237.816 539.677 237.968 539.983 238.273C540.135 238.577 539.983 239.033 539.677 239.337C538.761 239.794 537.846 240.25 536.93 240.554C536.625 240.554 536.472 240.554 536.472 240.554ZM543.188 237.056C542.883 237.056 542.73 236.904 542.577 236.752C542.272 236.447 542.425 235.991 542.73 235.687C543.493 235.078 544.409 234.622 545.172 234.014C545.477 233.71 545.935 233.862 546.241 234.166C546.546 234.47 546.393 234.926 546.088 235.231C545.325 235.839 544.409 236.447 543.646 237.056C543.493 237.056 543.341 237.056 543.188 237.056ZM548.988 232.341C548.835 232.341 548.53 232.341 548.378 232.189C548.072 231.884 548.072 231.428 548.378 231.124C549.141 230.363 549.751 229.755 550.362 228.994C550.667 228.69 551.125 228.69 551.43 228.842C551.736 229.147 551.736 229.603 551.583 229.907C550.972 230.668 550.209 231.428 549.446 232.189C549.446 232.189 549.141 232.341 548.988 232.341ZM553.873 226.409C553.72 226.409 553.567 226.409 553.415 226.257C553.109 225.952 552.957 225.496 553.262 225.192C553.873 224.431 554.33 223.519 554.788 222.758C554.941 222.454 555.399 222.302 555.857 222.454C556.162 222.606 556.315 223.063 556.162 223.519C555.704 224.431 555.094 225.192 554.483 226.105C554.33 226.409 554.025 226.409 553.873 226.409ZM557.536 219.868C557.383 219.868 557.383 219.868 557.231 219.868C556.773 219.716 556.62 219.26 556.925 218.804C557.383 217.891 557.688 216.979 558.146 216.066C558.299 215.61 558.757 215.458 559.215 215.61C559.673 215.762 559.825 216.218 559.673 216.674C559.215 217.587 558.91 218.5 558.452 219.412C558.146 219.716 557.841 219.868 557.536 219.868ZM560.283 212.872C560.283 212.872 560.131 212.872 559.978 212.872C559.52 212.72 559.368 212.263 559.52 211.959C559.825 211.047 560.131 210.134 560.283 209.069C560.436 208.613 560.741 208.461 561.199 208.461C561.657 208.613 561.81 208.917 561.81 209.374C561.504 210.438 561.199 211.351 560.894 212.263C560.894 212.72 560.589 212.872 560.283 212.872ZM562.115 205.571C561.504 205.419 561.352 205.115 561.352 204.658C561.504 203.746 561.657 202.681 561.81 201.769C561.81 201.312 562.268 201.008 562.726 201.16C563.183 201.16 563.489 201.616 563.336 202.073C563.183 203.137 563.031 204.05 562.878 205.115C562.878 205.267 562.573 205.571 562.115 205.571ZM563.183 198.118C562.725 198.118 562.42 197.662 562.42 197.358C562.573 196.445 562.573 195.38 562.726 194.316C562.726 193.859 563.031 193.555 563.489 193.555C563.947 193.555 564.252 194.011 564.252 194.316C564.252 195.38 564.099 196.293 563.947 197.358C563.947 197.814 563.641 198.118 563.183 198.118Z" fill="#A8CFF0"/>
</g>
<g id="Group_11">
<path id="Vector_64" d="M509.608 241.923H509.455C508.997 241.771 508.386 241.771 507.929 241.619C507.471 241.467 507.318 241.162 507.318 240.706C507.471 240.25 507.776 240.098 508.234 240.098C508.692 240.25 509.15 240.402 509.76 240.402C510.218 240.554 510.371 240.858 510.371 241.315C510.218 241.771 509.913 241.923 509.608 241.923Z" fill="#A8CFF0"/>
</g>
</g>
<g id="Group_12">
<g id="Group_13">
<path id="Vector_65" d="M411.767 121.612C411.462 121.612 411.156 121.308 411.004 121.003C410.851 120.547 410.851 119.939 410.698 119.482C410.698 119.026 410.851 118.722 411.309 118.57C411.767 118.57 412.072 118.722 412.225 119.178C412.378 119.635 412.378 120.243 412.53 120.699C412.683 121.003 412.378 121.46 411.767 121.612C411.92 121.612 411.92 121.612 411.767 121.612Z" fill="#A8CFF0"/>
</g>
<g id="Group_14">
<path id="Vector_66" d="M552.499 136.974C552.193 136.974 551.888 136.822 551.735 136.518C551.278 135.605 550.972 134.692 550.514 133.628C550.362 133.171 550.514 132.867 550.972 132.563C551.43 132.411 551.735 132.563 552.041 133.019C552.499 133.932 552.804 134.997 553.262 135.909C553.414 136.365 553.262 136.67 552.804 136.974C552.651 136.974 552.651 136.974 552.499 136.974ZM549.446 129.977C549.141 129.977 548.835 129.825 548.683 129.521C548.225 128.608 547.767 127.696 547.309 126.783C547.156 126.479 547.309 126.023 547.614 125.718C547.92 125.566 548.377 125.718 548.683 126.023C549.141 126.935 549.599 127.848 550.057 128.76C550.209 129.217 550.056 129.521 549.751 129.825C549.599 129.977 549.599 129.977 549.446 129.977ZM546.088 122.981C545.783 122.981 545.477 122.829 545.477 122.524C545.019 121.612 544.562 120.699 544.104 119.787C543.951 119.482 544.104 119.026 544.409 118.722C544.714 118.57 545.172 118.722 545.477 119.026C545.935 119.939 546.393 120.851 546.851 121.764C547.004 122.068 546.851 122.524 546.546 122.829C546.393 122.981 546.241 122.981 546.088 122.981ZM542.425 116.136C542.119 116.136 541.967 115.984 541.814 115.68C541.356 114.767 540.746 113.855 540.288 112.942C540.135 112.638 540.135 112.182 540.593 111.877C540.898 111.725 541.356 111.725 541.661 112.182C542.119 113.094 542.73 114.007 543.188 114.919C543.34 115.224 543.188 115.68 542.883 115.984C542.73 116.136 542.577 116.136 542.425 116.136ZM410.851 115.528C410.546 115.528 410.088 115.224 410.088 114.919C409.935 113.855 409.782 112.79 409.782 111.877C409.782 111.421 410.088 111.117 410.393 110.965C410.851 110.965 411.156 111.269 411.309 111.573C411.461 112.638 411.614 113.55 411.614 114.615C411.614 115.071 411.309 115.376 410.851 115.528ZM538.456 109.596C538.151 109.596 537.998 109.444 537.845 109.292C537.235 108.379 536.777 107.619 536.167 106.706C536.014 106.402 536.014 105.945 536.472 105.641C536.777 105.489 537.235 105.489 537.54 105.945C538.151 106.858 538.609 107.619 539.219 108.531C539.372 108.835 539.372 109.292 538.914 109.596C538.761 109.444 538.609 109.596 538.456 109.596ZM410.088 107.771C409.63 107.771 409.325 107.466 409.325 107.01C409.325 105.946 409.172 104.881 409.172 103.968C409.172 103.512 409.477 103.208 409.935 103.208C410.393 103.208 410.698 103.512 410.698 103.968C410.698 105.033 410.851 105.946 410.851 107.01C410.851 107.466 410.546 107.771 410.088 107.771ZM534.335 103.056C534.03 103.056 533.877 102.903 533.724 102.751C533.114 101.839 532.503 101.078 532.045 100.166C531.74 99.8615 531.893 99.4052 532.198 99.101C532.503 98.7968 532.961 98.9489 533.266 99.2531C533.877 100.166 534.487 100.926 534.945 101.839C535.251 102.143 535.098 102.599 534.793 102.903C534.64 103.056 534.487 103.056 534.335 103.056ZM409.782 100.166C409.325 100.166 409.019 99.8615 409.019 99.4052C409.019 98.3405 409.019 97.2758 409.019 96.3632C409.019 95.9069 409.325 95.6027 409.782 95.6027C410.24 95.6027 410.546 95.9069 410.546 96.3632C410.546 97.4279 410.546 98.3405 410.546 99.4052C410.546 99.8615 410.24 100.166 409.782 100.166ZM529.908 96.8195C529.603 96.8195 529.45 96.6674 529.298 96.5153C528.687 95.7548 528.077 94.8422 527.466 94.0817C527.161 93.7775 527.313 93.3212 527.619 93.017C527.924 92.7128 528.382 92.8649 528.687 93.1691C529.298 93.9296 529.908 94.8422 530.519 95.6027C530.824 95.9069 530.671 96.3632 530.366 96.6674C530.214 96.8195 530.061 96.8195 529.908 96.8195ZM410.24 92.4086C410.088 92.4086 410.088 92.4086 410.24 92.4086C409.783 92.4086 409.477 91.9523 409.477 91.6481C409.63 90.5834 409.63 89.5187 409.782 88.6061C409.782 88.1498 410.24 87.8456 410.698 87.9977C411.156 87.9977 411.461 88.454 411.309 88.9103C411.156 89.975 411.156 90.8876 411.004 91.9523C410.851 92.1044 410.546 92.4086 410.24 92.4086ZM525.177 90.7355C525.024 90.7355 524.719 90.5834 524.566 90.4313C523.955 89.6708 523.345 88.9103 522.582 87.9977C522.276 87.6935 522.429 87.2372 522.734 86.933C523.04 86.6288 523.498 86.7809 523.803 87.0851C524.413 87.8456 525.177 88.6061 525.787 89.5187C526.092 89.8229 525.94 90.2792 525.634 90.5834C525.482 90.5834 525.329 90.7355 525.177 90.7355ZM520.14 84.8036C519.987 84.8036 519.682 84.6515 519.529 84.4994C518.918 83.7389 518.155 82.9784 517.545 82.2179C517.239 81.9137 517.239 81.4574 517.545 81.1532C517.85 80.849 518.308 80.849 518.613 81.1532C519.376 81.9137 519.987 82.6742 520.75 83.4347C521.055 83.7389 521.055 84.1952 520.75 84.4994C520.597 84.8036 520.445 84.8036 520.14 84.8036ZM411.156 84.8036C410.546 84.6515 410.393 84.3473 410.393 83.891C410.546 82.8263 410.851 81.9137 411.004 80.849C411.156 80.3927 411.462 80.2406 411.919 80.2406C412.377 80.3927 412.53 80.6969 412.53 81.1532C412.377 82.0658 412.072 83.1305 411.919 84.1952C411.919 84.4994 411.614 84.8036 411.156 84.8036ZM514.95 79.1759C514.797 79.1759 514.492 79.0238 514.339 78.8717C513.576 78.1112 512.966 77.3507 512.202 76.7423C511.897 76.4381 511.897 75.9818 512.202 75.6776C512.508 75.3734 512.966 75.3734 513.271 75.6776C514.034 76.4381 514.797 77.1986 515.408 77.807C515.713 78.1112 515.713 78.5675 515.408 78.8717C515.408 79.1759 515.102 79.1759 514.95 79.1759ZM412.988 77.3507H412.835C412.377 77.1986 412.225 76.7423 412.377 76.4381C412.683 75.3734 412.988 74.4608 413.293 73.5482C413.446 73.0919 413.904 72.9398 414.209 73.0919C414.667 73.244 414.82 73.7003 414.667 74.0045C414.362 74.9171 414.056 75.9818 413.751 76.8944C413.598 77.1986 413.293 77.3507 412.988 77.3507ZM509.455 73.8524C509.302 73.8524 509.15 73.8524 508.997 73.7003C508.234 72.9398 507.471 72.3314 506.707 71.5709C506.402 71.2667 506.402 70.8104 506.707 70.5062C507.013 70.202 507.471 70.202 507.776 70.5062C508.539 71.2667 509.302 71.8751 510.065 72.6356C510.371 72.9398 510.371 73.3961 510.065 73.7003C509.913 73.7003 509.608 73.8524 509.455 73.8524ZM415.735 70.202C415.583 70.202 415.583 70.202 415.43 70.202C414.972 70.0499 414.82 69.5936 415.125 69.1373C415.583 68.2247 416.041 67.3121 416.499 66.3995C416.651 66.0953 417.109 65.9432 417.567 66.0953C417.872 66.2474 418.025 66.7037 417.872 67.16C417.414 68.0726 416.956 68.9852 416.499 69.8978C416.346 70.0499 416.041 70.202 415.735 70.202ZM503.655 68.681C503.502 68.681 503.349 68.681 503.197 68.5289C502.434 67.9205 501.67 67.16 500.755 66.5516C500.449 66.2474 500.297 65.7911 500.602 65.4869C500.907 65.1827 501.365 65.0306 501.67 65.3348C502.434 65.9432 503.349 66.7037 504.113 67.3121C504.418 67.6163 504.418 68.0726 504.265 68.3768C504.113 68.681 503.807 68.681 503.655 68.681ZM497.549 63.9659C497.396 63.9659 497.244 63.9659 497.091 63.8138C496.328 63.2054 495.412 62.597 494.649 61.9886C494.344 61.6844 494.191 61.2281 494.496 60.9239C494.802 60.6197 495.26 60.4676 495.565 60.7718C496.481 61.3802 497.244 61.9886 498.16 62.597C498.465 62.9012 498.618 63.3575 498.312 63.6617C498.007 63.8138 497.854 63.9659 497.549 63.9659ZM419.551 63.3575C419.399 63.3575 419.246 63.3575 419.093 63.2054C418.788 62.9012 418.635 62.4449 418.941 62.1407C419.551 61.2281 420.162 60.4676 420.772 59.555C421.078 59.2508 421.536 59.0987 421.841 59.4029C422.146 59.7071 422.299 60.1634 421.993 60.4676C421.383 61.2281 420.772 62.1407 420.162 62.9012C420.009 63.3575 419.704 63.3575 419.551 63.3575ZM491.138 59.555C490.986 59.555 490.833 59.555 490.68 59.4029C489.765 58.7945 489.001 58.3382 488.086 57.7298C487.78 57.5777 487.628 56.9693 487.78 56.6651C487.933 56.3609 488.544 56.2088 488.849 56.3609C489.765 56.8172 490.68 57.4256 491.444 58.034C491.749 58.1861 491.902 58.7945 491.749 59.0987C491.749 59.4029 491.444 59.555 491.138 59.555ZM424.283 57.4256C424.13 57.4256 423.825 57.4256 423.673 57.2735C423.367 56.9693 423.367 56.513 423.673 56.2088C424.436 55.4483 425.199 54.6878 425.962 54.0794C426.267 53.7752 426.725 53.7752 427.031 54.2315C427.336 54.5357 427.336 54.992 426.878 55.2962C426.115 55.9046 425.352 56.6651 424.741 57.4256C424.741 57.4256 424.588 57.4256 424.283 57.4256ZM484.575 55.6004C484.422 55.6004 484.27 55.6004 484.27 55.4483C483.354 54.992 482.438 54.5357 481.522 54.0794C481.217 53.9273 481.064 53.471 481.217 53.0147C481.37 52.7105 481.827 52.5584 482.285 52.7105C483.201 53.1668 484.117 53.6231 485.033 54.0794C485.338 54.2315 485.491 54.6878 485.338 55.1441C485.033 55.4483 484.88 55.6004 484.575 55.6004ZM430.236 52.5584C429.931 52.5584 429.778 52.4063 429.625 52.2542C429.32 51.95 429.473 51.4937 429.778 51.1895C430.694 50.5811 431.61 50.1248 432.526 49.5164C432.831 49.3643 433.289 49.5164 433.594 49.8206C433.747 50.1248 433.594 50.5811 433.289 50.8853C432.373 51.3416 431.61 51.95 430.694 52.4063C430.541 52.5584 430.389 52.5584 430.236 52.5584ZM477.706 52.2542C477.554 52.2542 477.554 52.2542 477.401 52.2542C476.485 51.7979 475.569 51.4937 474.653 51.0374C474.196 50.8853 474.043 50.429 474.196 50.1248C474.348 49.6685 474.806 49.5164 475.264 49.6685C476.18 49.9727 477.248 50.429 478.164 50.8853C478.622 51.0374 478.775 51.4937 478.622 51.95C478.164 52.1021 478.011 52.2542 477.706 52.2542ZM470.38 49.5164C470.227 49.5164 470.227 49.5164 470.074 49.5164C469.159 49.2122 468.09 48.908 467.174 48.6038C466.716 48.4517 466.564 47.9954 466.716 47.6912C466.869 47.2349 467.174 47.0828 467.632 47.2349C468.548 47.5391 469.616 47.8433 470.685 48.1475C471.143 48.2996 471.295 48.7559 471.143 49.0601C470.99 49.2122 470.685 49.5164 470.38 49.5164ZM437.105 49.0601C436.799 49.0601 436.494 48.908 436.341 48.6038C436.189 48.1475 436.341 47.8433 436.799 47.6912C437.715 47.387 438.784 46.9307 439.852 46.6265C440.31 46.4744 440.615 46.7786 440.768 47.0828C440.921 47.5391 440.615 47.8433 440.31 47.9954C439.394 48.2996 438.326 48.6038 437.41 48.908C437.257 49.0601 437.257 49.0601 437.105 49.0601ZM463.053 47.387H462.9C461.832 47.2349 460.916 46.9307 459.848 46.9307C459.39 46.9307 459.084 46.4744 459.237 46.0181C459.237 45.5618 459.695 45.2576 460.153 45.4097C461.221 45.5618 462.137 45.7139 463.206 46.0181C463.664 46.1702 463.816 46.4744 463.816 46.9307C463.664 47.2349 463.358 47.387 463.053 47.387ZM444.584 46.9307C444.279 46.9307 443.973 46.6265 443.821 46.3223C443.821 45.866 443.973 45.5618 444.431 45.4097C445.5 45.2576 446.568 45.1055 447.484 44.9534C447.942 44.9534 448.247 45.2576 448.247 45.5618C448.247 46.0181 447.942 46.3223 447.637 46.3223C446.721 46.6265 445.652 46.7786 444.584 46.9307ZM455.269 46.4744C454.2 46.4744 453.132 46.3223 452.216 46.3223C451.758 46.3223 451.453 46.0181 451.453 45.5618C451.453 45.1055 451.758 44.8013 452.216 44.8013C453.284 44.8013 454.353 44.8013 455.421 44.9534C455.879 44.9534 456.184 45.4097 456.184 45.7139C456.032 46.1702 455.726 46.4744 455.269 46.4744Z" fill="#A8CFF0"/>
</g>
<g id="Group_15">
<path id="Vector_67" d="M554.788 142.906C554.483 142.906 554.178 142.754 554.025 142.449L553.567 141.081C553.415 140.624 553.567 140.32 554.025 140.168C554.483 140.016 554.788 140.168 554.941 140.624L555.399 141.993C555.552 142.449 555.399 142.754 554.941 142.906C554.941 142.754 554.788 142.906 554.788 142.906Z" fill="#A8CFF0"/>
</g>
</g>
<g id="arrow_1">
<path id="Vector_68" d="M477.401 315.996C477.401 314.627 478.469 314.018 479.538 314.627C480.606 315.235 481.522 316.908 481.37 318.277C481.37 319.646 480.301 320.254 479.233 319.646C478.164 318.885 477.401 317.364 477.401 315.996Z" fill="#EB4680"/>
<g id="Group 2">
<g id="Group_16">
<g id="Group_17">
<path id="Vector_69" d="M527.161 256.22C526.856 256.22 526.55 256.068 526.398 255.764C526.245 255.308 525.94 254.851 525.787 254.395C525.635 253.939 525.787 253.635 526.245 253.33C526.703 253.178 527.008 253.33 527.314 253.787C527.466 254.243 527.772 254.699 527.924 255.156C528.077 255.612 527.924 255.916 527.466 256.22C527.314 256.22 527.161 256.22 527.161 256.22Z" fill="#EB4680"/>
</g>
<g id="Group_18">
<path id="Vector_70" d="M506.097 327.099C505.028 327.099 504.113 327.099 503.044 326.947C502.586 326.947 502.281 326.49 502.281 326.186C502.281 325.73 502.739 325.426 503.044 325.426C503.96 325.578 505.028 325.578 505.944 325.578C506.402 325.578 506.707 325.882 506.707 326.338C506.86 326.795 506.402 327.099 506.097 327.099ZM510.523 326.795C510.218 326.795 509.76 326.49 509.76 326.186C509.76 325.73 509.913 325.426 510.371 325.274C511.287 325.122 512.355 324.969 513.271 324.665C513.729 324.513 514.034 324.817 514.187 325.274C514.339 325.73 514.034 326.034 513.576 326.186C512.66 326.338 511.744 326.643 510.523 326.795C510.523 326.795 510.676 326.795 510.523 326.795ZM498.465 326.186H498.312C497.396 326.034 496.328 325.73 495.26 325.426C494.802 325.274 494.649 324.817 494.802 324.513C494.954 324.057 495.412 323.905 495.718 324.057C496.633 324.361 497.702 324.513 498.618 324.817C499.076 324.969 499.228 325.274 499.228 325.73C499.228 326.034 498.923 326.186 498.465 326.186ZM517.697 324.665C517.392 324.665 517.087 324.513 516.934 324.209C516.781 323.753 516.934 323.448 517.239 323.144C518.155 322.688 518.918 322.232 519.834 321.775C520.14 321.623 520.597 321.623 520.903 322.08C521.055 322.384 521.055 322.84 520.597 323.144C519.682 323.753 518.766 324.209 517.85 324.665C518.003 324.665 517.85 324.665 517.697 324.665ZM491.291 324.057C491.138 324.057 491.138 324.057 490.986 324.057C490.07 323.753 489.154 323.296 488.238 322.84C487.78 322.688 487.628 322.232 487.933 321.775C488.086 321.319 488.544 321.167 489.001 321.471C489.917 321.927 490.833 322.232 491.749 322.688C492.207 322.84 492.359 323.296 492.207 323.601C491.902 323.905 491.596 324.057 491.291 324.057ZM523.955 320.406C523.803 320.406 523.498 320.254 523.345 320.102C523.04 319.798 523.04 319.342 523.345 319.038C524.108 318.429 524.719 317.669 525.329 316.908C525.634 316.604 526.092 316.604 526.398 316.756C526.703 317.06 526.703 317.517 526.55 317.821C525.94 318.581 525.177 319.342 524.413 320.102C524.413 320.406 524.108 320.406 523.955 320.406ZM528.687 314.627C528.535 314.627 528.382 314.627 528.229 314.475C527.924 314.322 527.771 313.714 527.924 313.41C528.382 312.649 528.84 311.737 529.298 310.824C529.45 310.52 529.908 310.368 530.366 310.52C530.671 310.672 530.977 311.128 530.671 311.585C530.214 312.497 529.756 313.41 529.145 314.322C529.298 314.475 528.992 314.627 528.687 314.627ZM531.893 307.782C531.74 307.782 531.74 307.782 531.587 307.782C531.129 307.63 530.977 307.174 531.129 306.87C531.435 305.957 531.74 305.044 532.045 303.98C532.198 303.523 532.503 303.371 532.961 303.371C533.419 303.523 533.572 303.828 533.572 304.284C533.266 305.349 532.961 306.261 532.656 307.174C532.503 307.63 532.198 307.782 531.893 307.782ZM533.724 300.481C533.724 300.481 533.572 300.481 533.724 300.481C533.114 300.329 532.961 300.025 532.961 299.569C533.114 298.656 533.266 297.591 533.419 296.679C533.419 296.223 533.877 295.918 534.182 296.07C534.64 296.07 534.945 296.527 534.793 296.831C534.64 297.896 534.487 298.808 534.335 299.873C534.335 300.177 534.03 300.481 533.724 300.481ZM534.487 293.028C534.03 293.028 533.724 292.724 533.724 292.268C533.724 291.66 533.724 290.899 533.724 290.139V289.226C533.724 288.77 534.03 288.465 534.487 288.465C534.945 288.465 535.251 288.77 535.251 289.226V290.139C535.251 290.899 535.251 291.507 535.251 292.268C535.251 292.724 534.793 293.028 534.487 293.028ZM534.182 285.423C533.724 285.423 533.419 285.119 533.419 284.663C533.419 283.75 533.266 282.686 533.114 281.621C533.114 281.165 533.419 280.86 533.724 280.708C534.182 280.708 534.487 281.013 534.64 281.317C534.793 282.381 534.793 283.294 534.945 284.359C535.098 285.119 534.793 285.423 534.182 285.423C534.335 285.423 534.335 285.423 534.182 285.423ZM533.266 277.971C532.961 277.971 532.503 277.666 532.503 277.362C532.351 276.45 532.198 275.385 531.893 274.472C531.74 274.016 532.045 273.712 532.503 273.56C532.961 273.408 533.266 273.712 533.419 274.168C533.572 275.233 533.877 276.145 534.03 277.21C534.182 277.514 533.877 277.971 533.266 277.971C533.419 277.971 533.419 277.971 533.266 277.971ZM531.74 270.67C531.435 270.67 531.129 270.366 530.977 270.061C530.672 269.149 530.519 268.084 530.214 267.171C530.061 266.715 530.366 266.411 530.671 266.259C531.129 266.107 531.435 266.411 531.587 266.715C531.893 267.628 532.198 268.692 532.351 269.605C532.503 270.061 532.198 270.366 531.74 270.518C531.893 270.67 531.893 270.67 531.74 270.67ZM529.756 263.369C529.45 263.369 529.145 263.217 528.993 262.913C528.687 262 528.382 261.087 528.077 260.023C527.924 259.566 528.077 259.262 528.535 259.11C528.993 258.958 529.298 259.11 529.45 259.566C529.756 260.479 530.061 261.544 530.366 262.456C530.519 262.913 530.214 263.217 529.908 263.369C529.908 263.369 529.756 263.369 529.756 263.369Z" fill="#EB4680"/>
</g>
<g id="Group_19">
<path id="Vector_71" d="M484.422 320.863C484.27 320.863 484.117 320.863 484.117 320.711C483.659 320.406 483.201 320.254 482.743 319.95C482.438 319.798 482.285 319.342 482.438 318.886C482.591 318.581 483.049 318.429 483.507 318.581C483.965 318.886 484.422 319.038 484.88 319.342C485.186 319.494 485.338 319.95 485.186 320.407C484.88 320.711 484.728 320.863 484.422 320.863Z" fill="#EB4680"/>
</g>
</g>
<g id="Group_20">
<path id="Vector_72" d="M525.329 256.981C525.329 256.981 525.177 256.981 525.329 256.981C524.871 256.981 524.566 256.525 524.566 256.22L524.871 252.114C524.871 251.809 525.024 251.657 525.329 251.505C525.635 251.353 525.94 251.353 526.092 251.657L529.603 254.243C529.908 254.547 530.061 255.003 529.756 255.308C529.451 255.612 528.993 255.764 528.687 255.46L526.398 253.787L526.245 256.372C526.092 256.677 525.635 256.981 525.329 256.981Z" fill="#EB4680"/>
</g>
</g>
</g>
</g>
<path id="Vector_73" d="M248.292 122.22C248.292 117.201 241.271 113.094 232.57 113.094C223.87 113.094 216.849 117.049 216.849 122.068C216.849 126.631 222.802 130.434 230.433 131.042V133.628C228.907 133.78 227.839 134.54 227.991 135.453V144.123C227.991 145.187 229.518 146.1 231.349 146.1H233.944C235.776 146.1 237.302 145.187 237.302 144.123V135.453C237.302 134.54 236.234 133.78 234.707 133.628V131.042C242.492 130.586 248.292 126.783 248.292 122.22Z" fill="white"/>
<g id="Group_21">
<path id="Vector_74" d="M438.479 475.7L165.715 318.733C155.183 312.649 146.635 296.375 146.635 282.381V34.9149C146.635 20.9217 155.183 14.3814 165.715 20.4654L438.631 177.585C449.163 183.669 457.711 199.943 457.711 213.936V461.251C457.711 475.396 449.011 481.784 438.479 475.7Z" fill="#D1EBFF"/>
<path id="Vector_75" d="M446.11 173.63L173.194 16.6629C169.073 14.2293 165.104 13.773 162.052 14.9898C161.594 15.1419 154.115 18.9444 153.809 19.2486C157.015 17.7276 161.136 18.0318 165.715 20.6175L438.631 177.737C449.163 183.821 457.711 200.095 457.711 214.089V461.403C457.711 470.225 454.353 476.005 449.316 477.678C449.774 477.678 450.232 477.526 450.995 477.069C451.3 476.917 459.237 472.659 459.39 472.506C463.053 469.921 465.343 464.749 465.343 457.601V210.134C465.19 195.989 456.642 179.714 446.11 173.63Z" fill="#3F92D1"/>
<path id="Vector_76" d="M443.973 174.695L171.057 17.5755C166.936 15.1419 162.968 14.6856 159.915 15.9024C159.457 16.0545 154.115 18.9444 153.809 19.0965C157.015 17.5755 161.136 17.8797 165.715 20.4654L438.631 177.585L443.973 174.695Z" fill="#4F9FDB"/>
<path id="Vector_77" d="M439.394 177.128L166.631 20.009C162.357 17.5754 158.388 17.1191 155.183 18.488C157.931 18.0317 161.136 18.6401 164.341 20.6174L437.257 177.737C447.789 183.821 456.337 200.095 456.337 214.089V461.403C456.337 469.616 453.284 475.244 448.705 477.221C454.658 476.309 458.627 470.225 458.627 460.643V213.48C458.627 199.487 450.079 183.212 439.394 177.128Z" fill="white"/>
<path id="Vector_78" d="M157.32 56.8173V282.229C157.32 293.181 162.51 303.98 171.057 309.455L440.921 464.749C441.073 464.749 441.226 464.901 441.379 465.054C443.821 466.422 446.874 464.749 446.874 461.859V223.671L157.32 56.8173Z" fill="#03336E"/>
<path id="Vector_79" d="M446.568 463.076C446.416 462.924 446.263 462.924 446.11 462.772L176.094 307.326C167.547 302.002 162.357 291.203 162.357 280.1V59.8592L157.32 56.9693V282.381C157.32 293.333 162.51 304.132 171.057 309.607L440.921 464.749C441.073 464.749 441.226 464.901 441.379 465.053C443.516 466.27 445.958 465.206 446.568 463.076C446.568 463.076 446.568 463.076 446.568 463.076Z" fill="#001A46"/>
<g id="Group_22">
<path id="Vector_80" d="M431.762 196.597C431.762 199.943 434.052 203.898 436.952 205.571C439.852 207.244 442.142 205.875 442.142 202.529C442.142 199.183 439.852 195.228 436.952 193.555C434.052 191.882 431.762 193.251 431.762 196.597Z" fill="#FFCC00"/>
<path id="Vector_81" d="M418.178 188.688C418.178 192.034 420.467 195.989 423.367 197.662C426.267 199.335 428.557 197.966 428.557 194.62C428.557 191.274 426.267 187.319 423.367 185.646C420.467 183.973 418.178 185.342 418.178 188.688Z" fill="#EB4680"/>
<path id="Vector_82" d="M404.593 180.779C404.593 184.125 406.882 188.08 409.783 189.753C412.683 191.426 414.972 190.057 414.972 186.711C414.972 183.364 412.683 179.41 409.783 177.737C406.882 176.216 404.593 177.585 404.593 180.779Z" fill="#0FBAB8"/>
</g>
</g>
<path id="opacity" d="M335.295 173.326L315.453 161.918C313.468 160.701 311.789 161.614 311.789 164.048C311.789 166.329 313.468 169.067 315.453 170.284L335.295 181.691C337.28 182.908 338.959 181.995 338.959 179.562C338.959 177.28 337.28 174.543 335.295 173.326ZM367.96 192.034L348.117 180.627C346.133 179.41 344.454 180.322 344.454 182.756C344.454 185.037 346.133 187.775 348.117 188.992L367.96 200.4C369.944 201.616 371.623 200.704 371.623 198.27C371.471 195.989 369.944 193.251 367.96 192.034ZM400.472 210.894L380.629 199.487C378.645 198.27 376.966 199.183 376.966 201.616C376.966 203.898 378.645 206.636 380.629 207.852L400.472 219.26C402.456 220.477 404.135 219.564 404.135 217.131C404.135 214.849 402.456 211.959 400.472 210.894ZM433.136 229.603L413.293 218.195C411.309 216.978 409.63 217.891 409.63 220.325C409.63 222.606 411.309 225.344 413.293 226.561L433.136 237.968C435.121 239.185 436.8 238.272 436.8 235.839C436.8 233.557 435.121 230.667 433.136 229.603Z" fill="#72B5E8"/>
<g id="Group_23">
<g id="Group_24">
<path id="Vector_83" d="M256.687 189.6V274.472L266.151 269.149V183.973L256.687 189.6Z" fill="#2672AB"/>
<path id="Vector_84" d="M256.84 189.6V274.472L70.9271 168.306V83.1305L256.84 189.6Z" fill="#3F92D1"/>
<path id="Vector_85" d="M70.9271 83.1305L256.84 189.6L266.151 183.973L80.0854 77.5028L70.9271 83.1305Z" fill="#72B5E8"/>
<path id="Vector_86" opacity="0.7" d="M70.9271 83.1305L256.84 189.6L266.151 183.973L256.84 188.384L70.9271 83.1305Z" fill="white"/>
</g>
<g id="Group_25">
<path id="Vector_87" d="M229.518 243.748V240.098L170.905 206.94V210.438L229.518 243.748Z" fill="white"/>
<path id="Vector_88" d="M145.414 139.864V143.362L244.171 199.639V195.989L145.414 139.864Z" fill="white"/>
<path id="Vector_89" d="M180.216 189.753L145.414 169.827V173.326L180.216 193.403V189.753Z" fill="white"/>
<path id="Vector_90" d="M203.722 218.195V221.846L218.07 229.603V225.952L203.722 218.195Z" fill="white"/>
<path id="Vector_91" d="M201.432 187.015L145.414 154.77V158.42L201.432 190.665V187.015Z" fill="white"/>
<path id="Vector_92" d="M166.02 174.086L145.414 162.223V165.873L166.02 177.737V174.086Z" fill="white"/>
<path id="Vector_93" d="M160.831 197.206L200.211 219.868V216.218L160.831 193.555V197.206Z" fill="white"/>
<path id="Vector_94" d="M169.531 176.216V179.714L224.786 211.047V207.396L169.531 176.216Z" fill="white"/>
<path id="Vector_95" d="M183.726 191.882V195.38L211.354 211.351V207.7L183.726 191.882Z" fill="white"/>
<path id="Vector_96" d="M157.167 191.578L145.414 184.733V188.384L157.167 195.076V191.578Z" fill="white"/>
<path id="Vector_97" d="M205.096 192.642L244.171 214.697V211.047L205.096 189.144V192.642Z" fill="white"/>
<path id="Vector_98" d="M228.449 213.024L244.171 222.15V218.499L228.449 209.526V213.024Z" fill="white"/>
<path id="Vector_99" d="M145.414 150.967L244.171 207.092V203.594L145.414 147.317V150.967Z" fill="white"/>
<path id="Vector_100" d="M215.017 213.328L244.171 229.603V225.952L215.017 209.83V213.328Z" fill="white"/>
<path id="Vector_101" d="M167.394 204.81L145.414 192.338V195.837L167.394 208.461V204.81Z" fill="white"/>
<path id="Vector_102" d="M233.181 245.725L244.171 252.114V248.463L233.181 242.227V245.725Z" fill="white"/>
<path id="Vector_103" d="M221.58 231.732L244.171 244.661V241.01L221.58 228.082V231.732Z" fill="white"/>
<path id="Vector_104" d="M145.414 180.931L244.171 237.056V233.557L145.414 177.28V180.931Z" fill="white"/>
</g>
<path id="Vector_105" d="M124.808 125.566L92.449 106.858C86.8014 103.664 82.2223 107.01 82.2223 114.615V152.032C82.2223 159.637 86.8014 168.307 92.449 171.501L124.808 190.209C130.456 193.403 135.035 190.057 135.035 182.452V145.035C135.188 137.582 130.608 128.761 124.808 125.566Z" fill="#2672AB"/>
<path id="Vector_106" d="M128.929 187.167L96.5702 168.459C90.9226 165.265 86.3435 156.443 86.3435 148.99V111.573C86.3435 109.14 86.8014 107.162 87.5646 105.793C84.3592 106.25 82.2223 109.596 82.2223 114.615V152.032C82.2223 159.637 86.8014 168.307 92.449 171.501L124.808 190.209C128.624 192.49 131.982 191.578 133.814 188.384C132.44 188.536 130.761 188.232 128.929 187.167Z" fill="#084C94"/>
<g id="Group_26">
<path id="Vector_107" d="M99.623 136.061L67.2638 117.353C61.6162 114.159 57.0371 117.505 57.0371 125.11V162.527C57.0371 170.132 61.6162 178.801 67.2638 181.995L99.623 200.704C105.271 203.898 109.85 200.552 109.85 192.947V155.53C110.002 148.077 105.423 139.255 99.623 136.061Z" fill="#0FBAB8"/>
<path id="Vector_108" d="M104.965 132.867L72.6062 114.159C70.164 112.79 68.027 112.638 66.1954 113.398L60.5477 116.745C62.3794 115.68 64.669 115.68 67.2638 117.201L99.623 135.909C105.271 139.103 109.85 147.925 109.85 155.378V192.795C109.85 196.445 108.781 199.183 106.95 200.552L110.002 198.574C112.597 197.053 115.039 194.772 115.039 189.753V152.336C115.192 144.883 110.613 136.213 104.965 132.867Z" fill="#0BA19F"/>
<path id="Vector_109" opacity="0.7" d="M100.234 135.605L67.8744 116.897C65.1269 115.224 62.5321 115.376 60.7004 116.745C62.3794 116.136 64.5163 116.288 66.6533 117.657L99.0125 136.365C104.66 139.56 109.239 148.381 109.239 155.834V193.099C109.239 196.901 108.018 199.639 106.186 201.008C108.781 200.095 110.46 196.901 110.46 192.338V155.074C110.46 147.621 105.881 138.799 100.234 135.605Z" fill="white"/>
<path id="Vector_110" d="M65.5848 127.696V170.436L100.691 190.665V147.925L65.5848 127.696ZM98.5545 186.863L67.8743 169.219V131.65L98.5545 149.294V186.863Z" fill="white"/>
<path id="Vector_111" d="M93.0596 155.53C93.0596 158.268 91.0753 159.485 88.6331 158.116C86.1909 156.747 84.2066 153.249 84.2066 150.511C84.2066 147.773 86.1909 146.556 88.6331 147.925C91.0753 149.294 93.0596 152.64 93.0596 155.53Z" fill="white"/>
<path id="Vector_112" d="M66.8059 159.028L75.9642 147.317L85.2751 170.74L91.9911 165.264L99.4704 185.494L99.3178 187.471L66.9586 170.284L66.8059 159.028Z" fill="white"/>
</g>
</g>
<g id="Group_27">
<g id="Group_28">
<path id="Vector_113" d="M495.718 160.701C495.718 166.481 493.733 170.588 490.375 172.565C490.223 172.565 484.728 176.064 484.728 176.064C481.37 177.889 483.507 173.63 478.317 170.74C467.937 164.808 459.39 150.207 459.39 138.343C459.39 132.411 453.895 132.411 457.253 130.434C457.406 130.434 463.511 126.935 463.664 126.783C467.022 124.958 471.753 125.262 476.79 128.304C487.322 134.236 495.718 148.838 495.718 160.701Z" fill="#FFCC00"/>
<path id="Vector_114" d="M471.601 131.498C466.564 128.608 462.137 128.304 458.627 129.977C461.832 129.065 465.648 129.825 469.922 132.259C480.301 138.191 488.849 152.792 488.849 164.656C488.849 170.892 486.559 175.151 482.896 176.976C487.475 175.759 490.528 171.196 490.528 164.048C490.528 152.032 482.133 137.43 471.601 131.498Z" fill="white"/>
<path id="Vector_115" d="M489.612 164.352C489.612 176.216 481.217 181.083 470.685 174.999C460.306 169.067 451.758 154.465 451.758 142.602C451.758 130.738 460.153 125.871 470.685 131.955C481.217 137.887 489.612 152.488 489.612 164.352Z" fill="#FFD70F"/>
</g>
<path id="Vector_116" d="M467.327 145.796C467.327 147.469 466.106 148.077 464.732 147.317C463.206 146.404 462.137 144.427 462.137 142.754C462.137 141.081 463.358 140.472 464.732 141.233C466.106 142.145 467.327 144.123 467.327 145.796Z" fill="#D99F00"/>
<path id="Vector_117" d="M478.012 152.032C478.012 153.705 476.791 154.313 475.417 153.553C473.89 152.64 472.822 150.663 472.822 148.99C472.822 147.317 474.043 146.708 475.417 147.469C476.943 148.229 478.012 150.359 478.012 152.032Z" fill="#D99F00"/>
<path id="Vector_118" d="M460 152.64L462.443 153.097C463.511 157.355 466.564 161.614 470.074 163.591C473.432 165.417 476.333 164.808 477.554 162.07L479.996 164.504C478.469 168.306 474.348 169.067 470.074 166.633C465.648 164.048 461.527 158.42 460 152.64Z" fill="#D99F00"/>
<path id="Vector_119" d="M465.495 146.708C463.969 145.796 462.901 143.818 462.901 142.145C462.901 141.537 463.053 141.233 463.206 140.929C462.595 141.081 462.137 141.689 462.137 142.754C462.137 144.427 463.358 146.404 464.732 147.317C465.648 147.925 466.564 147.773 467.022 147.165C466.564 147.165 466.106 147.013 465.495 146.708Z" fill="#B08100"/>
<path id="Vector_120" d="M476.18 152.944C474.654 152.032 473.585 150.055 473.585 148.381C473.585 147.773 473.738 147.469 473.89 147.165C473.28 147.317 472.822 147.925 472.822 148.99C472.822 150.663 474.043 152.64 475.417 153.553C476.333 154.161 477.248 154.009 477.706 153.401C477.248 153.401 476.791 153.249 476.18 152.944Z" fill="#B08100"/>
<g id="Group_29">
<path id="Vector_121" d="M478.012 162.375L477.706 162.07C477.401 162.679 477.096 163.287 476.638 163.744C477.096 163.287 477.554 162.983 478.012 162.375Z" fill="#B08100"/>
<path id="Vector_122" d="M470.838 166.025C466.564 163.591 462.595 158.268 460.916 152.792L460 152.64C461.527 158.42 465.495 163.896 470.074 166.481C473.432 168.307 476.485 168.307 478.469 166.633C476.485 167.85 473.738 167.698 470.838 166.025Z" fill="#B08100"/>
</g>
</g>
<g id="anlysis">
<g id="Group_30">
<path id="Vector_123" d="M486.559 347.48V451.212L495.87 445.737V341.853L486.559 347.48Z" fill="#2672AB"/>
<path id="Vector_124" d="M486.559 347.48V451.212L283.093 334.856V230.972L486.559 347.48Z" fill="#3F92D1"/>
<path id="Vector_125" d="M283.093 230.972L486.559 347.48L495.87 341.853L292.252 225.344L283.093 230.972Z" fill="#72B5E8"/>
<path id="Vector_126" opacity="0.7" d="M283.093 230.972L486.559 347.48L495.87 341.853L486.559 346.263L283.093 230.972Z" fill="white"/>
</g>
<path id="Vector_127" d="M474.196 392.958C474.196 413.187 459.848 421.249 442.294 411.058C424.588 400.867 410.393 376.379 410.393 356.15C410.393 335.921 424.741 327.859 442.294 338.05C459.848 348.089 474.196 372.729 474.196 392.958Z" fill="#2672AB"/>
<path id="Vector_128" d="M445.347 408.32C427.641 398.13 413.446 373.641 413.446 353.412C413.446 345.959 415.43 340.027 418.788 336.225C413.598 339.723 410.393 346.568 410.393 356.15C410.393 376.379 424.741 400.867 442.294 411.058C453.284 417.446 463.053 416.534 468.853 410.146C462.9 413.948 454.658 413.644 445.347 408.32Z" fill="#084C94"/>
<g id="Group_31">
<path id="Vector_129" d="M352.696 287.857L345.827 283.902V361.017L352.696 364.972V287.857ZM362.465 284.055L355.596 280.1V366.645L362.465 370.599V284.055ZM372.692 301.546L365.823 297.591V372.577L372.692 376.531V301.546ZM325.374 306.87V349.153L332.243 353.108V310.824L325.374 306.87ZM342.469 295.158L335.601 291.203V354.933L342.469 358.888V295.158ZM382.766 322.84L375.897 318.885V378.204L382.766 382.159V322.84ZM392.535 347.328L385.666 343.374V383.984L392.535 387.939V347.328ZM322.169 299.569L315.3 295.614V343.069L322.169 347.024V299.569ZM294.846 302.307V331.053L301.715 335.008V306.261L294.846 302.307ZM311.942 291.051L305.073 287.097V336.833L311.942 340.788V291.051Z" fill="#2672AB"/>
<path id="Vector_130" d="M352.696 318.125L345.827 314.17V361.017L352.696 364.972V318.125ZM362.465 296.831L355.596 292.876V366.645L362.465 370.599V296.831ZM372.692 315.083L365.823 311.128V372.425L372.692 376.379V315.083ZM325.374 317.212V349.153L332.243 353.108V321.167L325.374 317.212ZM342.469 315.843L335.601 311.889V354.933L342.469 358.888V315.843ZM322.169 303.523L315.3 299.569V343.069L322.169 347.024V303.523ZM294.846 322.84V331.206L301.715 335.16V326.795L294.846 322.84ZM311.942 322.84L305.073 318.885V336.985L311.942 340.94V322.84ZM382.766 333.943L375.897 329.989V378.204L382.766 382.159V333.943ZM392.534 353.412L385.666 349.458V383.984L392.534 387.939V353.412Z" fill="#A8CFF0"/>
<g id="Group_32">
<path id="Vector_131" d="M372.692 315.996L365.823 312.041V311.28L372.692 315.083V315.996Z" fill="white"/>
<path id="Vector_132" d="M362.465 297.744L355.596 293.789V292.876L362.465 296.831V297.744Z" fill="white"/>
<path id="Vector_133" d="M392.535 354.173L385.666 350.218V349.458L392.535 353.412V354.173Z" fill="white"/>
<path id="Vector_134" d="M352.696 319.038L345.827 315.083V314.17L352.696 318.125V319.038Z" fill="white"/>
<path id="Vector_135" d="M382.766 334.704L375.897 330.749V329.989L382.766 333.943V334.704Z" fill="white"/>
<path id="Vector_136" d="M311.942 323.601L305.073 319.646V318.885L311.942 322.84V323.601Z" fill="white"/>
<path id="Vector_137" d="M322.169 304.284L315.3 300.329V299.569L322.169 303.523V304.284Z" fill="white"/>
<path id="Vector_138" d="M301.715 326.795V327.555L294.846 323.601V322.84L301.715 326.795Z" fill="white"/>
<path id="Vector_139" d="M342.469 316.756L335.601 312.801V311.889L342.469 315.844V316.756Z" fill="white"/>
<path id="Vector_140" d="M332.243 321.928L325.374 317.973V317.212L332.243 321.167V321.928Z" fill="white"/>
</g>
</g>
<g id="Group_33">
<g id="Group_34">
<path id="Vector_141" d="M410.851 361.017C411.309 345.807 422.451 339.723 436.036 347.632C443.057 351.739 449.468 358.584 454.047 366.645L459.084 365.428C453.284 355.085 445.194 345.959 436.036 340.788C418.941 330.901 404.898 338.658 404.745 358.127L408.714 361.778L410.851 361.017Z" fill="#FFCC00"/>
<path id="Vector_142" d="M448.705 408.624C445.042 408.929 440.615 407.864 436.036 405.278C423.062 397.825 412.377 380.486 411.004 365.428L404.898 362.386C404.898 362.538 402.914 362.842 402.914 362.994C404.745 381.855 420.009 403.149 436.189 412.427C441.989 415.773 445.958 417.598 450.689 416.99C450.842 416.99 452.674 416.534 452.826 416.382L448.705 408.624Z" fill="#FFCC00"/>
<path id="Vector_143" d="M456.337 371.208C459.39 377.748 461.221 384.593 461.221 390.981C461.221 400.107 457.558 406.039 451.758 408.016L455.726 415.773C462.9 413.34 467.48 405.887 467.48 394.631C467.48 386.722 465.19 378.204 461.374 369.991L456.337 371.208Z" fill="#FFCC00"/>
</g>
<path id="Vector_144" d="M444.737 383.832C443.058 382.463 441.531 380.638 440.31 378.509C439.547 377.292 439.547 375.923 440.31 375.619C441.226 375.01 441.989 374.25 442.6 373.185C443.363 373.337 444.279 373.185 444.279 372.12C444.279 371.056 443.821 369.839 443.21 369.231C443.058 364.668 441.379 359.8 436.036 356.758C434.205 355.694 432.831 355.389 431.762 355.542C431.457 355.542 429.473 356.15 429.168 356.302C427.794 357.063 429.015 358.584 429.015 361.017C428.404 360.865 427.946 361.473 427.946 362.538C427.946 363.603 428.862 364.972 429.625 365.732C430.083 367.405 430.999 369.231 431.915 370.904C432.678 372.12 432.678 373.489 431.915 373.794C430.694 374.402 429.168 374.554 427.489 373.946C426.878 373.794 426.115 373.794 425.657 373.946C425.504 373.946 423.673 374.554 423.52 374.554C422.451 375.01 423.673 375.771 423.673 377.444V382.159C423.673 383.072 424.283 384.136 425.199 384.745L445.652 398.282C445.958 398.434 448.095 397.825 448.247 397.673C448.553 397.521 448.705 397.217 448.705 396.761V392.046C448.553 389.004 446.874 385.657 444.737 383.832Z" fill="#FFCC00"/>
<g id="Group_35">
<path id="Vector_145" d="M409.477 361.473C409.935 346.263 421.078 340.179 434.663 348.089C441.684 352.195 448.095 359.04 452.674 367.101L457.711 365.884C451.911 355.542 443.821 346.416 434.663 341.244C417.567 331.358 403.524 339.115 403.372 358.584L409.477 361.473Z" fill="white"/>
<path id="Vector_146" d="M447.331 408.929C443.668 409.233 439.242 408.168 434.662 405.582C421.688 398.13 411.004 380.79 409.63 365.732L403.524 362.69C405.203 381.703 418.483 403.453 434.662 412.731C440.768 416.229 446.416 417.446 451.3 416.838L447.331 408.929Z" fill="white"/>
<path id="Vector_147" d="M454.963 371.512C458.016 378.052 459.848 384.897 459.848 391.285C459.848 400.411 456.184 406.343 450.384 408.32L454.353 416.077C461.527 413.644 466.106 406.191 466.106 394.935C466.106 387.026 463.816 378.509 460 370.295L454.963 371.512Z" fill="white"/>
</g>
<path id="Vector_148" d="M443.363 384.136C441.684 382.767 440.157 380.942 438.936 378.813C438.173 377.596 438.173 376.227 438.936 375.923C439.852 375.315 440.615 374.554 441.226 373.489C441.989 373.641 442.905 373.489 442.905 372.425C442.905 371.36 442.447 370.143 441.836 369.535C441.684 364.972 440.005 360.104 434.663 357.062C429.32 354.02 427.794 356.91 427.489 361.321C426.878 361.169 426.42 361.778 426.42 362.842C426.42 363.907 427.336 365.276 428.099 366.036C428.557 367.71 429.473 369.535 430.389 371.208C431.152 372.425 431.152 373.793 430.389 374.098C429.167 374.706 427.641 374.858 425.962 374.25C423.673 373.641 421.994 374.858 421.994 377.596V382.311C421.994 383.224 422.604 384.288 423.52 384.897L445.652 397.673C446.416 398.129 447.179 397.825 447.179 396.913V392.198C447.179 389.308 445.5 386.114 443.363 384.136Z" fill="white"/>
<g id="Group_36">
<path id="Vector_149" d="M408.714 361.626C409.172 346.416 420.315 340.332 433.899 348.241C440.921 352.347 447.331 359.192 451.911 367.253L456.948 366.036C451.147 355.694 443.058 346.568 433.899 341.396C416.804 331.51 402.761 339.267 402.609 358.736L408.714 361.626Z" fill="#FFDE17"/>
<path id="Vector_150" d="M446.568 409.233C442.905 409.537 438.479 408.472 433.899 405.887C420.925 398.434 410.241 381.094 408.867 366.036L402.761 362.994C404.44 382.007 417.72 403.757 433.899 413.035C440.005 416.534 445.652 417.75 450.537 417.142L446.568 409.233Z" fill="#FFDE17"/>
<path id="Vector_151" d="M454.2 371.664C457.253 378.204 459.085 385.049 459.085 391.437C459.085 400.563 455.421 406.495 449.621 408.472L453.59 416.229C460.764 413.796 465.343 406.343 465.343 395.088C465.343 387.178 463.053 378.661 459.237 370.447L454.2 371.664Z" fill="#FFDE17"/>
</g>
<path id="Vector_152" d="M442.447 384.288C440.768 382.92 439.242 381.094 438.021 378.965C437.257 377.748 437.257 376.379 438.021 376.075C438.936 375.467 439.7 374.706 440.31 373.641C441.073 373.794 441.989 373.641 441.989 372.577C441.989 371.512 441.531 370.295 440.921 369.687C440.768 365.124 439.089 360.257 433.747 357.215C428.404 354.173 426.878 357.063 426.573 361.473C425.962 361.321 425.504 361.93 425.504 362.994C425.504 364.059 426.42 365.428 427.183 366.188C427.641 367.862 428.557 369.687 429.473 371.36C430.236 372.577 430.236 373.946 429.473 374.25C428.252 374.858 426.725 375.01 425.046 374.402C422.757 373.794 421.078 375.01 421.078 377.748V382.463C421.078 383.376 421.688 384.441 422.604 385.049L444.737 397.825C445.5 398.282 446.263 397.977 446.263 397.065V392.35C446.416 389.46 444.737 386.266 442.447 384.288Z" fill="#FFDE17"/>
</g>
</g>
<g id="Group_37">
<g id="Group_38">
<path id="Vector_153" d="M284.162 321.471V364.82L291.488 360.865V317.212L284.162 321.471Z" fill="#0BA19F"/>
<path id="Vector_154" d="M284.314 321.471V364.82L122.977 272.039V228.386L284.314 321.471Z" fill="#0FBAB8"/>
<path id="Vector_155" d="M122.977 228.386L284.314 321.471L291.488 317.212L130.151 224.279L122.977 228.386Z" fill="#3ECFCD"/>
<path id="Vector_156" opacity="0.7" d="M122.977 228.386L284.314 321.471L291.488 317.212L284.467 320.254L122.977 228.386Z" fill="white"/>
</g>
<path id="Vector_157" d="M276.072 351.739L130.914 267.324V241.771L276.072 326.186V351.739Z" fill="white"/>
<g id="Group_39">
<path id="Vector_158" d="M137.019 248.919L139.919 250.593L141.293 264.586L142.667 252.266L146.025 254.243L147.399 268.236L148.772 255.764L151.367 257.285L149.383 274.472L145.567 272.343L144.193 260.479L142.819 270.822L138.851 268.54L137.019 248.919Z" fill="#084C94"/>
<path id="Vector_159" d="M154.42 258.958L157.32 260.631L158.694 274.624L160.067 262.304L163.426 264.282L164.799 278.275L166.173 265.803L168.768 267.324L166.784 284.511L162.968 282.381L161.594 270.518L160.22 280.86L156.252 278.579L154.42 258.958Z" fill="#084C94"/>
<path id="Vector_160" d="M171.973 268.997L174.873 270.67L176.247 284.663L177.621 272.343L180.979 274.32L182.353 288.313L183.726 275.841L186.321 277.362L184.337 294.549L180.521 292.42L179.147 280.556L177.773 290.899L173.805 288.618L171.973 268.997Z" fill="#084C94"/>
</g>
</g>
<g id="Group_40">
<g id="box_2">
<path id="Vector_161" d="M196.243 98.0363V128.304L200.822 125.719V95.1464L196.243 98.0363Z" fill="#FFCC00"/>
<path id="Vector_162" d="M196.243 98.0363V128.304L169.226 112.638V82.2179L196.243 98.0363Z" fill="#FFD70F"/>
<path id="Vector_163" d="M169.226 82.218L196.243 98.0363L200.822 95.1464L173.652 79.4802L169.226 82.218Z" fill="#FFDE17"/>
<path id="Vector_164" d="M169.226 82.2179L196.243 98.0363L200.822 95.1464L195.937 96.5153L169.226 82.2179Z" fill="white"/>
</g>
<g id="box_1">
<g id="Group_41">
<path id="Vector_165" d="M220.054 87.8457V136.822L227.381 132.867V83.4348L220.054 87.8457Z" fill="#D62D69"/>
<path id="Vector_166" d="M176.247 62.2929L220.054 87.8457L227.381 83.4348L183.574 57.882L176.247 62.2929Z" fill="#F76195"/>
<path id="Vector_167" opacity="0.7" d="M176.247 62.2928L220.054 87.8456L227.381 83.4347L220.207 86.7809L176.247 62.2928Z" fill="white"/>
</g>
<path id="Vector_168" d="M176.247 62.2928V82.6742L199.448 96.2111V124.958L220.054 136.822V87.8456L176.247 62.2928Z" fill="#EB4680"/>
</g>
</g>
<g id="Group_42">
<g id="Group_43">
<path id="Vector_169" d="M313.621 206.332V240.098L318.811 237.36V203.137L313.621 206.332Z" fill="#0BA19F"/>
<path id="Vector_170" d="M313.621 206.332V240.098L283.399 222.758V188.536L313.621 206.332Z" fill="#0FBAB8"/>
<path id="Vector_171" d="M283.399 188.536L313.621 206.332L318.811 203.137L288.436 185.646L283.399 188.536Z" fill="#3ECFCD"/>
<path id="Vector_172" opacity="0.7" d="M283.399 188.536L313.621 206.332L318.811 203.137L313.468 204.658L283.399 188.536Z" fill="white"/>
</g>
<g id="Group_44">
<path id="Vector_173" d="M353.307 229.147V262.913L358.496 260.175V225.952L353.307 229.147Z" fill="#0BA19F"/>
<path id="Vector_174" d="M353.307 229.147V262.913L323.084 245.573V211.351L353.307 229.147Z" fill="#0FBAB8"/>
<path id="Vector_175" d="M323.084 211.351L353.307 229.147L358.496 225.952L328.121 208.461L323.084 211.351Z" fill="#3ECFCD"/>
<path id="Vector_176" opacity="0.7" d="M323.084 211.351L353.307 229.147L358.496 225.952L353.154 227.473L323.084 211.351Z" fill="white"/>
</g>
<g id="Group_45">
<path id="Vector_177" d="M392.687 251.657V285.423L397.877 282.686V248.615L392.687 251.657Z" fill="#0BA19F"/>
<path id="Vector_178" d="M392.84 251.657V285.424L362.465 268.084V234.014L392.84 251.657Z" fill="#0FBAB8"/>
<path id="Vector_179" d="M362.465 234.014L392.84 251.657L397.877 248.615L367.502 230.972L362.465 234.014Z" fill="#3ECFCD"/>
<path id="Vector_180" opacity="0.7" d="M362.465 234.014L392.84 251.657L397.877 248.615L392.535 249.984L362.465 234.014Z" fill="white"/>
</g>
<g id="Group_46">
<path id="Vector_181" d="M431.61 273.712V307.478L436.799 304.74V270.67L431.61 273.712Z" fill="#0BA19F"/>
<path id="Vector_182" d="M431.763 273.712V307.478L401.388 290.139V256.068L431.763 273.712Z" fill="#0FBAB8"/>
<path id="Vector_183" d="M401.388 256.068L431.762 273.712L436.799 270.67L406.425 253.026L401.388 256.068Z" fill="#3ECFCD"/>
<path id="Vector_184" opacity="0.7" d="M401.388 256.068L431.763 273.712L436.8 270.67L431.457 272.039L401.388 256.068Z" fill="white"/>
</g>
<path id="Vector_185" d="M383.682 265.955C382.613 265.042 381.697 263.825 380.934 262.608C380.476 261.848 380.476 260.935 380.934 260.783C381.545 260.479 382.003 259.871 382.308 259.262C382.766 259.414 383.376 259.262 383.376 258.502C383.376 257.893 383.071 257.133 382.613 256.677C382.46 253.787 381.545 250.745 378.187 248.767C374.829 246.79 373.76 248.615 373.76 251.505C373.302 251.353 372.997 251.809 372.997 252.57C372.997 253.178 373.607 254.091 374.065 254.547C374.371 255.612 374.981 256.829 375.439 257.741C375.897 258.502 375.897 259.414 375.439 259.566C374.676 260.023 373.76 260.023 372.692 259.719C371.318 259.262 370.249 260.175 370.249 261.848V264.89C370.249 265.498 370.707 266.259 371.165 266.411L385.208 274.472C385.666 274.776 386.124 274.472 386.124 274.016V270.974C386.124 269.301 385.055 267.171 383.682 265.955Z" fill="white"/>
<path id="Vector_186" d="M406.883 287.705L411.767 290.595V281.773L406.883 278.883V287.705ZM414.667 292.268L419.551 295.158V279.035L414.667 276.145V292.268ZM422.452 273.255V296.679L427.336 299.569V276.145L422.452 273.255Z" fill="white"/>
<path id="Vector_187" d="M346.133 242.075C346.133 241.619 346.133 241.162 345.98 240.706L348.27 240.402C347.964 239.185 347.659 238.12 347.201 236.904L344.606 236.143C344.148 235.231 343.538 234.166 342.927 233.253L343.538 230.668C342.775 229.755 341.859 228.842 340.943 228.082L339.569 229.907C339.264 229.603 338.806 229.299 338.348 229.147C337.89 228.994 337.585 228.69 337.127 228.538L335.753 225.04C334.838 224.736 334.074 224.736 333.159 224.736L333.769 228.082C333.159 228.234 332.548 228.538 332.09 228.994L329.495 226.713C329.037 227.321 328.732 228.082 328.427 228.994L330.716 231.884C330.716 232.341 330.564 232.645 330.564 233.101C330.564 233.557 330.564 234.014 330.716 234.47L328.427 234.774C328.732 235.991 329.037 237.056 329.495 238.273L332.09 239.033C332.548 239.946 333.159 241.01 333.769 241.923L333.159 244.509C333.922 245.421 334.838 246.334 335.753 247.094L337.127 245.269C337.432 245.573 337.89 245.878 338.348 246.03C338.806 246.182 339.111 246.486 339.569 246.638L340.943 250.136C341.859 250.441 342.622 250.441 343.538 250.441L342.927 247.094C343.538 246.942 344.148 246.638 344.606 246.182L347.201 248.463C347.659 247.855 347.964 247.094 348.27 246.182L345.98 243.292C346.133 242.988 346.133 242.531 346.133 242.075ZM338.501 241.162C336.822 240.25 335.448 237.816 335.448 235.991C335.448 234.014 336.822 233.253 338.501 234.318C340.18 235.231 341.554 237.664 341.554 239.489C341.554 241.315 340.18 242.227 338.501 241.162Z" fill="white"/>
<g id="Group_47">
<path id="Vector_188" d="M289.046 202.073L298.815 217.283L308.584 213.328C308.279 212.872 307.821 212.415 307.363 212.263L290.115 202.377C289.657 202.073 289.352 201.921 289.046 202.073Z" fill="white"/>
<path id="Vector_189" d="M308.584 213.328L298.815 218.804L296.068 214.089L289.046 216.978L295.457 213.328L289.046 202.225C288.588 202.377 288.283 202.833 288.283 203.442V215.001C288.283 216.218 289.199 217.739 290.267 218.347L307.515 228.234C308.584 228.842 309.5 228.386 309.5 227.169V215.61C309.194 214.697 308.889 213.936 308.584 213.328ZM308.431 228.082L301.41 217.283L301.868 216.978L308.431 228.082Z" fill="white"/>
</g>
</g>
<g id="message">
<g id="Group_48">
<path id="Vector_190" d="M161.289 305.197V348.697L168.157 344.743V301.09L161.289 305.197Z" fill="#2672AB"/>
<path id="Vector_191" d="M161.289 305.196V348.697L44.3682 281.317V237.664L161.289 305.196Z" fill="#3F92D1"/>
<path id="Vector_192" d="M44.3682 237.664L161.289 305.197L168.157 301.09L51.0842 233.71L44.3682 237.664Z" fill="#72B5E8"/>
<path id="Vector_193" opacity="0.7" d="M44.3682 237.664L161.289 305.196L168.157 301.09L161.136 303.98L44.3682 237.664Z" fill="white"/>
</g>
<path id="Vector_194" d="M89.5489 270.822L68.1796 258.502C66.8059 257.741 65.7374 258.35 65.7374 259.871V274.32C65.7374 275.841 66.8059 277.666 68.1796 278.427L81.6117 286.184L88.3278 297.744V290.139L89.7015 290.899C91.0753 291.66 92.1437 291.051 92.1437 289.53V275.081C91.9911 273.408 90.9226 271.582 89.5489 270.822ZM74.4378 273.56C73.6746 274.016 72.6061 273.255 71.8429 272.039C71.0798 270.822 71.0798 269.605 71.8429 269.149C72.6061 268.693 73.6746 269.453 74.4378 270.67C75.2009 271.887 75.2009 273.255 74.4378 273.56ZM80.238 276.906C79.4748 277.362 78.4063 276.602 77.6432 275.385C76.88 274.168 76.88 272.951 77.6432 272.495C78.4063 272.039 79.4748 272.799 80.238 274.016C81.0012 275.233 81.0012 276.45 80.238 276.906ZM86.0382 280.252C85.275 280.708 84.2065 279.948 83.4434 278.731C82.6802 277.514 82.6802 276.297 83.4434 275.841C84.2065 275.385 85.275 276.145 86.0382 277.362C86.8014 278.579 86.8014 279.796 86.0382 280.252ZM64.0584 273.408V261.544L55.816 256.829C54.4423 256.068 53.3738 256.677 53.3738 258.198V272.647C53.3738 274.168 54.4423 275.993 55.816 276.754L57.1897 277.514V285.119L63.9058 281.317L77.3379 289.074C78.7116 289.834 79.7801 289.226 79.7801 287.705V287.097L68.3322 280.556C65.89 279.187 64.0584 275.993 64.0584 273.408Z" fill="white"/>
<path id="Vector_195" d="M96.7229 278.123V281.773L152.741 313.866V310.368L96.7229 278.123Z" fill="white"/>
<path id="Vector_196" d="M135.035 315.083L96.7229 293.181V296.679L135.035 318.733V315.083Z" fill="white"/>
<path id="Vector_197" d="M96.7229 289.226L152.741 321.471V317.821L96.7229 285.576V289.226Z" fill="white"/>
</g>
<g id="zoom">
<path id="Vector_198" opacity="0.2" d="M239.286 396L202.959 375.619C206.164 373.337 207.996 370.599 207.996 367.71C207.996 359.648 194.106 353.108 177.01 353.108C159.915 353.108 146.025 359.648 146.025 367.71C146.025 375.771 159.915 382.311 177.01 382.311C180.521 382.311 184.032 382.007 187.237 381.551L226.312 403.453C228.907 404.974 233.181 404.67 236.234 402.997C239.286 401.476 243.102 398.282 239.286 396Z" fill="#92B4D1"/>
<g id="Group_49">
<g id="Group_50">
<path id="Vector_199" d="M231.807 404.214C236.359 404.214 240.05 400.536 240.05 396C240.05 391.464 236.359 387.787 231.807 387.787C227.255 387.787 223.565 391.464 223.565 396C223.565 400.536 227.255 404.214 231.807 404.214Z" fill="#001A46"/>
<path id="Vector_200" d="M212.88 339.875L194.869 349.61L221.733 399.042C223.259 401.932 228.602 402.084 233.486 399.498C238.523 396.761 241.271 392.35 239.592 389.46L212.88 339.875Z" fill="#084C94"/>
<path id="Vector_201" d="M206.687 349.924C211.659 347.254 214.425 342.752 212.865 339.868C211.305 336.984 206.01 336.81 201.038 339.48C196.067 342.15 193.3 346.653 194.86 349.537C196.42 352.421 201.715 352.594 206.687 349.924Z" fill="#2672AB"/>
<path id="Vector_202" d="M201.127 326.795L190.442 332.574L198.074 346.72C198.99 348.393 202.195 348.545 205.096 347.024C207.996 345.503 209.675 342.765 208.759 341.092L201.127 326.795Z" fill="#001A46"/>
</g>
<g id="Group_51">
<path id="Vector_203" d="M170.752 213.632C157.473 206.027 145.262 205.115 136.409 209.83C136.103 209.982 123.434 216.978 123.129 217.587C132.135 210.742 145.414 210.894 160.373 219.412C187.542 235.078 209.522 272.799 209.522 303.828C209.522 319.646 203.722 330.597 194.564 335.616C195.174 335.464 195.937 335.16 197.006 334.552C197.311 334.4 205.859 329.228 206.164 329.076C214.712 323.905 219.901 313.106 219.901 298.048C219.901 267.019 197.922 229.146 170.752 213.632Z" fill="#72B5E8"/>
</g>
<path id="Vector_204" d="M160.373 219.564C133.203 203.898 111.223 216.522 111.223 247.398C111.223 278.427 133.203 316.148 160.373 331.814C187.542 347.48 209.522 334.856 209.522 303.98C209.522 273.103 187.542 235.078 160.373 219.564ZM159.61 324.361C136.561 311.128 117.939 279.035 117.939 252.722C117.939 226.409 136.561 215.762 159.61 228.994C182.658 242.227 201.28 274.32 201.28 300.633C201.28 327.099 182.658 337.594 159.61 324.361Z" fill="#D1EBFF"/>
<path id="Vector_205" d="M168.31 319.646C145.262 306.413 126.64 274.32 126.64 248.007C126.64 237.208 129.693 229.146 135.035 224.279C124.808 227.017 118.092 237.208 118.092 252.874C118.092 279.187 136.714 311.28 159.762 324.513C173.347 332.422 185.558 331.814 193.037 324.665C186.016 326.338 177.621 324.969 168.31 319.646Z" fill="#72B5E8"/>
<path id="Vector_206" d="M162.815 218.347C149.841 210.895 137.935 209.83 129.235 214.241C137.477 211.959 149.535 213.176 160.525 219.564C187.695 235.231 209.675 272.951 209.675 303.98C209.675 320.102 201.89 331.662 192.274 336.529C204.332 333.183 211.964 321.319 211.964 302.915C211.812 271.734 189.832 233.862 162.815 218.347Z" fill="white"/>
</g>
</g>
</g>
</g>
<defs>
<clipPath id="clip0">
<rect width="681" height="478" fill="white"/>
</clipPath>
</defs>
</svg>
