<svg width="48" height="48" viewBox="0 0 48 48" fill="none" xmlns="http://www.w3.org/2000/svg">
<path d="M33 40H5C3.346 40 2 38.654 2 37V19C2 17.346 3.346 16 5 16H33C34.654 16 36 17.346 36 19V37C36 38.654 34.654 40 33 40ZM5 18C4.448 18 4 18.449 4 19V37C4 37.551 4.448 38 5 38H33C33.552 38 34 37.551 34 37V19C34 18.449 33.552 18 33 18H5Z" fill="#14A3B4"/>
<path d="M12 33C9.794 33 8 31.206 8 29C8 26.794 9.794 25 12 25C14.206 25 16 26.794 16 29C16 31.206 14.206 33 12 33ZM12 27C10.897 27 10 27.897 10 29C10 30.103 10.897 31 12 31C13.103 31 14 30.103 14 29C14 27.897 13.103 27 12 27Z" fill="#14A3B4"/>
<path d="M26 33C23.794 33 22 31.206 22 29C22 26.794 23.794 25 26 25C28.206 25 30 26.794 30 29C30 31.206 28.206 33 26 33ZM26 27C24.897 27 24 27.897 24 29C24 30.103 24.897 31 26 31C27.103 31 28 30.103 28 29C28 27.897 27.103 27 26 27Z" fill="#14A3B4"/>
<path d="M26 27H12C11.447 27 11 26.552 11 26C11 25.448 11.447 25 12 25H26C26.553 25 27 25.448 27 26C27 26.552 26.553 27 26 27Z" fill="#14A3B4"/>
<path d="M23 18C22.447 18 22 17.552 22 17V13C22 12.449 21.552 12 21 12H1C0.447 12 0 11.552 0 11C0 10.448 0.447 10 1 10H21C22.654 10 24 11.346 24 13V17C24 17.552 23.553 18 23 18Z" fill="#14A3B4"/>
<path d="M31 18C30.447 18 30 17.552 30 17V11C30 9.346 31.346 8 33 8H37C37.553 8 38 8.448 38 9C38 9.552 37.553 10 37 10H33C32.448 10 32 10.449 32 11V17C32 17.552 31.553 18 31 18Z" fill="#14A3B4"/>
<path d="M45 12H39C37.346 12 36 10.654 36 9C36 7.346 37.346 6 39 6H45C46.654 6 48 7.346 48 9C48 10.654 46.654 12 45 12ZM39 8C38.448 8 38 8.449 38 9C38 9.551 38.448 10 39 10H45C45.552 10 46 9.551 46 9C46 8.449 45.552 8 45 8H39Z" fill="#14A3B4"/>
<path d="M45.923 37.462C45.653 37.462 45.382 37.409 45.125 37.302L34.615 32.923C34.105 32.711 33.864 32.125 34.077 31.615C34.29 31.105 34.878 30.865 35.385 31.077L45.894 35.456L46 35.385V22.615L45.509 21.621L45.894 22.544L35.385 26.923C34.877 27.137 34.29 26.895 34.077 26.385C33.864 25.875 34.105 25.29 34.615 25.077L45.124 20.698C45.765 20.429 46.496 20.5 47.075 20.887C47.654 21.274 48 21.92 48 22.615V35.385C48 36.08 47.654 36.726 47.076 37.113C46.729 37.344 46.327 37.462 45.923 37.462Z" fill="#14A3B4"/>
</svg>
