<svg width="1000" height="1000" viewBox="0 0 1000 1000" fill="none" xmlns="http://www.w3.org/2000/svg">
<path d="M847.315 181.98C847.315 165.48 833.815 151.98 817.315 151.98H181.778C165.278 151.98 151.778 165.48 151.778 181.98V254.78H847.315V181.98ZM628.296 215.88H600.296C593.421 215.88 587.796 210.255 587.796 203.38C587.796 196.505 593.421 190.88 600.296 190.88H628.296C635.171 190.88 640.796 196.505 640.796 203.38C640.796 210.255 635.171 215.88 628.296 215.88ZM711.796 215.88H683.796C676.921 215.88 671.296 210.255 671.296 203.38C671.296 196.505 676.921 190.88 683.796 190.88H711.796C718.671 190.88 724.296 196.505 724.296 203.38C724.296 210.255 718.671 215.88 711.796 215.88ZM795.296 215.88H767.296C760.421 215.88 754.796 210.255 754.796 203.38C754.796 196.505 760.421 190.88 767.296 190.88H795.296C802.171 190.88 807.796 196.505 807.796 203.38C807.796 210.255 802.171 215.88 795.296 215.88Z" fill="#14A3B4"/>
<path d="M625.839 519.166C625.833 519.161 625.825 519.155 625.819 519.149C625.81 519.142 625.802 519.134 625.794 519.127C625.365 518.754 624.91 518.366 624.444 517.972C624.374 517.912 624.312 517.858 624.241 517.799C623.682 517.328 623.094 516.841 622.468 516.33C587.925 488.041 544.272 472.461 499.548 472.461C454.824 472.461 411.171 488.041 376.64 516.32C376.328 516.575 376.027 516.823 375.733 517.066C375.56 517.209 375.396 517.347 375.229 517.486C375.11 517.586 374.986 517.688 374.87 517.786C374.749 517.888 374.635 517.985 374.516 518.085C374.36 518.217 374.201 518.351 374.049 518.481C373.932 518.582 373.82 518.679 373.705 518.777C373.57 518.894 373.433 519.011 373.301 519.126C373.295 519.131 373.29 519.136 373.284 519.14C373.275 519.148 373.265 519.157 373.256 519.165C330.131 556.126 305.398 609.866 305.398 666.619C305.398 723.399 330.161 777.17 373.314 814.123C374.403 815.061 375.513 815.988 376.629 816.9C411.172 845.189 454.826 860.768 499.549 860.768C544.272 860.768 587.926 845.189 622.462 816.905C623.584 815.988 624.694 815.06 625.76 814.143C625.76 814.143 625.774 814.131 625.781 814.125C625.781 814.125 625.783 814.123 625.784 814.122C668.946 777.149 693.7 723.388 693.7 666.618C693.697 609.867 668.964 556.127 625.839 519.166ZM372.047 777.745C348.067 750.243 333.57 715.699 330.87 679.117H372.047V777.745ZM372.047 654.116H330.87C333.572 617.53 348.067 582.986 372.047 555.491V654.116ZM487.047 835.294C456.407 833.01 426.829 822.384 401.783 804.65C426.825 786.916 456.405 776.289 487.047 774.005V835.294ZM487.047 748.937C455.113 751.01 424.12 760.985 397.047 777.797V679.117H487.047V748.937ZM487.047 654.116H397.047V555.433C424.121 572.245 455.114 582.22 487.047 584.293V654.116ZM487.047 559.225C456.406 556.941 426.826 546.314 401.783 528.58C426.825 510.846 456.405 500.219 487.047 497.935V559.225ZM512.047 497.935C512.732 497.986 513.417 498.032 514.101 498.091C544.006 500.688 572.823 511.24 597.31 528.58C572.268 546.314 542.688 556.94 512.047 559.224V497.935V497.935ZM512.047 835.294V774.005C542.689 776.289 572.269 786.916 597.311 804.65C572.269 822.384 542.688 833.01 512.047 835.294ZM602.047 777.796C574.974 760.985 543.981 751.009 512.047 748.936V679.116H602.047V777.796ZM602.047 654.116H512.047V584.294C543.98 582.221 574.973 572.246 602.047 555.434V654.116ZM627.047 777.741V679.116H668.224C665.523 715.692 651.031 750.231 627.047 777.741ZM627.047 654.116V555.491C651.027 582.986 665.522 617.53 668.224 654.116H627.047Z" fill="#14A3B4"/>
<path d="M152.685 280.686V691.166C152.685 707.666 166.185 721.166 182.685 721.166H287.293C282.765 703.523 280.397 685.217 280.397 666.619C280.397 602.622 308.262 542.01 356.853 500.297C356.923 500.236 357.769 499.507 357.769 499.507L359.763 497.829L360.806 496.972C399.79 465.045 449.066 447.459 499.547 447.459C550.028 447.459 599.308 465.048 638.307 496.986C638.979 497.534 639.641 498.084 640.274 498.616C640.4 498.721 640.521 498.823 640.642 498.928C641.15 499.357 641.678 499.809 642.179 500.244C690.809 541.959 718.698 602.595 718.698 666.619C718.698 685.216 716.329 703.521 711.799 721.166H818.223C834.723 721.166 848.223 707.666 848.223 691.166V280.686H152.685V280.686ZM264.982 423.214C269.863 428.095 269.863 436.01 264.982 440.892C260.1 445.773 252.185 445.773 247.304 440.892L205.113 398.701C200.232 393.82 200.232 385.905 205.113 381.023L247.304 338.833C252.185 333.951 260.1 333.951 264.982 338.833C269.863 343.714 269.863 351.629 264.982 356.511L231.63 389.863L264.982 423.214ZM360.663 330.633L310.771 458.053C308.296 464.497 301.065 467.716 294.621 465.241C288.176 462.766 284.958 455.536 287.432 449.091L337.324 321.671C339.799 315.226 347.03 312.008 353.474 314.483C359.919 316.957 363.138 324.189 360.663 330.633ZM442.982 398.701L400.791 440.892C395.91 445.773 387.995 445.773 383.113 440.892C378.232 436.01 378.232 428.096 383.113 423.214L416.465 389.862L383.113 356.51C378.232 351.628 378.232 343.714 383.113 338.832C387.995 333.95 395.91 333.95 400.791 338.832L442.982 381.022C447.863 385.905 447.863 393.82 442.982 398.701ZM735.048 348H786.048C792.951 348 798.548 353.597 798.548 360.5C798.548 367.403 792.951 373 786.048 373H735.048C728.145 373 722.548 367.403 722.548 360.5C722.548 353.597 728.144 348 735.048 348ZM633.548 348H684.548C691.451 348 697.048 353.597 697.048 360.5C697.048 367.403 691.451 373 684.548 373H633.548C626.645 373 621.048 367.403 621.048 360.5C621.048 353.597 626.644 348 633.548 348ZM786.954 423.906H634.454C627.551 423.906 621.954 418.31 621.954 411.406C621.954 404.503 627.551 398.906 634.454 398.906H786.954C793.857 398.906 799.454 404.503 799.454 411.406C799.454 418.31 793.857 423.906 786.954 423.906Z" fill="#14A3B4"/>
</svg>
